<svg width="300" height="330" viewBox="0 0 300 330" fill="none" xmlns="http://www.w3.org/2000/svg">
<g clip-path="url(#clip0_532_2946)">
<rect width="300" height="330" rx="15" fill="#12153D"/>
<path d="M39.904 54L36.96 31.6H41.152L43.328 51.056H43.904L46.72 31.6H54.016L56.832 51.056H57.408L59.584 31.6H63.776L60.832 54H53.536L50.656 34.096H50.08L47.2 54H39.904ZM66.99 54V31.6H71.022V40.08H71.598C71.7687 39.7387 72.0353 39.3973 72.398 39.056C72.7607 38.7147 73.2407 38.4373 73.838 38.224C74.4567 37.9893 75.2353 37.872 76.174 37.872C77.4113 37.872 78.4887 38.16 79.406 38.736C80.3447 39.2907 81.07 40.0693 81.582 41.072C82.094 42.0533 82.35 43.2053 82.35 44.528V54H78.318V44.848C78.318 43.6533 78.0193 42.7573 77.422 42.16C76.846 41.5627 76.014 41.264 74.926 41.264C73.6887 41.264 72.7287 41.68 72.046 42.512C71.3633 43.3227 71.022 44.464 71.022 45.936V54H66.99ZM91.6368 54.448C90.5061 54.448 89.4928 54.256 88.5968 53.872C87.7008 53.4667 86.9861 52.8907 86.4528 52.144C85.9408 51.376 85.6848 50.448 85.6848 49.36C85.6848 48.272 85.9408 47.3653 86.4528 46.64C86.9861 45.8933 87.7114 45.3387 88.6288 44.976C89.5674 44.592 90.6341 44.4 91.8288 44.4H96.1808V43.504C96.1808 42.7573 95.9461 42.1493 95.4768 41.68C95.0074 41.1893 94.2608 40.944 93.2368 40.944C92.2341 40.944 91.4874 41.1787 90.9968 41.648C90.5061 42.096 90.1861 42.6827 90.0368 43.408L86.3248 42.16C86.5808 41.3493 86.9861 40.6133 87.5408 39.952C88.1168 39.2693 88.8741 38.7253 89.8128 38.32C90.7728 37.8933 91.9354 37.68 93.3008 37.68C95.3914 37.68 97.0448 38.2027 98.2608 39.248C99.4768 40.2933 100.085 41.808 100.085 43.792V49.712C100.085 50.352 100.383 50.672 100.981 50.672H102.261V54H99.5728C98.7834 54 98.1328 53.808 97.6208 53.424C97.1088 53.04 96.8528 52.528 96.8528 51.888V51.856H96.2448C96.1594 52.112 95.9674 52.4533 95.6688 52.88C95.3701 53.2853 94.9008 53.648 94.2608 53.968C93.6208 54.288 92.7461 54.448 91.6368 54.448ZM92.3408 51.184C93.4714 51.184 94.3888 50.8747 95.0928 50.256C95.8181 49.616 96.1808 48.7733 96.1808 47.728V47.408H92.1168C91.3701 47.408 90.7834 47.568 90.3568 47.888C89.9301 48.208 89.7168 48.656 89.7168 49.232C89.7168 49.808 89.9408 50.2773 90.3888 50.64C90.8368 51.0027 91.4874 51.184 92.3408 51.184ZM110.133 54C109.087 54 108.234 53.68 107.573 53.04C106.933 52.3787 106.613 51.504 106.613 50.416V41.456H102.645V38.128H106.613V33.2H110.645V38.128H114.997V41.456H110.645V49.712C110.645 50.352 110.943 50.672 111.541 50.672H114.613V54H110.133ZM126.771 54V38.128H130.803V54H126.771ZM128.787 36.272C128.062 36.272 127.443 36.0373 126.931 35.568C126.441 35.0987 126.195 34.48 126.195 33.712C126.195 32.944 126.441 32.3253 126.931 31.856C127.443 31.3867 128.062 31.152 128.787 31.152C129.534 31.152 130.153 31.3867 130.643 31.856C131.134 32.3253 131.379 32.944 131.379 33.712C131.379 34.48 131.134 35.0987 130.643 35.568C130.153 36.0373 129.534 36.272 128.787 36.272ZM141.863 54.448C139.794 54.448 138.098 54 136.775 53.104C135.453 52.208 134.653 50.928 134.375 49.264L138.087 48.304C138.237 49.0507 138.482 49.6373 138.823 50.064C139.186 50.4907 139.623 50.8 140.135 50.992C140.669 51.1627 141.245 51.248 141.863 51.248C142.802 51.248 143.495 51.088 143.943 50.768C144.391 50.4267 144.615 50.0107 144.615 49.52C144.615 49.0293 144.402 48.656 143.975 48.4C143.549 48.1227 142.866 47.8987 141.927 47.728L141.031 47.568C139.922 47.3547 138.909 47.0667 137.991 46.704C137.074 46.32 136.338 45.7973 135.783 45.136C135.229 44.4747 134.951 43.6213 134.951 42.576C134.951 40.9973 135.527 39.792 136.679 38.96C137.831 38.1067 139.346 37.68 141.223 37.68C142.994 37.68 144.466 38.0747 145.639 38.864C146.813 39.6533 147.581 40.688 147.943 41.968L144.199 43.12C144.029 42.3093 143.677 41.7333 143.143 41.392C142.631 41.0507 141.991 40.88 141.223 40.88C140.455 40.88 139.869 41.0187 139.463 41.296C139.058 41.552 138.855 41.9147 138.855 42.384C138.855 42.896 139.069 43.28 139.495 43.536C139.922 43.7707 140.498 43.952 141.223 44.08L142.119 44.24C143.314 44.4533 144.391 44.7413 145.351 45.104C146.333 45.4453 147.101 45.9467 147.655 46.608C148.231 47.248 148.519 48.1227 148.519 49.232C148.519 50.896 147.911 52.1867 146.695 53.104C145.501 54 143.89 54.448 141.863 54.448ZM160.178 54V38.128H164.21V54H160.178ZM162.194 36.272C161.468 36.272 160.85 36.0373 160.338 35.568C159.847 35.0987 159.602 34.48 159.602 33.712C159.602 32.944 159.847 32.3253 160.338 31.856C160.85 31.3867 161.468 31.152 162.194 31.152C162.94 31.152 163.559 31.3867 164.05 31.856C164.54 32.3253 164.786 32.944 164.786 33.712C164.786 34.48 164.54 35.0987 164.05 35.568C163.559 36.0373 162.94 36.272 162.194 36.272ZM174.758 54C173.712 54 172.859 53.68 172.198 53.04C171.558 52.3787 171.238 51.504 171.238 50.416V41.456H167.27V38.128H171.238V33.2H175.27V38.128H179.622V41.456H175.27V49.712C175.27 50.352 175.568 50.672 176.166 50.672H179.238V54H174.758ZM187.719 46.64V45.872C187.719 44.784 187.933 43.888 188.359 43.184C188.807 42.48 189.522 41.8933 190.503 41.424L191.047 41.168C192.007 40.72 192.743 40.24 193.255 39.728C193.767 39.216 194.023 38.5333 194.023 37.68C194.023 37.0613 193.863 36.5387 193.543 36.112C193.245 35.664 192.818 35.3227 192.263 35.088C191.709 34.8533 191.058 34.736 190.311 34.736C189.543 34.736 188.85 34.864 188.231 35.12C187.634 35.376 187.154 35.76 186.791 36.272C186.45 36.784 186.279 37.424 186.279 38.192V38.896H182.119V38.256C182.119 36.784 182.482 35.5147 183.207 34.448C183.933 33.3813 184.914 32.5707 186.151 32.016C187.389 31.44 188.775 31.152 190.311 31.152C191.826 31.152 193.17 31.4293 194.343 31.984C195.538 32.5387 196.477 33.3067 197.159 34.288C197.842 35.2693 198.183 36.4 198.183 37.68C198.183 38.96 197.949 40.016 197.479 40.848C197.01 41.6587 196.413 42.32 195.687 42.832C194.983 43.3227 194.258 43.7493 193.511 44.112L192.967 44.368C192.583 44.5387 192.317 44.752 192.167 45.008C192.018 45.2427 191.943 45.5947 191.943 46.064V46.64H187.719ZM189.959 54.448C189.106 54.448 188.381 54.1707 187.783 53.616C187.207 53.04 186.919 52.304 186.919 51.408C186.919 50.512 187.207 49.7867 187.783 49.232C188.381 48.656 189.106 48.368 189.959 48.368C190.834 48.368 191.559 48.656 192.135 49.232C192.711 49.7867 192.999 50.512 192.999 51.408C192.999 52.304 192.711 53.04 192.135 53.616C191.559 54.1707 190.834 54.448 189.959 54.448Z" fill="#E4E4E4"/>
<rect x="35.5" y="77.5" width="229" height="226" rx="15.5" fill="#12153D" stroke="#E4E4E4"/>
<g clip-path="url(#clip1_532_2946)">
<circle cx="149.5" cy="187.5" r="77.5" fill="#12153D"/>
<path d="M173.301 153.212L178.98 154.247L180.013 149.071L182.595 148.035H186.209L187.758 149.071H189.824L191.373 147H193.954L198.085 148.035L201.183 149.071H203.765L204.797 151.141L208.412 153.212L211.51 154.247L215.641 153.212L217.706 155.8L225.5 181L222.353 196.176L220.288 193.588H215.641L217.706 196.176L211.51 197.212L209.961 198.247H201.183L205.83 200.318L203.765 203.424L200.15 206.529H195.503L192.405 208.082L189.824 211.188V218.435L186.725 221.024L183.111 222.059V225.682L175.366 233.447L169.17 235L166.072 232.412L164.523 225.682H163.49L164.523 222.059L163.49 218.435L161.941 214.294L166.072 208.082V200.318L164.523 196.176L166.072 191L164.523 189.965L163.49 185.824H158.843L148 178.576V168.224L150.582 163.565L155.229 160.976L156.778 157.871L163.49 154.247L169.17 155.8L173.301 153.212Z" fill="#E5590F" stroke="#E5590F" stroke-width="2"/>
<path d="M199.5 142.818L203 141.182L197 139L195.5 140.636L195 144.455L198 145L199.5 142.818Z" fill="#E5590F" stroke="#E5590F" stroke-width="2"/>
<path d="M209 151V144L214 151H209Z" fill="#E5590F" stroke="#E5590F" stroke-width="2"/>
<path d="M193.5 220H196L192.5 227.5L189.5 229.5L188 231V225.5L193.5 220Z" fill="#E5590F" stroke="#E5590F" stroke-width="2"/>
<path d="M136.14 257L133 261L137.186 261.5L154.453 262L159.163 261.5L167.012 259.5L178 257L177.477 255H171.721C171.302 255 168.407 254.333 167.012 254L162.302 251.5L159.163 250L157.07 250.5L153.407 251.5H150.791L148.174 253L145.558 254L141.895 255.5L140.326 257H136.14Z" fill="#E5590F" stroke="#E5590F" stroke-width="2"/>
<path d="M106.489 188.165L110.115 180.39L106.489 178.835L103.381 177.798L99.7553 173.133L97.1654 171.578L92.5035 172.096L91.4675 171.578L87.3237 169.505L86.2877 164.839L81.6258 163.284L80.5898 159.138V155.5L86.2877 145.661L90 143.069L96.1294 135.294C97.856 136.157 99.7553 134.464 99.7553 135.294C99.7553 136.123 102.173 135.639 103.381 135.294L102.863 127L112.187 129.073L125.655 138.922L119.957 140.995V143.069L115.295 145.661L110.115 151.881L111.151 153.954L108.561 156.546V161.729L106.489 163.284L103.381 159.138H96.1294L93.5395 163.284L95.0934 168.468L99.7553 166.913H102.863L103.381 170.541L106.489 172.096V176.761L111.151 175.206H115.295L117.367 174.17L119.957 176.761L125.655 177.798L136.014 184.537L137.05 190.239L140.676 191.275C142.403 192.139 145.856 193.971 145.856 194.385C145.856 194.8 148.619 195.595 150 195.94V202.161L145.856 205.271C144.993 205.789 143.163 207.033 142.748 207.862C142.23 208.899 140.676 212.009 140.158 212.528C139.744 212.942 139.295 215.119 139.122 216.156L132.906 215.638L130.316 217.711L129.28 219.784L126.691 223.413L122.029 224.968L111.151 229.115L106.489 231.706L103.381 237.408L101.827 240L99.7553 237.927L100.791 229.115L103.899 227.041L104.935 223.413L108.561 218.748L112.187 207.862V205.271L110.115 203.197V200.087L108.561 195.94L106.489 191.794V188.165Z" fill="#E5590F" stroke="#E5590F" stroke-width="2"/>
<path d="M111.5 170L106 168H112.6L117 170H111.5Z" fill="#E5590F" stroke="#E5590F" stroke-width="2"/>
<path d="M111 241L108 238.5L111 238V241Z" fill="#E5590F" stroke="#E5590F" stroke-width="2"/>
<path d="M121.5 118L112.5 125C113.667 126 114.5 123.1 114.5 123.5C114.5 123.9 117.167 124.667 118.5 125L122 121.5L121.5 118Z" fill="#E5590F" stroke="#E5590F" stroke-width="2"/>
<circle cx="208" cy="170" r="11" fill="url(#paint0_radial_532_2946)"/>
<circle cx="172" cy="175" r="6" fill="url(#paint1_radial_532_2946)"/>
<circle cx="188" cy="161" r="8" fill="url(#paint2_radial_532_2946)"/>
<circle cx="116" cy="188" r="6" fill="url(#paint3_radial_532_2946)"/>
<circle cx="132" cy="204" r="10" fill="url(#paint4_radial_532_2946)"/>
<circle cx="89.5" cy="154.5" r="6.5" fill="url(#paint5_radial_532_2946)"/>
<circle cx="103.5" cy="142.5" r="7.5" fill="url(#paint6_radial_532_2946)"/>
</g>
</g>
<defs>
<radialGradient id="paint0_radial_532_2946" cx="0" cy="0" r="1" gradientUnits="userSpaceOnUse" gradientTransform="translate(208 170) rotate(90) scale(11)">
<stop stop-color="white"/>
<stop offset="1" stop-color="#FF5800"/>
</radialGradient>
<radialGradient id="paint1_radial_532_2946" cx="0" cy="0" r="1" gradientUnits="userSpaceOnUse" gradientTransform="translate(172 175) rotate(90) scale(6)">
<stop stop-color="white"/>
<stop offset="1" stop-color="#FF5800"/>
</radialGradient>
<radialGradient id="paint2_radial_532_2946" cx="0" cy="0" r="1" gradientUnits="userSpaceOnUse" gradientTransform="translate(188 161) rotate(90) scale(8)">
<stop stop-color="white"/>
<stop offset="1" stop-color="#FF5800"/>
</radialGradient>
<radialGradient id="paint3_radial_532_2946" cx="0" cy="0" r="1" gradientUnits="userSpaceOnUse" gradientTransform="translate(116 188) rotate(90) scale(6)">
<stop stop-color="white"/>
<stop offset="1" stop-color="#FF5800"/>
</radialGradient>
<radialGradient id="paint4_radial_532_2946" cx="0" cy="0" r="1" gradientUnits="userSpaceOnUse" gradientTransform="translate(132 204) rotate(90) scale(10)">
<stop stop-color="white"/>
<stop offset="1" stop-color="#FF5800"/>
</radialGradient>
<radialGradient id="paint5_radial_532_2946" cx="0" cy="0" r="1" gradientUnits="userSpaceOnUse" gradientTransform="translate(89.5 154.5) rotate(90) scale(6.5)">
<stop stop-color="white"/>
<stop offset="1" stop-color="#FF5800"/>
</radialGradient>
<radialGradient id="paint6_radial_532_2946" cx="0" cy="0" r="1" gradientUnits="userSpaceOnUse" gradientTransform="translate(103.5 142.5) rotate(90) scale(7.5)">
<stop stop-color="white"/>
<stop offset="1" stop-color="#FF5800"/>
</radialGradient>
<clipPath id="clip0_532_2946">
<rect width="300" height="330" fill="white"/>
</clipPath>
<clipPath id="clip1_532_2946">
<rect width="155" height="155" fill="white" transform="translate(72 110)"/>
</clipPath>
</defs>
</svg>
