<svg width="372" height="434" viewBox="0 0 372 434" fill="none" xmlns="http://www.w3.org/2000/svg">
<path d="M120.092 412.389L117.86 410.799L115.023 408.132L112.186 405.465L110.743 403.141L109.301 400.817L107.774 394.58L106.247 388.343L103.566 381.271L100.885 374.199L98.6886 369.732L96.4922 365.266L93.6934 361.543L90.8946 357.821L88.5673 351.704L86.24 345.586V343.736V341.885L84.0335 335.074L81.827 328.262L78.4535 322.505L75.08 316.747V316.256V315.765L72.9501 311.111L70.8202 306.456L69.9915 304.223L69.1629 301.989L68.365 295.29L67.5672 288.59L65.2525 279.696L62.9379 270.803L63.8009 270.515L64.664 270.227V268.349V266.47L63.6497 266.859L62.6355 267.249L62.156 261.496L61.6765 255.744L63.2262 251.02L64.7758 246.297L63.1245 241.159L61.4731 236.02L63.0685 233.861L64.664 231.702V231.351V231L63.0862 230.762L61.5084 230.525L61.212 227.187L60.9155 223.85L59.8927 222.826L58.8698 221.803L58.0469 225.642L57.224 229.481L57.2212 231.12L57.2184 232.758L55.7152 235.225L54.2121 237.692L49.5525 239.873L44.8929 242.055L40.6772 242.835L36.4615 243.615L33.5126 241.752L30.5637 239.889L27.7118 236.39L24.86 232.891L21.3458 228.93L17.8316 224.97L15.8331 221.948L13.8345 218.926L14.6132 218.147L15.392 217.367L15.8919 218.177L16.3918 218.986L19.5099 218.982L22.628 218.977L25.3232 218.228L28.0185 217.479L31.4935 214.418L34.9686 211.358L34.6874 211.076L34.4062 210.795L29.5026 212.006L24.599 213.217L22.0949 212.747L19.5908 212.276L15.381 209.642L11.1712 207.007L10.0176 204.693L8.8639 202.38V201.463V200.547L10.7885 199.285L12.713 198.023L12.3082 197.618L11.9034 197.213L9.22514 198.794L6.54684 200.375H6.16795H5.78906L6.02448 198.328L6.2599 196.281L9.0387 196.051L11.8175 195.82L12.915 194.253L14.0125 192.685L17.2042 192.783L20.3959 192.882L24.6624 193.35L28.9288 193.819L32.6668 192.86L36.4049 191.902L37.2912 192.789L38.1775 193.676H39.9376H41.6977L43.0899 192.93L44.482 192.185L44.058 189.394L43.6339 186.604L41.8729 181.111L40.1119 175.619V174.592V173.564L37.1291 172.37L34.1463 171.176L33.6971 169.385L33.2478 167.594L33.7574 163.513L34.267 159.432H32.6885H31.11L28.9257 158.302L26.7415 157.172L26.2915 155.378L25.8416 153.584L26.4668 152.493L27.0919 151.401L32.3937 145.739L37.6956 140.077H39.2256H40.7556L41.2066 141.499L41.6575 142.92L42.5921 143.696L43.5268 144.472L49.0733 143.476L54.6199 142.479L55.7359 141.976L56.8519 141.473L59.8279 137.685L62.8039 133.897L64.8801 131.962L66.9562 130.027L70.2652 126.769L73.5743 123.512L75.5592 119.452L77.5442 115.393L79.474 114.198L81.4039 113.003L83.0779 111.522L84.7519 110.04V108.974V107.908L87.7936 104.079L90.8353 100.25L91.7668 99.7214L92.6984 99.1926L92.5218 94.1382L92.3452 89.0838L93.4745 87.8091L94.6038 86.5344L97.3039 85.6649L100.004 84.7954L100.934 84.0569L101.864 83.3183V82.2831V81.248L98.6471 79.6843L95.4303 78.1205L94.6197 75.9718L93.8092 73.8231H92.3614H90.9137L86.5308 71.6125L82.148 69.4019L81.2669 59.5156L80.3857 49.6293L84.5542 45.8404L88.7227 42.0516L88.2216 40.7449L87.7205 39.4382L86.278 39.0607L84.8356 38.6833L84.6078 37.0872L84.38 35.491L81.776 34.2658L79.172 33.0407L77.7547 31.4713L76.3373 29.902H74.2468H72.1563L71.3449 28.385L70.5335 26.868L70.9467 25.5655L71.3599 24.2629L75.1114 20.5687L78.863 16.8745H82.7375H86.612L86.3598 15.4257L86.1077 13.9769L87.143 14.8367L88.1784 15.6964L90.3712 14.5255L92.564 13.3546L97.9955 13.2333L103.427 13.1121L108.488 17.971L113.549 22.8299L116.005 24.6563L118.461 26.4826L119.913 28.9459L121.366 31.4092L124.635 32.2328L127.904 33.0564V34.4569V35.8574H130.775H133.647L137.881 33.5966L142.115 31.3359L145.537 30.9894L148.96 30.6428L149.91 29.8534L150.861 29.064L153.11 30.2274L155.358 31.3908H156.454H157.55L159.839 33.3181L162.128 35.2453V36.5514V37.8576L160.698 42.0149L159.269 46.1722L156.461 48.8223L153.653 51.4725L152.868 53.866L152.084 56.2596L149.48 56.2944L146.876 56.3291V58.6839V61.0387L146.318 61.5996L145.76 62.1604V63.9095V65.6585L148.364 66.901L150.968 68.1434L150.994 69.6805L151.021 71.2176L152.084 73.0786L153.147 74.9397L153.174 75.8936L153.2 76.8475L151.898 77.3064L150.596 77.7654L148.169 79.5611L145.742 81.3568L144.449 79.0835L143.156 76.8102L142.317 76.8057L141.478 76.8013L140.521 77.9547L139.565 79.1082L141.235 83.1407L142.905 87.1733L143.441 91.1253L143.977 95.0774L144.531 95.9738L145.085 96.8703L146.557 95.955L148.029 95.0397L149.848 97.3612L151.667 99.6827L155.895 101.686L160.123 103.689L161.592 105.557L163.06 107.425L166.985 109.162L170.91 110.898L167.054 114.882L163.198 118.865L161.446 124.771L159.694 130.676L161.841 132.396L163.988 134.115L164.658 134.119L165.328 134.122L169.494 136.126L173.66 138.13L175.33 139.743L177 141.355L180.166 142.867L183.332 144.379L185.936 145.291L188.54 146.203L190.606 146.578L192.673 146.953L193.406 148.322L194.138 149.691L196.651 150.163L199.163 150.635L204.64 149.766L210.116 148.897L212.797 150.035L215.478 151.173L216.714 153.06L217.95 154.947L220.885 156.446L223.821 157.944H225.991H228.162L229.01 158.967L229.859 159.991L233.751 160.545L237.644 161.1L241.531 161.24L245.418 161.38L245.933 161.895L246.448 162.411L250.974 162.399L255.5 162.388L256.403 161.814L257.306 161.239L257.367 152.334L257.427 143.428L257.475 141.801L257.523 140.174L260.528 138.971L263.533 137.768L264.315 138.551L265.098 139.334L265.312 144.662L265.526 149.99L266.66 151.722L267.795 153.454L269.831 154.015L271.868 154.577L276.704 154.465L281.54 154.353L284.888 154.239L288.236 154.125L296.633 152.932L305.029 151.739L304.536 148.328L304.042 144.917L303.674 144.282L303.306 143.648L300.793 142.597L298.28 141.547V140.018V138.489L299.856 138.989L301.433 139.49L303.39 138.589L305.348 137.688L307.882 136.469L310.417 135.251L310.741 134.012L311.065 132.772L313.972 130.435L316.88 128.097V126.989V125.881L320.171 124.469L323.463 123.057L327.805 118.492L332.147 113.926L334.372 115.087L336.596 116.247L338.968 116.252L341.341 116.256L344.741 113.312L348.141 110.367L349.858 112.009L351.576 113.651L350.968 114.358L350.36 115.065V116.496V117.927L351.556 116.934L352.753 115.94L353.788 117.357L354.824 118.774L354.797 119.562L354.771 120.35L353.708 122.211L352.645 124.072L352.618 124.663L352.592 125.254L355.01 125.088L357.428 124.922L360.201 125.055L362.974 125.189L364.22 127.093L365.467 128.996L363.855 131.001L362.243 133.006L361.41 134.637L360.577 136.268L362.139 138.917L363.702 141.566H363.125H362.548L361.104 140.474L359.66 139.381L358.098 139.357L356.536 139.333L353.529 141.38L350.522 143.428L345.605 148.055L340.688 152.682V158.89V165.099L338.772 167.663L336.856 170.227L337.257 173.205L337.659 176.182L335.308 182.882L332.957 189.582L332.258 190.06L331.558 190.539L327.218 190.145L322.878 189.752L323.599 192.267L324.32 194.783V199.361V203.939L323.204 204.367L322.088 204.796V212.121V219.447L321.158 220.637L320.228 221.828L318.595 221.191L316.962 220.554L316.474 217.723L315.987 214.892L314.247 208.193L312.506 201.493L311.528 198.515L310.549 195.537H309.447H308.344L307.297 197.723L306.25 199.909L305.886 203.137L305.522 206.366L304.765 206.834L304.007 207.303L302.567 205.325L301.126 203.346L300.542 203.707L299.959 204.068L298.681 200.72L297.403 197.372L298.399 194.267L299.396 191.163L301.558 190.592L303.72 190.021L306.174 187.641L308.627 185.262L309.174 182.956L309.721 180.649L309.548 179.718L309.375 178.788H310.242H311.11L310.184 177.671L309.258 176.554L296.515 176.48L283.772 176.406L281.912 175.889L280.052 175.371L279.512 170.938L278.971 166.505L278.129 164.644L277.286 162.783L276.171 164.441L275.056 166.099L273.462 165.276L271.868 164.453L270.149 162.501L268.429 160.549L268.041 161.48L267.652 162.41L266.412 162.387L265.172 162.363L263.728 161.27L262.283 160.177H261.638H260.992L261.42 160.87L261.848 161.564L259.976 164.324L258.104 167.085V167.789V168.493L260.522 170.622L262.94 172.751L265.486 174.467L268.033 176.182L268.338 177.113L268.644 178.043H267.077H265.511L262.179 181.116L258.848 184.188V185.544V186.901L261.336 188.8L263.824 190.699H265.042H266.26L266.709 192.489L267.158 194.28L265.906 196.192L264.654 198.104L266.215 200.63L267.776 203.157V204.442V205.726L269.205 206.1L270.635 206.475L270.293 208.822L269.951 211.17L271.396 217.067L272.84 222.963L272.46 223.952L272.081 224.942H270.274H268.467L266.595 226.169L264.723 227.397L264.09 226.728L263.456 226.059L263.198 224.624L262.94 223.189L260.995 226.113L259.051 229.036L255.239 230.366L251.428 231.696L249.41 233.433L247.393 235.169L248.226 238.803L249.06 242.436L248.002 243.611L246.944 244.787V246.006V247.225L244.395 249.775L241.847 252.325L237.745 254.267L233.644 256.208H232.544H231.444L231.151 255.33L230.859 254.451L229.595 254.937L228.331 255.422L227.418 257.49L226.504 259.558L221.182 266.63L215.86 273.702L211.615 277.342L207.371 280.982L205.196 283.986L203.021 286.99L199.5 289.022L195.98 291.054L194.306 292.643L192.632 294.232V297.146V300.059L189.098 301.707L185.564 303.355L182.629 303.417L179.695 303.479L177.421 306.535L175.148 309.591L174.195 311.002L173.243 312.412L172.831 311.482L172.42 310.551H170.415H168.411L166.747 311.717L165.084 312.883L163.578 315.836L162.073 318.789L162.429 326.417L162.785 334.046L163.572 336.119L164.36 338.192V338.888V339.584H163.244H162.128V340.302V341.02L163.709 341.867L165.291 342.714L164.807 346.835L164.323 350.955L163.349 352.9L162.374 354.844L160.274 358.884L158.175 362.923L158.306 372.283L158.437 381.644L158.837 382.922L159.236 384.2L157.52 384.579L155.804 384.957L153.617 385.162L151.429 385.366L149.748 388.343L148.066 391.321L146.757 393.778L145.449 396.235L146.289 397.581L147.129 398.927L143.269 399.792L139.409 400.656L137.056 402.087L134.704 403.519L134.218 406.758L133.733 409.996L130.151 412.011L126.569 414.026L124.446 414.003L122.324 413.979L120.092 412.389L120.092 412.389Z" fill="white" stroke="#3A3A3A" stroke-width="1.4"/>
</svg>
