<svg width="222" height="259" viewBox="0 0 222 259" fill="none" xmlns="http://www.w3.org/2000/svg">
<path d="M71.6661 246.103L70.3341 245.154L68.6412 243.563L66.9482 241.971L66.0872 240.584L65.2261 239.197L64.3148 235.475L63.4035 231.753L61.8037 227.533L60.2039 223.312L58.8932 220.647L57.5824 217.981L55.9122 215.76L54.2419 213.539L52.853 209.888L51.4641 206.237V205.133V204.028L50.1474 199.963L48.8306 195.899L46.8174 192.463L44.8041 189.027V188.734V188.441L43.5331 185.663L42.262 182.885L41.7675 181.552L41.273 180.22L40.7968 176.221L40.3207 172.223L38.9394 166.916L37.5581 161.608L38.0731 161.436L38.5881 161.265V160.144V159.022L37.9829 159.255L37.3776 159.487L37.0915 156.054L36.8053 152.621L37.7301 149.803L38.6549 146.984L37.6694 143.917L36.6839 140.851L37.636 139.562L38.5881 138.274V138.064V137.855L37.6466 137.713L36.705 137.571L36.5281 135.579L36.3512 133.588L35.7408 132.977L35.1303 132.366L34.6392 134.657L34.1482 136.949L34.1465 137.926L34.1448 138.904L33.2478 140.376L32.3507 141.848L29.57 143.15L26.7893 144.452L24.2735 144.918L21.7576 145.383L19.9978 144.271L18.238 143.16L16.5361 141.072L14.8341 138.983L12.737 136.62L10.6398 134.256L9.44712 132.453L8.25441 130.649L8.71916 130.184L9.18391 129.719L9.48223 130.202L9.78055 130.685L11.6413 130.683L13.5021 130.68L15.1106 130.233L16.7191 129.786L18.7929 127.959L20.8667 126.133L20.6989 125.965L20.5311 125.797L17.6047 126.52L14.6784 127.242L13.184 126.962L11.6897 126.681L9.17736 125.109L6.66505 123.536L5.9766 122.156L5.28811 120.775V120.228V119.681L6.43663 118.928L7.58516 118.175L7.34359 117.933L7.10202 117.692L5.50369 118.635L3.90535 119.579H3.67924H3.45312L3.59361 118.357L3.73411 117.135L5.39242 116.998L7.05074 116.861L7.70569 115.925L8.36065 114.989L10.2654 115.048L12.1701 115.107L14.7162 115.387L17.2623 115.666L19.4931 115.094L21.7238 114.522L22.2528 115.051L22.7817 115.581H23.8321H24.8825L25.7133 115.136L26.5441 114.691L26.291 113.026L26.038 111.36L24.987 108.083L23.9361 104.805V104.192V103.579L22.1561 102.866L20.376 102.153L20.1079 101.084L19.8398 100.016L20.1439 97.5803L20.448 95.1449H19.506H18.564L17.2605 94.4705L15.957 93.796L15.6885 92.7256L15.42 91.6552L15.793 91.0038L16.1661 90.3524L19.3301 86.9733L22.4941 83.5943H23.4072H24.3203L24.5894 84.4427L24.8585 85.2911L25.4163 85.7543L25.974 86.2174L29.2841 85.6227L32.5941 85.028L33.2601 84.7278L33.9261 84.4275L35.7021 82.1669L37.4781 79.9063L38.7171 78.7516L39.9561 77.5969L41.9308 75.6528L43.9056 73.7087L45.0902 71.2861L46.2747 68.8635L47.4264 68.1503L48.5781 67.4371L49.5771 66.5532L50.5761 65.6693V65.0329V64.3965L52.3913 62.1116L54.2065 59.8267L54.7624 59.5112L55.3184 59.1956L55.213 56.1793L55.1076 53.1629L55.7815 52.4022L56.4555 51.6415L58.0668 51.1226L59.6781 50.6037L60.2331 50.163L60.7881 49.7222V49.1045V48.4867L58.8684 47.5535L56.9487 46.6203L56.465 45.338L55.9813 44.0557H55.1173H54.2533L51.6377 42.7365L49.0221 41.4173L48.4963 35.5174L47.9705 29.6175L50.4581 27.3564L52.9458 25.0953L52.6467 24.3155L52.3477 23.5357L51.4869 23.3105L50.626 23.0852L50.4901 22.1327L50.3541 21.1801L48.8001 20.449L47.2461 19.7178L46.4003 18.7813L45.5545 17.8447H44.307H43.0594L42.5752 16.9395L42.091 16.0342L42.3375 15.2568L42.5841 14.4795L44.8229 12.2749L47.0617 10.0703H49.3739H51.6861L51.5357 9.20569L51.3852 8.34107L52.0031 8.85414L52.6209 9.36722L53.9295 8.66844L55.2381 7.96967L58.4796 7.89731L61.721 7.82495L64.7413 10.7246L67.7616 13.6243L69.2271 14.7142L70.6926 15.8042L71.5595 17.2742L72.4263 18.7442L74.3772 19.2357L76.3281 19.7272V20.563V21.3988H78.0416H79.7551L82.282 20.0496L84.8088 18.7004L86.8513 18.4937L88.8937 18.2869L89.461 17.8158L90.0284 17.3447L91.3702 18.039L92.712 18.7333H93.366H94.02L95.3861 19.8834L96.7522 21.0335V21.813V22.5924L95.8991 25.0734L95.046 27.5544L93.3702 29.1359L91.6944 30.7174L91.2263 32.1459L90.7582 33.5743L89.2041 33.595L87.6501 33.6158V35.021V36.4263L87.3171 36.761L86.9841 37.0957V38.1395V39.1833L88.5381 39.9248L90.0922 40.6663L90.1079 41.5835L90.1236 42.5008L90.7581 43.6115L91.3926 44.7221L91.4084 45.2914L91.4241 45.8606L90.6471 46.1345L89.8701 46.4084L88.4217 47.48L86.9734 48.5516L86.2017 47.195L85.4301 45.8384L84.9294 45.8357L84.4288 45.833L83.8579 46.5214L83.2869 47.2097L84.2838 49.6163L85.2806 52.0228L85.6005 54.3813L85.9204 56.7398L86.2508 57.2747L86.5813 57.8097L87.4596 57.2635L88.338 56.7172L89.4235 58.1027L90.5091 59.4881L93.0324 60.6835L95.5558 61.879L96.4321 62.9936L97.3084 64.1083L99.6507 65.1448L101.993 66.1813L99.6918 68.5584L97.3907 70.9356L96.345 74.46L95.2994 77.9843L96.5807 79.0102L97.8621 80.0362L98.2618 80.0385L98.6616 80.0408L101.148 81.2365L103.634 82.4322L104.631 83.3947L105.627 84.3573L107.517 85.2594L109.406 86.1615L110.96 86.706L112.514 87.2505L113.747 87.474L114.981 87.6976L115.418 88.5148L115.855 89.3319L117.354 89.6134L118.854 89.8948L122.122 89.3763L125.39 88.8578L126.99 89.5371L128.59 90.2163L129.328 91.3424L130.065 92.4685L131.817 93.3627L133.569 94.257H134.864H136.159L136.666 94.8676L137.172 95.4782L139.495 95.8092L141.818 96.1402L144.138 96.2238L146.457 96.3074L146.765 96.6149L147.072 96.9225L149.773 96.9157L152.474 96.9089L153.013 96.5662L153.552 96.2235L153.588 90.9088L153.624 85.594L153.653 84.6232L153.682 83.6523L155.475 82.9344L157.268 82.2165L157.735 82.6837L158.202 83.1509L158.33 86.3306L158.458 89.5103L159.134 90.5438L159.811 91.5773L161.027 91.9124L162.242 92.2474L165.128 92.1807L168.014 92.1139L170.012 92.046L172.01 91.9781L177.021 91.266L182.032 90.5538L181.737 88.5182L181.443 86.4825L181.223 86.104L181.004 85.7255L179.504 85.0985L178.004 84.4715V83.559V82.6465L178.945 82.9453L179.886 83.2441L181.054 82.7063L182.222 82.1686L183.735 81.4415L185.247 80.7144L185.441 79.9748L185.634 79.2352L187.369 77.8401L189.104 76.4449V75.7837V75.1225L191.068 74.28L193.033 73.4375L195.624 70.7129L198.215 67.9883L199.543 68.6808L200.87 69.3733L202.286 69.3759L203.702 69.3786L205.731 67.6215L207.76 65.8644L208.785 66.8441L209.81 67.8237L209.447 68.2458L209.084 68.6678V69.5218V70.3759L209.798 69.783L210.512 69.19L211.13 70.0356L211.748 70.8812L211.732 71.3516L211.717 71.822L211.082 72.9326L210.448 74.0433L210.432 74.3957L210.416 74.7481L211.859 74.649L213.302 74.55L214.957 74.6298L216.612 74.7096L217.356 75.8457L218.099 76.9818L217.137 78.178L216.175 79.3743L215.678 80.3477L215.181 81.321L216.114 82.9021L217.046 84.4832H216.702H216.358L215.496 83.831L214.634 83.1787L213.702 83.1646L212.77 83.1505L210.975 84.3722L209.181 85.5939L206.247 88.3553L203.312 91.1166V94.8217V98.5267L202.169 100.057L201.025 101.587L201.265 103.364L201.504 105.141L200.102 109.139L198.699 113.138L198.281 113.423L197.864 113.709L195.273 113.474L192.683 113.239L193.114 114.74L193.544 116.242V118.974V121.706L192.878 121.961L192.212 122.217V126.589V130.96L191.657 131.671L191.102 132.381L190.128 132.001L189.153 131.621L188.862 129.932L188.571 128.242L187.533 124.244L186.494 120.246L185.91 118.469L185.326 116.692H184.668H184.01L183.385 117.996L182.76 119.301L182.543 121.227L182.326 123.154L181.874 123.433L181.422 123.713L180.562 122.532L179.703 121.352L179.354 121.567L179.006 121.783L178.243 119.785L177.481 117.787L178.075 115.934L178.67 114.081L179.96 113.74L181.251 113.399L182.715 111.98L184.179 110.56L184.505 109.183L184.832 107.807L184.728 107.251L184.625 106.696H185.143H185.661L185.108 106.03L184.555 105.363L176.951 105.319L169.346 105.275L168.236 104.966L167.126 104.657L166.804 102.011L166.481 99.3657L165.978 98.2551L165.476 97.1445L164.81 98.1342L164.145 99.1239L163.193 98.6325L162.242 98.141L161.216 96.9764L160.19 95.8117L159.958 96.367L159.726 96.9223L158.986 96.9082L158.246 96.8941L157.384 96.2418L156.522 95.5896H156.137H155.752L156.007 96.0033L156.263 96.417L155.145 98.0644L154.028 99.7118V100.132V100.552L155.471 101.823L156.914 103.093L158.434 104.117L159.954 105.141L160.136 105.696L160.318 106.252H159.383H158.448L156.46 108.085L154.472 109.919V110.728V111.538L155.957 112.671L157.442 113.804H158.169H158.895L159.163 114.873L159.431 115.942L158.684 117.082L157.937 118.223L158.869 119.731L159.8 121.239V122.006V122.772L160.653 122.995L161.506 123.219L161.302 124.62L161.098 126.021L161.96 129.54L162.822 133.059L162.596 133.649L162.369 134.24H161.291H160.213L159.096 134.972L157.978 135.705L157.6 135.305L157.222 134.906L157.068 134.05L156.914 133.194L155.754 134.938L154.593 136.683L152.319 137.477L150.044 138.27L148.84 139.307L147.636 140.343L148.133 142.511L148.631 144.68L148 145.381L147.368 146.082V146.81V147.538L145.847 149.059L144.326 150.581L141.879 151.74L139.431 152.898H138.775H138.118L137.943 152.374L137.769 151.85L137.015 152.14L136.26 152.429L135.715 153.663L135.17 154.897L131.994 159.118L128.818 163.338L126.285 165.51L123.752 167.683L122.454 169.475L121.156 171.268L119.055 172.481L116.954 173.693L115.955 174.642L114.956 175.59V177.329V179.068L112.847 180.051L110.738 181.035L108.987 181.071L107.236 181.108L105.879 182.932L104.522 184.756L103.954 185.598L103.385 186.439L103.14 185.884L102.894 185.329H101.698H100.502L99.5089 186.025L98.5162 186.72L97.6177 188.483L96.7191 190.245L96.9315 194.797L97.144 199.35L97.614 200.587L98.0841 201.824V202.239V202.655H97.4181H96.7521V203.083V203.512L97.6959 204.017L98.6396 204.523L98.3508 206.982L98.0619 209.441L97.4805 210.602L96.8991 211.762L95.646 214.173L94.3929 216.583L94.4711 222.169L94.5494 227.755L94.788 228.518L95.0265 229.28L94.0023 229.507L92.9781 229.733L91.6728 229.855L90.3675 229.976L89.3639 231.753L88.3603 233.53L87.5793 234.997L86.7983 236.463L87.2998 237.266L87.8013 238.07L85.4977 238.585L83.1941 239.101L81.7901 239.955L80.3861 240.81L80.0964 242.743L79.8068 244.675L77.669 245.878L75.5312 247.08L74.2646 247.066L72.9981 247.052L71.6661 246.103L71.6661 246.103Z" stroke="#3A3A3A" stroke-width="1.4"/>
</svg>
