 <svg
                  className="w-28 h-auto sm:w-24 md:w-32 lg:w-52"
                  viewBox="0 0 208 34"
                  fill="none"
                  xmlns="http://www.w3.org/2000/svg"
                >
                  <g clipPath="url(#clip0_520_143)">
                    <path
                      d="M0 26.83L0.586206 1.92053H5.09548L4.76051 11.7025H5.41113L13.7429 1.92053H18.9429L9.16027 14.1032L20.0534 26.83H13.7791L5.41113 16.6511H4.76051V26.83H0Z"
                      fill="#12153D"
                    />
                    <path
                      d="M27.0693 27.3357C25.2914 27.3357 23.7196 26.958 22.3604 26.209C21.0011 25.4536 19.9447 24.3909 19.1845 23.0209C18.4244 21.6445 18.0508 20.0248 18.0508 18.1619V17.733C18.0508 15.8701 18.4244 14.2504 19.1717 12.874C19.9189 11.4976 20.9625 10.4349 22.3088 9.68592C23.6552 8.93051 25.2205 8.5592 26.9985 8.5592C28.7764 8.5592 30.2838 8.94971 31.5786 9.72433C32.8799 10.499 33.8848 11.5745 34.6063 12.9508C35.3277 14.3272 35.6885 15.9213 35.6885 17.7394V19.2822H22.6631C22.7082 20.4986 23.1656 21.4909 24.0352 22.2591C24.8984 23.0273 25.9613 23.405 27.2111 23.405C28.4608 23.405 29.4206 23.1297 30.0261 22.5792C30.6252 22.0286 31.0826 21.4204 31.3982 20.7482L35.1152 22.6816C34.7802 23.3026 34.2906 23.9812 33.6529 24.7046C33.0151 25.4344 32.1648 26.0553 31.1084 26.5675C30.0519 27.0796 28.7056 27.3357 27.0693 27.3357ZM22.7018 15.9021H31.0697C30.9731 14.8778 30.5608 14.052 29.8264 13.431C29.0921 12.81 28.1387 12.4963 26.9598 12.4963C25.781 12.4963 24.7567 12.81 24.0352 13.431C23.3138 14.052 22.8693 14.8778 22.7018 15.9021Z"
                      fill="#12153D"
                    />
                    <path
                      d="M40.3137 34V30.0565H50.0537C50.7237 30.0565 51.0651 29.698 51.0651 28.981V24.4997H50.4145C50.2212 24.9094 49.9185 25.3127 49.5126 25.716C49.1004 26.1257 48.5528 26.4586 47.8506 26.7211C47.1549 26.9836 46.266 27.118 45.1837 27.118C43.7859 27.118 42.5683 26.8043 41.5248 26.1706C40.4812 25.5368 39.6695 24.6597 39.0898 23.533C38.51 22.4127 38.2266 21.1195 38.2266 19.6599V9.05212H42.7745V19.3014C42.7745 20.6394 43.103 21.6445 43.7665 22.3103C44.43 22.9825 45.3705 23.3154 46.6009 23.3154C47.9924 23.3154 49.0746 22.8544 49.8476 21.9326C50.6142 21.0107 51.0007 19.7303 51.0007 18.0787V9.05212H55.5486V29.986C55.5486 31.2024 55.1879 32.1755 54.4664 32.9053C53.7449 33.6351 52.7851 34 51.5805 34H40.3266H40.3137Z"
                      fill="#12153D"
                    />
                    <path
                      d="M60.6426 26.7211L58.1367 9.05212H62.646L64.2307 23.7891H64.8813L66.8847 14.3208C67.0586 13.4886 67.7995 12.8932 68.6562 12.8932H73.0109C73.8676 12.8932 74.602 13.4886 74.7824 14.3208L76.7858 23.7891H77.4364L79.0211 9.05212H83.5304L81.0245 26.7211C81.0181 26.7851 80.9601 26.8363 80.8957 26.8363H73.5842C73.5198 26.8363 73.4618 26.7915 73.4554 26.7275L71.1621 16.6511H70.5115L68.2182 26.7275C68.2053 26.7915 68.1538 26.8363 68.0893 26.8363H60.7779C60.7134 26.8363 60.6555 26.7851 60.649 26.7211H60.6426Z"
                      fill="#12153D"
                    />
                    <path
                      d="M94.5668 27.3358C92.7888 27.3358 91.1848 26.9773 89.7676 26.2603C88.3504 25.5433 87.2296 24.5062 86.4114 23.1426C85.5933 21.779 85.1875 20.1465 85.1875 18.2324V17.6562C85.1875 15.7421 85.5933 14.1096 86.4114 12.746C87.2296 11.3825 88.344 10.3454 89.7676 9.62836C91.1848 8.91136 92.7824 8.55286 94.5668 8.55286C96.3512 8.55286 97.9487 8.91136 99.3659 9.62836C100.783 10.3454 101.904 11.3825 102.722 12.746C103.54 14.1096 103.946 15.7485 103.946 17.6562V18.2324C103.946 20.1465 103.534 21.779 102.722 23.1426C101.904 24.5062 100.783 25.5433 99.3659 26.2603C97.9487 26.9773 96.3447 27.3358 94.5668 27.3358ZM94.5668 23.3218C95.9647 23.3218 97.1177 22.8737 98.0325 21.9774C98.9472 21.0812 99.4046 19.7944 99.4046 18.1236V17.7651C99.4046 16.0942 98.9537 14.8074 98.0518 13.9112C97.15 13.0149 95.9904 12.5668 94.5732 12.5668C93.156 12.5668 92.0223 13.0149 91.1075 13.9112C90.1928 14.8074 89.7354 16.0942 89.7354 17.7651V18.1236C89.7354 19.7944 90.1928 21.0812 91.1075 21.9774C92.0223 22.8737 93.1754 23.3218 94.5732 23.3218H94.5668Z"
                      fill="#12153D"
                    />
                    <path
                      d="M106.76 26.83V9.05218H111.231V11.0623H111.882C112.146 10.3453 112.584 9.82039 113.196 9.4875C113.808 9.15461 114.523 8.98816 115.341 8.98816H117.505V13.0021H115.27C114.117 13.0021 113.164 13.3094 112.423 13.9176C111.682 14.5257 111.302 15.4668 111.302 16.7343V26.8428H106.754L106.76 26.83Z"
                      fill="#12153D"
                    />
                    <path
                      d="M126.241 27.3357C124.824 27.3357 123.49 26.9836 122.253 26.2794C121.016 25.5752 120.024 24.5381 119.277 23.1809C118.53 21.8237 118.156 20.1721 118.156 18.2323V17.6562C118.156 15.7228 118.53 14.0711 119.277 12.7076C120.024 11.344 121.01 10.3133 122.234 9.60909C123.458 8.90489 124.798 8.55279 126.241 8.55279C127.323 8.55279 128.231 8.68082 128.966 8.93049C129.7 9.18017 130.293 9.50026 130.75 9.87796C131.207 10.2621 131.555 10.6654 131.794 11.0943H132.444V1.73486H136.992V26.83H132.522V24.6789H131.871C131.459 25.3511 130.827 25.9593 129.977 26.5099C129.127 27.0604 127.877 27.3357 126.241 27.3357ZM127.613 23.3922C129.011 23.3922 130.177 22.9441 131.111 22.0478C132.045 21.1515 132.515 19.8456 132.515 18.1235V17.765C132.515 16.0429 132.051 14.7369 131.124 13.8407C130.196 12.9444 129.024 12.4963 127.606 12.4963C126.189 12.4963 125.043 12.9444 124.108 13.8407C123.168 14.7369 122.704 16.0429 122.704 17.765V18.1235C122.704 19.8456 123.174 21.1515 124.108 22.0478C125.043 22.9441 126.215 23.3922 127.606 23.3922H127.613Z"
                      fill="#12153D"
                    />
                    <path
                      d="M140.521 26.83V1.73486H151.485C153.07 1.73486 154.455 2.01014 155.634 2.5607C156.813 3.11125 157.728 3.88587 158.378 4.89095C159.029 5.89604 159.351 7.08037 159.351 8.43756V8.86648C159.351 10.3709 158.99 11.5936 158.269 12.5219C157.547 13.4566 155.602 14.1352 154.545 14.5641V15.2107C155.505 15.2619 157.309 15.5884 157.837 16.1965C158.365 16.8047 158.629 17.6113 158.629 18.6164V26.8235H153.869V19.295C153.869 18.7189 153.721 18.2579 153.418 17.8994C153.115 17.5409 152.619 17.3617 151.924 17.3617H145.288V26.8235H140.528L140.521 26.83ZM145.282 13.0661H150.983C152.11 13.0661 152.999 12.7588 153.637 12.1506C154.275 11.5424 154.59 10.7358 154.59 9.73072V9.37222C154.59 8.36714 154.275 7.56051 153.65 6.95234C153.025 6.34416 152.136 6.03688 150.983 6.03688H145.282V13.0661Z"
                      fill="#E5590F"
                    />
                    <path
                      d="M167.649 27.3357C166.374 27.3357 165.234 27.1116 164.222 26.6699C163.211 26.2282 162.412 25.5816 161.826 24.7366C161.233 23.8915 160.943 22.8544 160.943 21.6381C160.943 20.4217 161.24 19.3974 161.826 18.5716C162.412 17.7458 163.23 17.1248 164.28 16.7087C165.324 16.2926 166.522 16.0813 167.868 16.0813H172.777V15.0762C172.777 14.2376 172.513 13.5526 171.985 13.0148C171.456 12.4771 170.613 12.2082 169.459 12.2082C168.306 12.2082 167.488 12.4643 166.934 12.9764C166.38 13.4886 166.02 14.1544 165.852 14.9674L161.639 16.6447C160.995 14.0839 162.419 11.8305 163.056 11.0751C163.694 10.3197 164.544 9.71152 165.62 9.24418C166.689 8.77685 167.997 8.54639 169.537 8.54639C171.894 8.54639 173.756 9.13535 175.128 10.3005C176.5 11.472 177.183 13.1685 177.183 15.3899V22.0222C177.183 22.7392 177.518 23.0977 178.195 23.0977H179.638V26.8235H176.61C175.193 26.8235 174.168 26.273 173.544 25.1783V24.4165H172.861C172.764 24.7045 172.545 25.0823 172.21 25.5432C171.875 26.0041 171.347 26.4202 170.625 26.7787C169.904 27.1372 168.918 27.3165 167.669 27.3165L167.649 27.3357ZM168.442 23.6803C169.717 23.6803 170.754 23.3282 171.559 22.624C172.365 21.9198 172.771 20.9787 172.771 19.8072V19.4487H168.19C167.347 19.4487 166.689 19.6279 166.206 19.9864C165.723 20.3449 165.485 20.8443 165.485 21.4908C165.485 22.1374 165.736 22.6624 166.245 23.0657C166.747 23.4754 167.482 23.6739 168.448 23.6739L168.442 23.6803Z"
                      fill="#E5590F"
                    />
                    <path
                      d="M172.582 34V30.1269H181.278C181.948 30.1269 182.29 29.7684 182.29 29.0514V9.05212H186.838V29.986C186.838 31.2024 186.477 32.1755 185.756 32.9053C185.034 33.6351 184.074 34 182.87 34H172.588H172.582Z"
                      fill="#E5590F"
                    />
                    <path
                      d="M196.024 26.9324C194.749 26.9324 193.609 26.7083 192.597 26.2666C191.586 25.8249 190.787 25.1783 190.201 24.3332C189.608 23.4882 189.318 22.4511 189.318 21.2348C189.318 20.0184 189.615 18.9941 190.201 18.1683C190.787 17.3425 191.605 16.7215 192.655 16.3054C193.699 15.8893 194.897 15.678 196.243 15.678H201.152V14.6729C201.152 13.8343 200.888 13.1493 200.36 12.6115C199.831 12.0738 198.988 11.8049 197.834 11.8049C196.681 11.8049 195.863 12.061 195.309 12.5731C194.755 13.0853 194.395 13.751 194.227 14.5641L190.014 16.2414C189.37 13.6806 190.794 11.4272 191.431 10.6718C192.069 9.91637 192.919 9.3082 193.995 8.84086C195.064 8.37353 196.372 8.14307 197.912 8.14307C200.269 8.14307 202.131 8.73203 203.503 9.89716C204.875 11.0687 205.558 12.7652 205.558 14.9866V21.6189C205.558 22.3359 205.893 22.6944 206.57 22.6944H208.013V26.4202H204.985C203.568 26.4202 202.543 25.8697 201.919 24.775V24.0131H201.236C201.139 24.3012 200.92 24.6789 200.585 25.1399C200.25 25.6008 199.722 26.0169 199 26.3754C198.279 26.7339 197.293 26.9132 196.044 26.9132L196.024 26.9324ZM196.817 23.2769C198.092 23.2769 199.129 22.9248 199.934 22.2206C200.74 21.5164 201.146 20.5754 201.146 19.4038V19.0453H196.565C195.722 19.0453 195.064 19.2246 194.581 19.5831C194.098 19.9416 193.86 20.4409 193.86 21.0875C193.86 21.7341 194.111 22.2591 194.62 22.6624C195.122 23.0721 195.857 23.2705 196.823 23.2705L196.817 23.2769Z"
                      fill="#E5590F"
                    />
                    <path
                      d="M186.755 7.02004H182.246L182.246 2.62732H186.756L186.755 7.02004Z"
                      fill="#E5590F"
                    />
                  </g>
                  <defs>
                    <clipPath id="clip0_520_143">
                      <rect width="208" height="34" fill="white" />
                    </clipPath>
                  </defs>
                </svg>