<svg width="577" height="397" viewBox="0 0 577 397" fill="none" xmlns="http://www.w3.org/2000/svg">
<path d="M165.647 410.05L166.819 410.358L167.182 410.625L166.94 410.756L166.459 410.862L165.995 411.111L165.758 411.147L165.522 411.094L165.402 411.35L163.044 411.142L162.92 411.026L162.845 410.851L162.693 410.625L162.297 410.259L162.123 410.033L161.99 409.694L162.304 409.741L162.579 409.907L163.048 410.33L163.291 410.335L164.615 409.998L164.834 409.754L164.941 409.695L165.135 409.723L165.647 410.05ZM167.476 402.891L167.181 403.179L166.972 403.105L166.762 402.997L166.468 403.169L166.65 403.37L166.771 403.634L166.938 404.296L166.824 404.239L166.579 404.173L166.468 404.111L166.543 404.513L166.595 404.667L166.461 404.784L166.117 405.224L166.376 405.127L166.658 405.129L166.937 405.224L167.182 405.407L166.77 405.604L165.861 405.498L165.402 405.593V405.778L165.74 405.776L166.339 406.12L166.703 406.149L166.545 406.626L166.35 407.077L166.616 407.097L167.063 407.034L167.29 407.077L167.214 407.314L167.191 407.548L167.215 407.787L167.29 408.019L167.144 408.003L166.847 408.035L166.703 408.019V408.204L166.937 408.231L167.245 408.38L167.518 408.584L167.652 408.763L167.608 409.228L167.418 409.687L167.148 409.935L166.882 409.786L166.47 409.43L165.932 409.239L165.44 408.965L165.164 408.375L164.982 408.656L164.782 408.849L164.345 409.135L164.454 408.776L164.623 408.364L164.729 407.939L164.644 407.548L164.455 407.265L164.227 407.037L163.984 406.994L163.759 407.278L163.914 407.421L164.108 407.674L164.203 407.915L164.057 408.018L163.82 407.941L163.423 407.653L163.173 407.648L163.362 407.898L163.539 408.058L163.678 408.243L163.761 408.576L163.756 408.988L163.663 409.278L163.484 409.451L163.231 409.506L162.928 409.482L162.699 409.389L162.502 409.194L162.288 408.855L162.145 408.879L161.923 409.127L161.52 409.692L161.344 408.151L162.01 407.047L164.31 405.405L164.649 404.918L164.866 404.278L164.941 403.446L165.068 402.831L165.275 402.178L165.316 401.582L164.941 401.135L165.241 401.042L165.468 400.915L165.698 400.869L166 401.034L166.235 401.051L167.064 400.869L167.291 400.765L167.259 400.941L167.221 401.315L167.184 401.489L167.462 401.502L168.24 401.319L168.178 401.473L168.248 401.791L168.374 402.099L168.484 402.244H167.772L167.605 402.31L167.553 402.478L167.54 402.685L167.476 402.891ZM383.888 376.841L383.971 377.292L383.888 377.732L383.758 378.178L383.688 378.63L383.668 379.073L383.596 379.25L383.457 379.276L382.756 379.253L382.216 379.11L381.826 378.727L381.802 377.995L381.981 377.681L382.716 376.791L382.996 376.542L383.228 376.464L383.479 376.477L383.714 376.595L383.888 376.841ZM415.118 241.192L415.227 241.302L415.657 241.598L415.056 242.015L414.885 242.319L414.824 242.836L414.197 243.28L413.85 243.429L413.874 243.092L413.812 243.014L413.704 242.826L413.641 242.748L413.704 242.672L413.641 242.6L413.736 242.404L413.963 241.781L413.994 241.598L413.81 241.294L413.617 241.164L413.557 241.043L413.769 240.778L414.021 240.632L414.363 240.552L414.701 240.545L414.942 240.619L415.032 240.737L415.055 240.889L415.065 241.043L415.118 241.192ZM411.049 232.828L410.996 233.02L410.879 233.098L410.762 233.044L410.708 232.828L410.713 232.258L410.678 232.007L410.58 231.768L410.844 231.553L411.185 231.115L411.462 230.593L411.529 230.142L411.218 229.665L410.709 229.489L409.77 229.477L408.8 229.292L408.416 229.421L408.458 229.979L408.779 230.274L410.347 230.617L409.086 231.697L408.998 232.014L409.585 232.828L409.716 233.141L409.724 233.448L409.71 233.751L409.77 234.05L410.171 234.365L410.824 233.783L410.932 234.309L410.961 234.68L411.044 234.91L411.348 235.289L411.573 235.469L412.039 235.592L412.233 235.71L412.46 236.267L411.96 236.456L411.233 236.497L410.767 236.602L410.591 236.734L410.132 236.925L409.71 237.319L408.939 237.672L408.821 238.162L408.694 238.195H407.623L407.306 238.122L407.168 237.917L407.123 237.405L407 236.956L406.593 236.038L406.458 235.916L406.281 235.82L406.199 235.709L406.347 235.534L406.732 235.333L407.747 234.519L407.936 234.309L408.024 234.043L408.42 233.771L408.75 233.394L408.64 232.828L407.887 231.379L407.509 230.956L407.111 230.617L406.898 230.51L406.647 230.467L406.394 230.529L406.214 230.645L406.059 230.707L405.879 230.617L405.752 230.793L405.841 231.119L405.689 231.169L405.421 231.153L405.164 231.28L404.657 231.038L403.425 231.422L402.926 230.956L403.178 230.507L403.511 230.35L403.875 230.251L404.226 229.98L404.223 229.813L404.122 229.616L404.103 229.437L404.344 229.315L404.386 229.399L404.812 229.728L404.994 229.803L406.536 229.629L406.882 229.396L407.071 228.944L407.143 228.55L407.273 228.28L407.64 228.179L407.786 228.225L408.158 228.438L408.344 228.501L409.061 228.468L409.292 228.501L410.45 229.084L410.881 229.166L414.71 228.844V228.99L414.439 228.996L414.239 229.152L414.127 229.431L414.122 229.803L413.416 229.39L412.717 229.757L412.107 230.519L411.261 231.974L411.112 232.365L411.049 232.828ZM174.241 334.14L174.154 334.309L174.007 334.842L174.108 335.072L174.192 335.331L174.246 335.611L174.242 335.908L174.08 335.814L173.987 335.665L173.826 335.286L173.685 335.211L173.058 335.381V335.188L173.925 334.251L174.241 334.14ZM187.669 314.733L187.876 314.376L188.281 314.097L188.677 314.051L188.843 314.387L188.619 314.599L188.198 314.906L187.809 315.036L187.669 314.733ZM192.661 303.426L192.464 303.617L192.204 303.701L191.978 303.613L191.865 303.284L191.936 302.951L192.138 302.784L192.389 302.751L192.619 302.812L192.843 303L192.661 303.426ZM207.794 302.127L208.063 302.684L207.854 303.205L207.495 303.617L207.334 303.854L207.414 303.591L207.3 303.369L207.111 303.127L206.972 302.812L207.237 302.784L207.486 302.674L207.686 302.461L207.794 302.127ZM201.083 310.058L201.859 310.588L202.081 310.834L202.111 310.994L201.98 311.077L201.8 311.101L201.67 311.091L201.578 311.004L201.448 310.678L201.318 310.575L200.939 310.55L200.849 310.731L200.956 311.352L200.766 311.479L200.173 311.216L200.37 311.608H199.088L198.021 311.795L197.592 311.996L196.519 313.008L196.2 313.429L195.971 313.613L195.666 313.605L195.367 313.465L195.14 313.255L194.872 313.107L194.249 313.211L194.036 313.177L193.869 312.872L193.76 312.508L193.618 312.325L193.261 312.659L192.973 312.731L192.841 312.817L192.836 312.91L192.724 313.523L192.451 313.323L191.57 314.038L191.072 314.215L191.379 314.553L191.915 314.45L192.959 314.04L192.753 314.524L192.559 314.849L192.019 315.439L192.024 314.821L191.806 314.829L191.503 315.155L191.257 315.518L190.944 315.691L190.367 315.831L189.778 315.872L189.428 315.756L189.333 315.265L189.441 314.623L189.651 314.009L189.85 313.61L190.026 313.445L190.363 313.395L190.711 313.113L191.307 312.817L191.009 312.607L191.005 312.375L191.125 312.111L191.21 311.795L191.184 311.412L191.127 311.121L191.125 310.841L191.257 310.488L191.432 310.233L191.612 310.067L192.019 309.789L192.3 309.685L192.523 309.753L192.727 309.864L192.959 309.884L193.255 309.544L193.191 308.94L193.058 308.27L193.14 307.727L193.351 307.593H193.858L194.083 307.39L194.369 306.893L194.465 306.62L194.506 306.272L194.417 305.704L194.19 305.168L193.61 304.284L193.506 304.011L193.578 303.789L193.711 303.604L193.779 303.42L193.774 303.258L193.744 303.136L193.69 303.028L193.61 302.905L193.539 302.721L193.567 302.58L193.636 302.454L193.672 302.315L193.768 301.608L194.006 301.245L194.389 301.117L194.911 301.099L195.372 301.271L195.637 301.313L195.859 301.185L196.099 300.936L196.294 300.891L197.101 301.312L197.43 301.594L197.729 301.936L199.262 304.113L199.504 304.364L199.794 304.567L200.037 304.8L200.137 305.143L200.348 305.213L200.738 305.444L200.945 305.762L200.607 306.085L200.958 306.273V306.429L200.533 306.586L198.972 306.429L199.09 306.085L198.122 306.049L197.797 306.216L197.971 306.703L197.921 306.982L197.083 308.167L197.517 308.113L198.115 307.334L198.493 307.133L198.668 307.213L199.142 307.57L199.578 307.691L200.254 307.994L200.187 308.17L200.128 308.302L200.045 308.407L199.908 308.495V308.668L200.105 308.676L201.032 308.336L201.251 308.321L201.481 308.183L201.611 308.142L201.67 308.245L201.722 308.444L201.853 308.627L202.005 308.763L202.139 308.838L202.055 309.078L201.948 309.718L201.905 309.887L201.711 310.008L201.519 309.984L201.315 309.91L201.082 309.887V310.058H201.083ZM175.518 274.419L175.839 274.671L176.068 275.142L176.209 275.706L176.26 276.233L176.191 276.774L175.996 277.165L175.694 277.389L175.311 277.44L175.275 277.313L175.148 277.064L175.009 276.94L174.888 277.385L174.749 277.481L174.59 277.488L174.463 277.44L174.363 277.181L174.271 276.695L174.222 276.198L174.242 275.914L173.999 275.449L173.701 275.488L172.631 276.759L172.355 276.96L171.992 277.088L172.082 276.764L172.245 276.317L172.45 275.918L172.648 275.747L172.698 275.671L172.897 275.294L173.03 274.93L173.236 274.876L173.668 274.89L175.043 274.41L175.363 274.39L175.518 274.419ZM180.023 263.328L180.179 264.209L180.425 265.034L181.067 266.678L180.492 266.786L180.26 266.723L179.958 266.409L179.679 266.234L179.304 266.106L178.968 265.928L178.828 265.591L178.643 265.284L178.602 265.093L178.777 265.008L178.743 264.901L178.856 264.663L179.894 262.996L179.896 263.115L179.93 263.183L179.974 263.242L180.023 263.328ZM307.289 167.701L307.571 167.746L307.614 167.918L307.583 168.177L307.641 168.481L307.512 168.779L307.406 169.463L307.289 169.726L307.033 169.898L306.73 169.916L306.41 169.883L306.105 169.898L305.871 170.021L305.446 170.406L305.275 170.523L305.007 170.573L304.133 170.527L304.138 170.52L304.223 170.427L304.407 170.244L304.464 170.21L304.649 170.191L305.059 170.232L305.22 170.132L306.105 169.12L306.399 169.421L306.779 169.279L307.059 168.9L307.044 168.482L306.83 168.604L306.622 168.576L306.448 168.422L306.34 168.169L306.647 168.143L306.868 167.986L307.065 167.802L307.289 167.701ZM297.041 163.162L297.242 163.048L297.351 162.87L297.364 162.644L297.276 162.388L297.089 162.612L297.041 162.695L296.942 162.434L296.908 162.148L296.942 161.867L297.041 161.612L297.303 161.859L297.504 162.13L297.739 162.335L298.098 162.389V162.244L297.885 162.063L297.698 161.829L297.562 161.53L297.511 161.158L297.553 160.825L297.77 159.96L297.864 159.763L297.958 159.794L297.98 159.977L298.03 160.165L298.215 160.216L298.28 159.905L298.368 159.693L298.514 159.594L298.766 159.733L298.771 160.066L298.727 160.476L298.812 160.848L298.942 160.631L299.483 160.454L299.751 160.217H299.163L299.55 159.878L299.711 159.695L299.867 159.44L300.055 158.792L300.142 158.656L300.22 158.988L300.215 159.312L300.154 159.628L299.985 160.216L300.091 160.446L300.122 160.598L300.044 160.664L299.949 160.725L299.697 161.033L299.622 161.158L299.568 161.392L299.504 161.98L299.4 162.242L299.328 162.265L298.984 162.242L298.883 162.3L298.679 162.583L298.577 162.694L298.155 162.85L298.036 162.916L297.964 163.066L297.914 163.227L297.864 163.331L297.647 163.488L297.399 163.597L297.147 163.612L296.924 163.486L296.991 163.408L297.012 163.33L297.018 163.252L297.041 163.162ZM279.246 218.138L279.372 218.442L279.246 219.011L279.179 219.608L279.147 220.862L279.031 221.008L278.918 221.332L278.962 221.838L279.274 223.317L279.766 224.719L279.735 225.097L279.516 224.827L279.313 224.788L279.229 224.942L279.371 225.275L279.632 225.467L280.682 225.761L280.195 225.983L279.062 226.059L278.55 226.233L278.09 226.657L278.292 226.84L278.768 226.922L279.147 227.042L279.503 226.576L280.144 226.412L280.76 226.419L281.034 226.469L281.109 226.829L281.27 227.168L281.428 227.358L281.504 227.278L281.586 226.669L281.739 226.068L282.194 226.356L282.294 226.555L282.325 226.957L282.271 227.615L282.333 227.76L282.569 227.692L282.719 227.51L282.842 227.228L282.987 226.976L283.21 226.866L283.467 226.895L283.723 227.002L283.918 227.204L283.987 227.529L284.472 226.987L284.678 226.865L284.749 227.283L284.949 227.524L285.19 227.718L285.385 228.003L285.402 228.188L285.354 228.384L285.291 228.55L285.268 228.664L285.311 228.806L285.454 229.05L285.5 229.166L285.564 229.815L285.513 230.507L285.375 231.177L285.159 231.769L284.947 231.445L284.523 232.008L284.212 231.932L284.104 232.439L284.094 232.598L283.955 232.398L283.803 232.357L283.651 232.439L283.508 232.598L283.434 232.295L283.215 231.76L283.146 231.446L283.148 231.077L283.196 230.876L283.173 230.693L282.976 230.387L282.883 230.073L282.917 229.722L282.904 229.434L282.68 229.315L282.414 229.42L282.3 229.659L282.349 229.934L282.569 230.143L282.324 230.786L282.305 231.439L282.486 232.078L283.029 232.94L282.971 232.993L282.569 232.911H281.444L281.21 232.773L280.815 232.296L280.422 232.42L280.215 232.257L279.849 231.771L279.182 231.072L279.166 230.752L279.497 230.307L279.195 230.33L278.726 230.56L277.323 230.763L276.845 231.019L275.849 231.119L274.338 231.667L273.642 231.779L273.495 231.688L273.562 231.434L273.733 231.257L273.944 231.153L274.405 231.077L276.993 230.178L277.257 230.143L277.509 230.066L277.379 229.886L276.904 229.569L276.692 229.519L276.147 229.601L275.849 229.478L275.731 229.345L275.521 229.012L275.383 228.845L274.922 228.618L274.481 228.693L274.035 228.885L273.551 228.99L273.264 229.24L273.101 229.832L273.029 230.534L273.023 231.118L273.068 231.469L273.101 231.609L273.055 231.729L272.846 232.014L272.661 232.109L271.232 232.34L271.028 232.299L270.672 232.416L270.366 232.773L269.574 233.049L269.218 233.365L267.431 234.214L264.117 236.65L263.599 236.735L263.319 236.679L263.057 236.712L262.838 236.854L261.564 237.752L260.925 237.895L260.661 237.999L260.451 238.198L260.268 238.419L260.075 238.597L259.591 238.743L259.134 239.082L258.945 239.157L258.658 239.253L258.348 239.631L258.175 239.813L258.061 240.015L257.616 240.182L257.406 240.35L256.356 241.487L255.939 241.733L255.596 241.6L255.35 241.768L255.143 241.925L255 242.192L254.941 242.427L254.01 244.157L253.943 244.433V245.808L253.848 246.256L253.62 246.612L253.121 247.212L253.085 247.43L253.077 247.703L253.02 247.937L252.825 248.037L252.683 248.08L252.184 248.382L252.565 248.861L252.654 249.692V251.511L252.851 252.676L252.875 253.092L252.787 253.548L252.583 253.731L252.351 253.861L252.183 254.157L252.675 254.241L252.846 254.829L252.829 255.622L252.686 257.059L252.506 257.549L252.301 257.899L252.161 258.22L251.995 258.584L251.923 258.953L250.762 261.146L248.857 263.126L247.926 265.161L247.515 266.903L247.288 267.412L247.082 268.033L247.321 268.335L247.62 268.618L247.586 269.18L246.949 269.941L246.789 270.273L246.786 270.54L246.851 270.808L246.893 271.122L246.654 271.568L246.176 271.897L245.82 272.276L245.943 272.88L245.739 273.171L245.532 273.317L245.297 273.29L245.005 273.062L245.026 273.33L245.085 273.58L245.24 274.054L244.954 274.326L244.733 274.422L244.115 274.402L243.769 274.526L243.777 274.779L244.029 275.018L244.419 275.073L244.014 275.966L243.88 276.099L243.687 276.154L243.47 276.293L243.118 276.603L242.975 276.656L242.861 276.618L242.782 276.632L242.756 276.846V277.08L242.771 277.209L242.844 277.264L242.999 277.273L243.259 277.369L243.487 277.521L243.708 277.555L243.937 277.272L244.25 277.545L244.701 277.784L245.05 278.039L245.058 278.368L244.753 278.602L243.917 278.773L243.573 278.958L243.243 279.492L243.115 279.649L242.965 279.704L242.77 279.747L242.6 279.837L242.384 280.464L241.744 280.894L241.578 281.316L241.9 281.145L242.52 280.978L243.041 280.52L243.819 280.215L244.057 279.981L244.316 279.419L244.524 279.126L244.76 278.965L244.976 278.909L245.172 278.793L245.356 278.452L245.531 278.765L245.598 279.146L245.538 280.495L245.388 280.819L245.136 280.946L244.768 280.978L244.417 280.954L244.347 280.99L244.171 281.133L244.08 281.296L244.085 281.464L244.047 281.601L240.489 281.975L239.022 282.478L237.746 283.424L236.749 284.877L236.48 285.456L236.416 285.74L236.362 286.484L236.206 286.943L236.173 287.169L236.046 287.696L235.739 288.166L235.353 288.543L234.989 288.787L234.08 289.165L233.655 289.44L233.281 289.897L232.986 290.35L232.661 290.728L230.282 292.443L229.687 293.276L229.455 294.582L229.496 295.245L229.415 295.5L228.931 295.681L228.529 296.034L228.39 296.113L228.095 296.06L227.516 295.826L227.224 295.772L226.929 295.814L226.434 296.036L226.157 296.113L226.427 296.229L227.81 296.3L227.466 297.163L226.926 297.535L226.307 297.781L225.74 298.27L225.495 298.246L225.05 298.061L224.569 297.937L224.209 298.1L223.992 298.311L223.083 298.861L223.182 298.979L223.352 299.27L223.449 299.391L222.983 299.54L222.407 299.363L221.878 299.322L221.559 299.905L221.2 299.616L221.091 299.563L220.5 299.454L220.198 299.481L219.968 299.638L219.615 300.031L219.409 300.182L219.203 300.247L218.604 300.332L218.373 300.291L218.148 300.06L218.213 299.558L218.17 299.27L218.139 299.262L217.923 299.203L217.766 299.381L217.781 299.941L217.567 300.114L217.534 300.236L217.489 300.358L217.386 300.417H216.862L216.555 300.311L216.376 300.083L216.262 299.844L216.142 299.716L215.921 299.746L215.915 299.967L215.968 300.274L215.906 300.588L215.445 300.861L214.866 300.706L214.276 300.406L213.796 300.245L213.238 300.265L212.933 300.213L212.732 299.918L212.3 298.348L212.27 298.099L212.173 297.814H211.939L211.432 298.005L209.67 298.353L209.083 298.347L209.225 298.084L209.432 297.999L209.67 297.96L209.906 297.838L209.561 297.626L209.129 297.525L208.272 297.496L208.407 297.847L208.63 298.071L208.731 298.258L208.507 298.519L208.57 298.596L208.679 298.784L208.741 298.861L207.818 299.171L204.858 298.861L205.075 298.43L205.173 298.306L205.315 298.194L205.561 298.113L206.176 298.124L206.384 298.194L206.562 298.479L207.058 298.581L207.367 298.438L206.972 298.007L206.474 297.804L204.976 297.841L204.284 297.397L203.939 297.317L203.792 297.755L203.9 298.263L204.423 298.939L204.624 299.391L204.153 299.308L203.529 298.538L203.14 298.349L203.08 298.243L203.049 298.007L202.945 297.771L202.494 297.62L202.366 297.478L202.293 297.258L202.259 296.969L202.788 296.805L202.972 296.815L203.152 296.876L203.183 296.945L203.182 297.055L203.266 297.231L203.375 297.063L204.273 296.303L204.433 295.637L204.314 294.828L203.996 294.239L203.56 294.244L203.698 294.873L203.524 295.458L203.194 295.816L202.845 295.775L202.644 295.434L202.288 294.404L201.371 292.682L201.085 292.372L200.599 292.24L198.916 292.541L198.669 292.675L198.659 292.965L198.719 293.256L198.676 293.391L198.425 293.309L198.122 293.161L197.828 293.064L197.613 293.151L197.093 293.066L196.762 293.077L196.617 293.314L196.522 293.575L196.319 293.642L196.113 293.609L195.936 293.544L195.693 293.415L195.559 293.391L195.442 293.447L195.181 293.682L195.08 293.731L194.884 293.648L194.716 293.477L194.557 293.233L194.365 293.138L194.212 292.917L193.969 292.455L193.803 292.287L193.398 292.048L193.193 291.874L193.43 291.728L193.664 291.63L193.871 291.483L194.034 291.18L193.154 290.002L192.726 289.286L192.722 288.789L192.464 288.56L191.765 288.488L191.418 288.374L190.61 287.837L190.36 287.77L188.392 287.554L188.253 287.602L188.149 287.78L188.135 288.184L188.07 288.374L187.873 288.764L187.802 289.105L187.767 289.437L187.667 289.805L187.444 290.111L187.181 290.19L186.6 290.145L186.319 290.238L185.796 290.573L185.543 290.669L185.201 290.633L184.496 290.357L184.124 290.332L183.839 290.413L183.701 290.486L183.595 290.586L183.475 290.658L183.379 290.559L183.304 290.409L183.239 290.332L183.043 290.283L181.944 289.757L181.65 289.766L181.358 289.818L181.063 289.807L179.891 289.483L177.531 289.544L176.383 289.338L175.413 288.62L174.901 287.923L174.823 287.688L174.927 287.529L175.413 287.306L175.586 287.172L176.244 286.417L176.832 285.57L177.315 284.412L177.59 283.909L177.944 283.696L178.447 283.567L179.233 282.915L179.656 282.653V282.498L179.281 282.553L178.237 283.189L177.489 283.47L177.086 283.704L176.832 284.019L176.768 284.299L176.81 284.479L176.861 284.641L176.831 284.879L176.76 284.932L176.224 285.525L176.193 285.625L176.148 285.615L175.997 285.399L176.011 285.274L176.081 285.084V284.877L175.891 284.695L175.662 285.47L175.12 285.79L173.875 286.062L173.874 285.633L173.932 285.237L174.085 285.045L174.356 285.216L174.414 284.424L174.605 283.886L174.932 283.505L175.413 283.187L176.449 282.937L176.895 282.72L177.183 282.161L176.595 282.451L175.997 282.652L175.761 282.63L175.433 282.538L175.167 282.401L175.12 282.245L176.057 281.086L176.209 280.829L176.243 280.64L176.071 280.443L175.876 280.479L175.685 280.637L175.527 280.808L175.457 280.921L175.384 281.086L175.326 281.263L175.306 281.4L174.988 281.63L174.884 281.736L174.416 282.507L174.355 282.75L174.1 283.021L172.468 283.51L172.24 283.654L171.835 284.105L171.703 284.202L171.577 284.073L171.446 283.783L171.353 283.473V283.272L171.418 282.986L171.395 282.652L171.303 282.161L171.309 279.94L171.422 279.367L171.703 279.127L172.817 278.959H174.002L173.874 279.127L174.002 279.312L174.427 278.942L174.936 278.796L176.007 278.79L176.449 278.712L177.363 278.363L177.832 278.285L178.339 278.374L178.574 278.361L178.771 278.201L178.914 278.015L179.081 277.853L179.419 277.596L180.252 277.223L180.616 276.934L180.828 276.421L180.095 276.713L179.83 276.757L178.596 276.605L176.991 277.078L176.591 276.943L176.91 276.222L177.117 275.959L177.416 275.749L178.331 275.476L178.597 275.244L176.942 275.493L176.651 275.413L176.519 274.824L176.532 274.281L176.725 273.876L177.123 273.72L177.584 273.613L178.446 273.151L178.952 273.064L179.858 273.388L180.333 273.416L180.701 273.064L180.122 273.078L179.862 272.981L179.654 272.713L180.764 272.36L181.268 271.979L181.415 271.36L179.128 272.577L177.715 272.863L176.768 273.401L176.579 273.421L176.205 273.529L176.008 273.553L175.706 273.52L175.567 273.421L175.358 272.973L175.359 272.605L175.997 271.208L176.304 269.732L176.477 269.349L177.244 268.938L178.084 269.294L178.913 269.843L179.654 270.019L179.459 269.439L179.193 268.835L178.924 268.614L178.714 269.182L178.398 268.923L177.721 268.573L177.416 268.35L177.192 268.067L177.137 267.8L177.236 267.492L177.472 267.088L178.056 266.46L178.431 266.169L178.596 266.252L178.733 266.669L179.056 266.978L179.771 267.331L179.614 267.45L179.476 267.598L179.367 267.783L179.304 268.014L179.852 267.951L180.333 267.72L180.798 267.676L181.286 268.181L181.41 268.41L181.481 268.625L181.449 268.866L181.286 269.18L180.845 269.532L180.66 269.76L180.818 269.866L181.401 269.83L181.607 269.703L181.829 269.439L181.946 269.125L182.016 268.806L182.14 268.674L182.607 269.103L182.823 269.249L182.996 269.449L183.11 270.025L183.418 270.855L183.493 270.792L183.537 270.704L183.666 270.8L183.891 270.922L184.005 271.039L183.91 270.24L183.02 269.068L181.286 267.33L181.536 266.989L181.825 266.823L183.571 266.296L183.889 266.328L184.064 266.522L184.363 267.112L184.604 267.331L184.923 267.442L185.277 267.454L185.588 267.318L185.777 266.996L185.501 266.908L184.897 266.939L184.657 266.763L184.489 266.506L184.444 266.392L184.476 265.927L184.574 265.663L184.72 265.552L184.719 265.522L184.074 265.534L183.419 265.844L182.983 265.957L181.583 266.105L181.286 265.928L181.25 265.606L181.095 265.119L180.99 264.63L180.676 264.364L180.601 264.085L180.554 262.996L180.677 262.59L181.062 262.329L181.573 262.342L181.98 262.638L182.652 263.585L182.849 263.744L183.138 263.852H183.404L183.537 263.675L183.443 263.52L182.823 262.995L182.199 262.176L181.837 261.865L181.414 261.829L182.091 260.714L182.505 260.307L182.885 260.403L183.536 261.497L183.574 261.85L183.546 262.174L183.574 262.447L183.771 262.661L183.861 262.327L183.811 261.837L183.888 261.649L184.148 261.531L185.189 261.649L184.929 261.342L183.955 260.978L183.594 260.74L183.303 260.342L183.1 259.936L183.074 259.536L183.301 259.155L183.72 258.994L184.161 259.131L184.618 259.362L185.071 259.487L185.431 259.678L185.856 260.045L186.238 260.256L186.481 259.985L186.158 259.892L184.089 258.685L183.889 258.477L183.966 258.136L184.254 257.799L185.113 257.056L185.395 256.906L185.718 256.839L186.129 256.817L186.034 256.708L185.868 256.439L185.777 256.322L187.099 255.524L187.664 255.489L187.898 256.239L187.954 256.345L188.075 256.485L188.197 256.664L188.251 256.9L188.207 257.131L188.037 257.597L188.016 257.826L188.153 258.155L188.363 258.404L188.487 258.7L188.369 259.154L189.007 259.223L189.306 259.171L189.253 258.906L189.18 258.773L189.121 258.601L189.085 258.412L189.074 258.233L189.025 258.088L188.668 257.735L188.621 257.492L188.656 257.142L188.664 256.755L188.546 256.402L188.419 256.151L188.169 255.366L188.121 255.07L188.334 254.238L188.84 253.702L189.46 253.619L190.009 254.154L190.131 254.478L190.082 254.644L189.942 254.818L189.786 255.16L189.702 255.608L189.749 255.964L189.923 256.248L190.231 256.485L190.265 255.938L190.412 255.579L190.592 255.259L190.725 254.829L190.688 254.337L190.238 253.833L190.127 253.41L189.938 253.091L189.899 252.911L190.23 252.741L190.403 252.567L190.585 252.469L190.776 252.599L191.099 253.064L191.38 253.35L191.698 253.524L192.142 253.659L191.851 253.493L191.204 252.682L190.764 252.274L190.688 252.02L190.831 251.674L191.103 251.447L192.014 251.183L192.136 251.037L192.274 250.693L192.367 250.537L192.479 250.466L192.771 250.374L192.895 250.273L193.39 249.737L193.893 249.523L194.4 249.64L195.16 250.338L195.739 250.682L195.965 250.934L196.494 252.005L196.616 251.725L196.653 251.366L196.612 250.994L196.495 250.687L196.399 250.592L196.013 250.356L195.556 249.861L195.452 249.775L195.367 249.754L195.284 249.707L195.193 249.53L195.167 249.35L195.193 248.705L195.084 248.007L194.98 247.652L194.844 247.376L195.249 246.784L196.673 245.149L197.172 244.701L197.794 244.267L198.224 243.716L198.137 242.927H199.684L199.844 242.834L200.05 242.418L200.058 242.05L200.003 241.974L199.853 241.765L199.429 241.597V241.433L200.233 241.16L200.557 240.953L201.182 240.211L202.256 239.484L202.931 238.81L203.497 238.079L203.52 237.934L203.535 237.682L203.585 237.384L203.725 237.099L203.904 236.906L204.094 236.743L204.296 236.614L204.493 236.526L204.377 236.466L204.025 236.186L204.361 236.012L204.703 235.917L205.766 235.848L206.405 235.696L206.982 235.396L207.335 235.144L207.5 234.969L207.736 234.829L208.177 234.879L208.328 234.809L208.751 234.403L209.043 234.566L209.312 234.991L209.668 235.371L210.485 235.497L211.463 235.184L212.398 234.599L213.435 233.552L214.232 233.004L214.561 232.671L214.863 232.442L215.96 231.849L216.232 231.594L216.318 231.388L216.332 231.151L216.396 230.956L216.524 230.827L216.994 230.526L217.163 230.469L217.484 230.29L218.136 229.496L218.447 229.316L218.786 229.19L220.032 228.34L220.897 228.05L221.365 227.796L221.565 227.448L221.644 227.263L221.829 227.073L222.045 226.925L222.214 226.867L222.68 226.814L222.827 226.854L222.977 226.879L223.125 226.844L223.327 226.704L223.582 226.448L224.271 226.249L224.856 225.793L225.552 225.947L225.93 225.904L226.819 225.197L227.167 225.097L227.441 224.907L228.023 224.015L228.279 223.712L228.382 223.452L228.393 223.155L228.74 222.742L229.187 222.657L229.376 222.436L229.405 222.116L229.513 221.601L229.87 221.159L230.245 220.851L232.535 219.701L232.756 219.328L232.902 218.7L233.277 218.571L233.534 218.335L233.693 217.958L233.821 217.628L233.992 217.478L234.409 217.297L234.846 216.975L235.08 216.86L235.353 216.813L235.55 216.867L235.921 217.098L236.12 217.152L237.234 215.367L236.686 215.259L236.255 215.743L235.873 216.36L235.464 216.654L235.793 215.629L236.377 214.933L236.821 214.598L236.988 214.24V214.064L238.256 213.976L238.637 213.791L238.771 213.644L238.634 213.424L238.94 213.183L239.179 212.842L239.443 212.635L239.816 212.794L239.873 212.398L240.06 212.314L240.168 212.138L240.857 211.705L242.392 211.152L243.059 210.613L243.604 210.533L243.874 210.518L244.058 210.485L244.204 210.31L244.423 210.052L244.616 209.894L245.244 209.571L245.545 209.229L246.16 208.316L246.475 208.129L246.766 207.873L248.234 205.307L248.456 205.078L248.622 205.015L248.975 204.862L249.279 204.65L249.413 204.351L249.667 203.908L249.828 203.708L250.005 203.623L250.281 203.44L250.571 203.008L251.002 202.186L251.309 202.001L252.538 199.464L252.893 199.041L253.072 198.696L253.123 197.955L253.235 197.414L254.074 196.114L254.437 195.064L254.896 191.641L255.203 190.785L255.278 190.27L255.453 189.699L255.539 189.514L256.127 188.787L256.379 188.377L256.549 187.85L256.838 186.398L257.08 185.943L257.245 185.189L257.598 184.312L257.486 184.051L257.359 184.222L257.285 184.053L257.262 183.922L257.243 182.835L257.514 182.633L258.542 182.79L259.737 182.619L260.058 182.642L260.186 182.632L261.038 182.266L262.66 181.216L263.093 180.703L263.244 180.574L263.499 180.52L263.728 180.563L263.895 180.513L264.013 179.973L264.151 179.834L264.322 179.715L264.489 179.552L264.73 179.165L265.367 177.734L265.46 177.617L265.539 177.599L265.594 177.511L265.621 177.037L265.649 176.982L265.699 176.949L265.784 176.872L265.924 176.667L266.013 176.444L266.068 176.198L266.084 175.924L266.281 175.588L266.734 175.2L267.243 174.877L267.599 174.743L267.534 174.53L267.52 174.305L267.556 174.088L267.789 173.645L267.823 173.377L267.834 172.881L267.888 172.328L267.973 172.11L268.136 172.172L268.215 172.139L268.373 172.037L268.574 171.939L268.781 171.931L268.445 171.288L268.348 171.005L268.193 168.483L268.236 168.205L268.387 167.685L268.417 167.473L268.311 166.289V163.815L268.21 163.104L268.216 162.705L268.364 162.529L268.581 162.515L268.733 162.454L268.852 162.317L269.074 161.866L269.486 161.316L269.544 161.188L269.575 160.949L269.611 160.849L269.728 160.733L269.844 160.717L269.955 160.718L270.069 160.665L270.126 160.562L270.179 160.415L270.253 160.275L270.369 160.218L270.392 160.219L270.623 160.23L270.747 160.209L270.978 159.996L271.459 159.662L271.663 159.597L271.736 159.509L272.627 158.819L274.345 156.685L275.093 155.953L275.733 155.698L275.453 156.447L275.43 156.697L275.674 156.795L275.76 156.685L275.857 156.474L275.984 156.325L276.264 156.468L276.418 156.402L276.563 156.284L276.671 156.175L276.594 155.845L277.124 155.61L277.14 155.402L276.941 155.175L276.884 155.095L276.667 155.312L276.418 155.452L276.174 155.492L275.957 155.402L276.619 154.557L277.402 154.149L280.807 153.978L281.921 154.121L282.946 154.417L283.508 154.476L283.115 154.634L279.402 154.33L279.133 154.403L278.957 154.63L278.792 155.096L278.609 155.99L278.451 156.419L278.197 156.641L278.353 157.11L278.261 157.288L278.022 157.305L277.728 157.274L277.963 157.878L278.059 157.956L278.349 158.07L278.431 158.173L278.429 158.557L278.222 159.231L278.314 159.597L278.425 159.485L278.793 159.288L279.029 159.931L279.62 160.54L281.096 161.721L281.318 161.803L281.541 161.71L281.957 161.377L282.042 161.337L282.266 161.316L282.333 161.251L282.297 160.956L282.325 160.85L282.6 160.575L282.734 160.593L282.913 160.85L283.136 160.501L283.376 160.294L283.622 160.319L283.862 160.666L283.95 160.951L283.956 161.16L283.862 161.612L283.963 161.825L283.942 162.011L283.732 162.244L284.02 162.296L284.275 162.278L284.496 162.358L284.68 162.696L284.631 162.807L284.458 163.813L284.522 164.235L284.566 164.435L284.527 164.591L284.331 164.889L283.946 165.309L283.511 165.664L283.672 165.765L283.8 165.804L283.93 165.773L284.097 165.665L284.3 166.801L284.331 167.152L284.429 167.499L284.622 167.799L284.756 168.11L284.681 168.483L284.617 168.267L284.51 168.088L284.376 167.944L284.214 167.859L284.097 168.678L284.156 168.879L284.424 169.159L284.518 169.327L284.566 169.587H284.681L284.866 169.303L285 169.595L285.162 170.524L285.374 171.143L285.389 171.321L285.291 171.462L284.994 171.604L284.927 171.775L285.05 172.115L285.35 172.306L285.73 172.395L286.527 172.401L286.892 172.334L287.22 172.17L287.857 171.612L288.451 171.245L288.746 170.916L289.409 169.979L290.476 168.918L290.903 168.735L291.096 168.402L291.275 168.328L291.381 168.402L291.389 168.58L291.339 168.788L291.274 168.952L291.867 168.698L292.158 168.501L292.392 168.249L292.67 167.703L292.808 167.551L292.96 167.54L293.107 167.633L293.253 167.644L293.393 167.395L293.219 167.146L293.376 166.83L293.677 166.561L293.927 166.445L294.23 166.559L294.5 166.856L294.675 167.26L294.696 167.702H294.814L294.898 167.484L294.984 167.412L295.069 167.484L295.154 167.702L295.398 167.549L295.158 167.007L295.401 166.751L295.866 166.6L296.274 166.372L296.408 166.125L296.391 165.895L296.254 165.728L296.038 165.665L295.378 166.128L295.27 166.062L295.266 165.758L295.288 165.636L295.568 165.275L295.715 165.146L296.109 164.942L296.274 164.812L296.461 164.723L297.334 164.575L297.424 164.479L297.804 163.879L298.227 163.59L298.163 164.637L298.575 164.731L298.637 164.648L299.162 164.112L299.206 163.998L299.25 163.704L299.269 163.631L299.363 163.572L299.619 163.49L300.462 163.023L300.606 163.001H300.81L301.015 163.047L301.157 163.164L301.343 163.764L301.046 163.847L300.218 163.631L300.329 163.93L300.228 164.092L300.065 164.259L299.983 164.575L299.79 164.502L299.605 164.492L299.432 164.567L299.27 164.731L299.374 164.867L299.41 164.956L299.469 165.013L299.62 165.045L299.335 165.319L298.776 165.509L298.233 165.524L297.988 165.275L297.726 165.239L297.234 165.309L296.973 165.537L297.393 165.992L297.149 166.155L296.977 166.338L296.986 166.506L297.276 166.616L297.217 166.906L297.107 167.168L296.957 167.387L296.798 167.55L296.941 167.733L297.14 167.788L297.317 167.666L297.394 167.308L297.792 166.723L297.804 166.616L298.937 166.404L299.54 166.377L299.984 166.616L299.797 166.586L299.646 166.634L299.549 166.768L299.516 166.997L299.457 167.208L299.319 167.195L299.159 167.106L299.036 167.08L298.949 167.053L298.831 166.973L298.727 166.966L298.685 167.153L298.703 167.243L298.79 167.378L298.811 167.474L298.787 167.692L298.709 167.789L298.593 167.788L298.45 167.704L298.324 168.231L298.079 168.383L297.809 168.472L297.628 168.809L297.894 168.812L298.207 168.945L298.466 169.181L298.575 169.503L298.538 169.739L298.37 170.248L298.331 170.523L298.119 170.787L297.629 171.04L296.688 171.319L296.747 171.578L296.865 171.759L297.015 171.869L297.157 171.93L298.973 170.854L299.62 170.679V170.522L299.368 170.44L299.137 170.448L298.946 170.41L298.81 170.209L299.529 170.116L299.892 170.127L300.159 170.287L300.43 170.391L300.847 170.339L301.261 170.205L301.528 170.056L301.423 169.986L301.157 169.725L302.176 169.826L302.671 169.688L303.045 169.275L301.109 169.324L300.814 169.417L300.769 169.489V169.592L300.733 169.688L300.577 169.726L300.461 169.724L300.383 169.708L300.312 169.663L300.218 169.585L300.337 169.276L299.416 169.671L298.963 169.649L298.81 168.95L298.898 168.588L299.077 168.374L299.297 168.22L299.515 168.029L299.548 167.886L299.514 167.724L299.506 167.601L299.632 167.549L299.783 167.527L299.867 167.456L299.892 167.312L299.865 167.077L300.463 167.219L300.282 167.583L300.237 167.935L300.337 168.637L300.637 168.086L300.785 167.649L301.007 167.394L301.527 167.393L301.238 166.943L301.16 166.721L301.454 166.257L301.465 165.919L301.322 165.667L301.04 165.663L300.927 165.886L300.857 166.242L300.746 166.481L300.52 166.37L299.992 165.791L299.864 165.522H300.462L300.324 165.229L300.303 165.001L300.42 164.912L300.687 165.044L300.718 164.565L301.015 164.696L301.637 165.351L302.001 165.6L302.363 165.711L302.686 165.602L302.946 165.195L303.239 165.489L303.525 165.363L303.693 164.999L303.628 164.573L303.889 164.663L304.159 164.924L304.375 165.266L304.462 165.593V165.86L304.443 166.025L304.357 166.109L303.99 166.169L303.91 166.265L303.915 166.415L303.993 166.614L304.303 166.885L304.636 166.762L304.925 166.465L305.286 165.992L305.976 165.289L306.222 165.196L306.352 165.49L306.219 165.883L305.337 167.306L305.236 167.529L305.218 167.972L305.165 168.169L305.109 168.113L304.867 168.25L304.657 168.425L304.697 168.481L304.63 168.541L304.469 168.637L304.303 168.633L304.228 168.403V167.471L304.174 167.363L304.057 167.529L303.934 167.806L303.876 168.029L303.618 167.919L303.612 168.109L303.741 168.41L303.875 168.638L304.236 169.034L304.357 169.236L304.463 169.586L304.384 169.625L304.166 169.701L304.11 169.727L304.103 169.68L303.757 169.898L303.621 170.047L303.528 170.196L303.405 170.319L303.165 170.367L302.264 170.373L301.805 170.507L301.527 170.836L301.321 170.691L301.114 170.658L300.935 170.754L300.813 170.992L300.546 170.885L300.231 170.97L299.923 171.166L299.683 171.389L299.63 171.659L300.034 171.647L300.516 171.509L300.696 171.388L301.073 171.516L301.328 171.412L301.562 171.197L301.871 170.991L302.066 170.976L302.251 171.036L302.438 171.05L302.774 170.824L303.13 170.741L303.29 170.679L303.47 170.899L303.705 171.104L303.953 171.259L304.171 171.319L304.382 171.265L304.63 171.042L304.808 170.992L305.268 170.93L305.63 170.762L306.339 170.21L306.125 170.784L305.858 171.319L305.729 171.477L305.388 171.796L305.219 172.014L305.134 172.235L305.072 172.46L304.957 172.639L304.42 172.784L304.011 173.118L303.757 173.192L303.842 172.963L304.136 172.466L304.169 172.326L303.997 172.269L303.639 172.631L303.406 172.571L303.523 172.239L303.028 172.585L302.697 173.155L302.425 173.816L302.104 174.429L301.696 174.98L301.612 175.263L301.637 175.696L301.822 176.395L301.855 176.725L301.741 177.106L302.064 177.179L302.267 177.459L302.345 177.762L302.287 177.904L302.35 177.993L302.536 178.115L302.726 178.053L302.81 177.59L302.72 177.485L302.564 177.018L302.515 176.663L302.756 176.872L303.704 178.506L303.732 178.833L303.818 179.126L303.889 179.359L303.993 179.789L304.006 180.033L304.367 181.294L304.462 181.446L304.625 181.847L305.008 182.076L305.441 182.128L305.763 182.002L305.664 182.564L304.44 184.92L304.143 185.367L302.147 187.516L300.813 188.952L300.316 189.785L300.08 190.316L299.982 190.787L299.994 191.491L299.954 191.908L299.792 192.12L299.69 192.355L299.56 192.651L299.527 192.76L299.199 193.2L298.867 193.81L298.532 194.141L297.758 194.645L297.391 194.997L296.857 195.876L296.757 195.956L296.639 195.978L296.397 195.964L296.225 196.377L296.153 196.511L295.96 196.691L295.778 196.82L295.649 197.011L295.62 197.392L295.687 197.604L295.98 197.967L296.098 198.188L295.984 198.363L295.854 198.52L295.502 198.043L295.307 197.914L295.044 197.869L294.822 197.943L294.454 198.273L294.275 198.347L294.058 198.52L293.157 199.632L292.815 200.525L292.548 201.549L292.141 202.408L291.383 202.805V202.978L291.504 202.988L291.584 203.032L291.655 203.084L291.747 203.138L290.414 206.039L290.225 206.855L289.966 207.354L289.638 207.774L289.1 208.053L289.067 208.293L289.147 208.747L289.141 209.013L289.164 209.141L289.151 209.276L289.03 209.563L288.867 209.768L288.715 209.848L288.603 209.966L288.56 210.295L288.495 210.459L288.336 210.62L287.586 211.09L287.397 211.157L286.911 211.231L286.199 211.603L286.102 211.836L286.041 212.1L285.967 212.305L285.819 212.466L284.99 213.119L282.67 213.696L282.1 213.963L281.634 214.553L280.315 215.523L280.069 215.985L279.678 216.966L279.272 217.604L279.185 217.795L279.246 218.138ZM320.824 71.1874L321.202 70.9745L321.294 71.0373L321.473 71.2653L321.624 71.559L321.492 71.6695L321.246 71.7387L321.056 71.9199L321.039 72.1299L321.169 72.5651L321.187 72.7751L321.142 72.9338L321.064 72.9858L320.842 72.9584L320.708 72.9634L320.359 73.0897L320.002 73.1373L319.634 73.081L318.936 72.8119L319.062 72.6509L318.687 72.293L318.509 72.2569L318.295 72.446L318.127 72.5088L318.06 72.2533L318.094 71.886L318.24 71.624L318.37 71.6456L319.238 71.624L319.427 71.7431L319.566 71.9581L319.746 72.0628L320.064 71.8528L320.824 71.1874ZM332.491 68.6991L332.382 68.7446L332.275 68.7741L332.162 68.785L332.051 68.7792L331.979 68.7727L331.839 68.7323L331.629 68.6276L331.584 68.5548L331.609 68.4725L331.655 68.3787L331.68 68.3188L331.696 68.2524L331.688 68.1795L331.655 68.0994L331.547 68.0157L331.404 67.9796L331.272 67.8944L331.189 67.6606L331.655 67.5148L331.77 67.6859L331.955 68.2473L332.147 68.2711L332.293 68.3462L332.405 68.4869L332.491 68.6991ZM315.406 63.7073L315.634 63.5579L315.905 63.6655L316.132 63.9173L316.228 64.2096L316.345 64.7256L316.312 64.9349L316.053 65.0222L315.44 65.0049L315.272 64.9212L315.524 64.7299L315.533 64.4925L315.364 63.9657L315.406 63.7073ZM320.238 59.106L320.309 59.2409L320.463 59.417L320.589 59.6371V59.9077L320.436 60.086L320.175 60.1863L319.885 60.2209L319.651 60.2108L319.316 59.7396L319.566 59.3333L320.003 59.0915L320.238 59.106ZM327.178 61.3742L327.51 61.8411L327.65 61.958L327.313 62.6746L327.152 62.8327L326.91 62.8615L326.778 62.7028L326.72 62.4451L326.711 62.1767L326.614 61.9472L326.388 62.0201L326.132 62.1709L325.947 62.1767L325.858 61.9558L325.818 61.4153L325.761 61.2277L325.624 61.1245L325.481 61.1295L325.066 61.2284L325.125 61.0415L325.121 60.9109L325.061 60.7918L324.938 60.6337L324.541 60.7694L324.052 60.5536L323.662 60.1235L323.544 59.6155L323.989 60.1553L324.119 60.2108L324.278 60.0369L324.276 59.7699L324.239 59.482L324.294 59.2517L324.441 58.883L324.205 58.6989L323.859 58.5229L323.662 58.162L324.173 58.1685L324.399 58.0855L324.589 57.8705L324.25 57.5176L324.183 57.0918L324.379 56.7627L324.824 56.6956L324.995 56.7627L325.148 56.8926L325.26 57.0896L325.303 57.3581L325.378 57.4844L325.888 57.8705L325.553 58.0357L325.589 58.2797L325.835 58.5344L326.286 58.8151L326.725 59.0006L326.892 59.0338L327.044 59.1154L326.959 59.3044L326.799 59.5238L326.711 59.6941L326.649 60.0167L326.554 60.2498L326.548 60.4995L326.77 60.8661L326.842 60.9441L326.933 61.0097L327.03 61.0552L327.126 61.0725L327.183 61.1072V61.1937L327.164 61.2933L327.178 61.3742ZM351.494 133.884L351.614 134.262L351.725 134.256L351.829 134.385L352.111 134.533L352.555 134.877L352.678 134.996L352.902 135.141L353.201 135.15L353.787 135.074L354.333 135.217L354.269 135.523L353.967 135.966L353.787 136.515L353.708 136.687L353.522 136.861L353.309 136.991L352.914 137.146L352.78 137.395L352.391 138.889V138.973L352.412 139.08L352.421 139.212L352.391 139.363L352.324 139.41L352.057 139.523L351.967 139.586L351.736 140.021L351.167 141.997L350.797 142.906L350.562 143.283L350.487 143.49L350.473 143.786L350.504 144.354L350.492 144.504L350.459 144.61L350.238 144.951L350.187 145.056L349.917 145.829L349.494 146.665L348.803 147.676L348.054 148.374L347.911 148.44L347.746 148.357L347.601 148.181L347.444 148.08L347.257 148.214L346.823 148.841L346.672 149.215L346.61 149.668L346.722 149.47L346.861 149.316L347.017 149.221L347.197 149.194L346.093 151.464L345.904 153.072L345.611 153.579L345.19 153.607L344.76 153.504L344.427 153.612L343.428 155.249L342.404 156.281L342.256 156.568L342.229 156.797L342.157 157.06L342.064 157.31L341.723 157.962L341.605 158.044L341.327 158.081L341.2 158.173L341.084 158.38L340.43 160.077L340.033 160.733L339.433 162.244L339.156 163.318L338.895 163.757L338.045 164.113L337.681 164.526L337.386 165.046L337.194 165.523L336.645 167.601L336.281 168.464L334.54 170.913L331.919 173.084L331.285 173.763L330.424 174.389L329.418 174.912L325.634 177.9L324.456 178.372L324.174 178.584L323.605 179.231L323.326 179.347L322.009 179.473L321.738 179.321L321.578 178.603L321.305 178.374L321.397 178.03L321.318 177.778L321.171 177.544L321.058 177.263L321.044 176.94L321.321 175.233L321.24 174.987L321.053 174.826L318.999 174.028L318.533 173.976L318.092 174.088L317.699 174.367L316.856 175.289L316.691 175.416L316.506 175.448L316.23 175.382L315.851 175.101L315.62 174.863L315.585 174.673L315.81 174.237L315.777 173.858L315.665 173.439L315.642 172.88L315.773 172.396L316.151 171.498L316.231 170.914L316.034 170.4L315.582 170.266L315.073 170.355L314.716 170.523L314.445 170.741L314.242 170.969L314.098 171.249L314.001 171.617L314.805 171.822L315.047 172.045L314.939 172.571L314.825 172.751L314.666 172.898L314.481 172.939L314.288 172.795L314.108 172.728L313.911 172.879L313.699 173.085L313.472 173.191L312.687 173.03L311.847 172.592L311.219 171.94L311.056 171.148L311.254 170.693L311.568 170.521L312.348 170.365L312.632 170.112L313.295 169.294L313.73 168.896L314.151 167.923L314.412 167.7L314.784 167.537L315.008 167.272L315.182 167.262L315.409 167.856L315.627 167.65L315.718 167.448L315.71 167.214L315.642 166.91L315.549 166.849L315.343 166.573L315.214 166.272L315.349 166.131L315.546 166.035L315.848 165.619L316.054 165.523L316.251 165.459L316.469 165.304L316.668 165.096L316.816 164.889L316.944 164.607L316.993 164.381L317.05 163.813L317.412 162.774L317.57 162.43L318.585 161.314L319.548 159.69L320.356 157.878L320.823 156.333L321.005 155.944L321.15 155.485L321.214 154.209L321.306 153.69L321.314 153.574L321.299 153.425L321.302 153.294L321.359 153.239L321.484 153.237L321.646 153.209L321.756 153.138L321.646 152.786L321.591 152.442L321.573 152.106L321.6 151.915L321.75 151.518L321.965 150.226L322.032 149.331L322.004 149.096L321.904 148.902L321.634 148.37L321.412 146.9L321.087 145.687L320.862 145.092L320.592 144.584L319.285 143.218L318.94 142.591L317.368 140.791L316.168 140.033L315.215 139.582L314.77 139.5L314.018 139.508L313.377 139.515L311.994 138.997L310.941 138.888L310.501 138.782L310.089 138.512L308.261 136.774L307.932 136.363L306.932 134.768L306.229 134.025L305.371 133.534L304.444 133.236L301.515 132.768L300.518 132.427L298.193 130.683L297.565 130.002L297.045 129.109L296.717 128.079L296.613 127.067L296.701 126.047L296.927 124.987L297.434 123.995L298.218 123.362L299.987 122.564L304.384 119.795L304.761 119.681L307.049 119.847L307.879 119.568L308.635 118.998L310.695 116.838L310.955 116.378L311.096 115.571L311.255 115.05L311.291 114.762L311.29 114.084L311.359 113.926L311.392 113.853L311.655 113.778L311.541 113.388L311.592 113.053L311.701 112.728L311.76 112.343L311.805 108.549L311.948 107.729L312.552 106.342L312.77 105.571L312.901 104.725L312.987 103.437L313.158 102.658L313.178 102.199L313.093 101.805L312.948 101.409L312.859 101.033L312.94 100.706L313.212 100.853L313.533 100.884L313.853 100.822L314.126 100.706L314.149 100.951L314.238 101.161L314.357 101.329L314.466 101.453H314.573V101.142L314.836 101.339L315.049 101.622L315.291 101.777L315.639 101.6L315.509 101.506L315.16 101.142L315.613 100.971L316.144 101.039L316.628 101.004L316.94 100.543L316.617 100.542L316.482 100.586L316.353 100.705L316.226 100.543L316.275 100.112L315.931 99.787L315.451 99.6355L315.103 99.7315L314.976 99.9804L314.909 100.198L314.796 100.35L314.52 100.407L314.352 100.268L314.331 99.9516L314.389 99.5994L314.466 99.3613L314.621 99.1347L314.769 99.0603L314.94 99.0322L315.16 98.9326L315.698 98.3213L315.983 98.1193L316.002 97.6964L315.797 97.3233L315.405 97.2807L315.121 97.6552L314.973 98.1683L314.759 98.4433L314.285 98.0969L314.221 97.6957L314.349 95.6274L314.813 94.6019L315.626 94.3024L316.6 94.293L317.527 94.1422L317.462 93.9545L317.355 93.8203L317.217 93.7315L317.048 93.6962L317.285 93.5158L317.47 93.2675L317.532 92.9709L317.41 92.6418L316.695 93.0878L316.613 93.1867L316.547 93.4328L316.462 93.5338L316.394 93.5122L316.293 93.4436L316.174 93.401L315.649 93.6428L315.355 93.2964L314.257 89.0313L313.262 86.6311L313.078 85.6373L313.081 85.4042L313.235 85.1437L313.431 85.0239L313.934 84.8955L314.128 84.7684L314.314 84.3621L314.466 83.87L314.692 83.4507L315.106 83.2782L315.142 83.1959L315.058 83.0379L314.879 82.9513L314.642 83.0704L314.475 83.2147L314.139 83.4297L313.998 83.5741L313.505 84.4574L313.262 84.5786L312.882 84.251L312.629 83.8519L311.934 82.1942L311.757 81.5087L311.354 80.7336L311.287 80.5445L311.186 80.0848L310.457 78.6963L310.337 78.0988L310.619 78.0706L311.101 78.1868L311.789 77.9761L312.04 78.0642L312.21 78.2446L312.174 78.4705L312.009 78.7057L311.98 78.8334L312.845 80.5409L312.914 81.2366L313.161 81.7779L313.459 82.0174L313.644 81.5094L313.432 80.9523L313.388 80.6152L313.584 80.4659L314.094 80.5626L314.318 80.538L314.573 80.3309L314.229 80.3446L313.364 80.1815L313.057 80.0357L313.315 79.9095L314.247 79.0882L314.364 79.1394L314.35 79.6078L315.061 78.744L315.451 78.4336L315.873 78.3911L316.527 79.1546L316.754 79.2859L316.995 79.1835L317.039 78.9388L316.957 78.6444L316.814 78.3911L316.845 78.158L315.967 77.8044L315.639 77.52L315.372 77.6189L315.211 77.341L315.09 76.9297L314.935 76.6122L314.495 77.1411L314.247 76.9297L314.213 76.452L314.408 76.1842L314.607 76.1265L314.817 75.9692L314.985 75.7534L315.054 75.5174L313.946 75.3175L312.783 75.3774L312.21 75.5455L311.756 75.8919L311.61 76.1582L311.502 76.6778L311.416 76.9196L311.251 77.1419L311.11 77.1512L310.703 76.7724L310.462 77.1512L310.094 77.4832L309.688 77.6247L309.342 77.4406L309.147 77.0618L308.45 74.6074L308.072 72.5845L307.748 71.6218L306.857 69.988L304.49 66.9851L303.984 66.0022L303.878 65.0207L303.925 64.7739L303.996 64.5827L304.13 64.4607L304.349 64.4369L304.16 65.0179L304.139 65.3094L304.229 65.6161L304.508 65.0453L304.674 64.8187L304.923 64.7285L305.164 64.8865L305.421 65.588L305.765 65.9113L306.154 66.62L306.4 66.7859L306.687 66.8653L306.855 67.0645L306.839 67.3048L306.575 67.5141L307.27 67.7754L307.454 67.8071L307.473 67.8562L307.301 67.9673L307.045 68.0683L306.81 68.1001L306.974 68.2307L307.041 68.4032L307.021 68.6074L306.929 68.8319L307.134 68.8492L307.295 68.9055L307.641 69.1393L307.633 68.9892L307.651 68.6854L307.641 68.5389L307.812 68.8376L307.986 69.3277L308.158 69.568L308.336 69.1393L308.519 69.1566L308.591 68.9156L308.624 68.5656L308.699 68.2466L308.811 68.103L309.085 67.8641L309.178 67.6599L308.909 67.758L308.816 67.8071L308.668 67.3893L308.831 66.4331L308.699 66.1877L308.547 66.5081L308.476 66.3493L308.473 65.2344L308.465 65.1651L308.53 65.0554L308.817 64.7299L308.683 64.4968L308.476 64.2644L308.331 64.0249L308.402 63.7809L308.78 63.4367L308.753 63.3133L308.213 62.9741L308.099 62.9849L307.813 63.3494L307.601 63.5522L307.447 63.6481L306.438 63.7246L305.893 63.5991L305.515 63.2375L305.403 62.5527L305.637 62.6869L305.769 62.1767L305.956 62.1261L306.191 62.2864L306.459 62.396L307.189 62.3441L307.535 62.2344L307.812 62.0316L308.086 61.7523L308.305 61.6065L308.816 61.3756L309.284 60.939L309.455 60.8647L309.6 60.8553L309.706 60.781L309.765 60.5031L309.664 60.4057L309.622 60.3869L309.593 60.3508L309.53 60.2123L309.348 60.4028L309.124 60.5349L308.883 60.6114L308.816 60.6179L308.641 60.6352L308.473 60.7189L308.066 61.1079L307.877 61.2306L307.743 60.9823L307.462 61.1685L307.125 61.4925L306.811 61.6679L306.378 61.5842L306.133 61.4904L305.99 61.3763L305.902 60.9967L306.073 60.9094L306.576 61.0725L306.865 61.3424L306.992 61.3655L307.084 60.8235L307.349 60.1387L307.749 59.6169L307.855 59.3831L307.889 59.2308L307.908 59.0453L307.987 58.7321L308.272 58.8707L308.486 58.8375L308.538 58.6455L308.337 58.3078L308.166 58.1938L307.514 58.0069L307.598 58.66L307.37 59.3809L306.953 59.9669L306.461 60.213L306.725 59.8594L306.813 59.7764L306.62 59.7071L306.43 59.7418L306.285 59.7324L306.226 59.5447L306.18 59.2106L306.07 59.1478L305.922 59.1933L305.768 59.181L305.581 59.1096L305.472 59.1168L305.418 59.0439L305.405 58.7437L305.424 58.507L305.484 58.2869L305.639 57.8726L305.367 57.89L305.181 58.0264L304.82 58.4529L304.893 57.8625L304.633 57.8495L303.881 58.4521L304.063 58.6268V59.0879L304.293 59.1803L304.603 59.1817L304.821 59.22L304.99 59.347L305.169 59.6176L305.063 59.9207V60.1257L305.224 60.213L305.351 60.169L305.438 60.0672L305.576 59.845L305.734 59.8464L305.921 60.034L306.226 60.5038L305.608 60.6705L305.51 60.716L305.471 60.921L305.37 61.0335L305.225 61.0747L305.054 61.0732L304.916 60.9967L304.693 60.7016L304.526 60.6352L304.335 60.6078L304.225 60.5313L303.814 59.92L303.662 59.6082L303.471 59.3052L303.176 59.0345L302.859 58.9667L302.039 58.9393L301.874 58.8108L301.767 58.6095L301.511 58.3396L301.212 58.1079L300.984 58.0061L300.714 57.8394L300.596 57.4497L300.582 56.6242L300.473 56.3023L299.98 55.7834L299.783 55.1483L299.57 54.8994L299.039 54.5068L299.669 53.9172L299.832 53.5888L299.753 53.0577L299.654 52.9162L299.473 52.73L299.285 52.5987L299.166 52.6102L299.131 52.8903L299.258 53.0952L299.426 53.2446L299.519 53.3478L299.413 53.8104L298.759 54.1647L298.688 54.5061L299.57 55.7495L299.687 55.9696L300.045 56.1876L300.194 56.6862L300.269 57.247L300.403 57.6417L300.525 57.8272L300.739 58.2977L300.873 58.525L301.035 58.6441L301.255 58.743L301.449 58.8801L301.599 59.2929L301.752 59.4408L301.927 59.5707L302.057 59.6949L303 61.1519L303.217 61.2804L303.479 61.2421L303.726 61.2522L303.88 61.5214L303.529 61.683L303.695 61.94L304.043 62.3008L304.233 62.7663L304.093 63.2144L303.752 63.5031L302.952 63.8538L302.12 63.8747L301.71 63.1278L301.162 61.0725L298.931 58.0054L298.313 56.7584L294.438 51.5097L290.564 46.2769L290.455 45.8814L290.58 45.5408L291.147 44.7773L291.277 44.4258L291.313 43.9495L291.433 43.4624L291.654 43.1882L291.99 43.352L292.086 43.1427L292.108 43.0496L292.279 43.2387L292.44 43.4776L292.625 43.6832L292.871 43.7713L292.909 43.6219L292.877 42.8887L292.93 42.6173L293.397 43.352L293.495 42.9912L293.506 42.5755L293.58 42.1793L293.877 41.8856L294.039 41.8791L294.137 41.9815L294.244 42.0328L294.462 41.8856L294.532 41.7448L294.641 41.3046L294.921 40.8262L294.293 41.0159L294.1 40.9568L294.104 40.7078L294.085 40.5519L294.003 40.4689L293.814 40.4451L293.752 40.5584L293.749 41.3227L293.559 41.008L293.279 40.0164L292.977 40.3318L293.05 40.7186L293.265 41.1134L293.397 41.4533L293.3 41.8285L293.022 42.0133L292.686 42.0082L292.246 41.7203L292.074 41.6994L291.979 41.7766L292.141 42.1901L292.032 42.2911L291.842 42.3373L291.692 42.4023L291.533 42.4968L291.42 42.4246L291.219 42.1057L291.089 42.1006L290.895 42.2067L290.56 42.4744L290.711 42.7739L290.599 42.9139L290.383 43.0114L290.221 43.1925L290.217 43.3159L290.259 43.4242L290.309 43.4869L290.339 43.4804L290.28 45.0472L290.222 45.2233L290.065 45.2572L289.925 45.1193L288.451 43.0482L288.244 42.478L288.334 42.1266L288.921 41.4526L288.804 41.4591L288.569 41.4417L288.451 41.4526L288.792 41.0564L288.939 40.8384L289.039 40.6024L288.515 40.6861L288.203 41.0152L288.01 41.4966L287.853 42.0429L287.669 41.8848L287.13 41.257L287.034 41.034L287.174 40.8608L287.78 40.4083L287.982 40.1593L287.727 40.0771L287.235 40.3679L286.916 40.4429L286.619 40.3506L286.383 40.1406L285.977 39.5943L285.293 38.8668L285.167 38.589L285.205 38.1776L285.451 38.0614L285.787 38.1351L286.095 38.2989L286.65 37.5202L286.978 36.533L287.04 35.4555L286.81 34.3997L286.261 33.0892L286.036 32.7406L285.001 31.6848L284.685 31.2366L284.152 29.8684L283.93 29.6519L283.623 29.4895L280.121 24.8441L279.427 24.2437L277.969 23.3625L278.144 23.1944L278.258 23.0407L278.437 22.6546L278.404 22.4843L278.381 22.1516L278.462 21.9423L278.739 22.14L279.13 22.3472L280.137 22.3912L280.569 22.6531L280.789 22.4215L281.325 22.2995L281.844 21.951L283.797 22.1242L284.099 22.0686L284.289 21.9055L284.466 21.6991L284.659 21.65L284.925 21.9437L284.43 22.2591L284.297 22.6762L284.328 23.7927L284.284 24.0712L284.217 24.2444L284.07 24.3382L283.795 24.3635L283.711 24.248L283.643 23.9998L283.518 23.7522L283.273 23.6505L283.307 23.5531L283.356 23.3091L283.391 23.2088L283.048 23.0861L282.92 23.1258L282.791 23.6498L282.733 24.108L282.607 24.2408L282.324 24.064L282.308 24.2747L282.241 24.44L282.131 24.5619L281.973 24.6493L282.142 24.8376L282.686 25.2439L282.735 25.0108L282.82 24.8174L282.951 24.6868L283.146 24.6493L283.056 24.9603L282.998 25.1025L282.913 25.2439L283.098 25.3702L283.273 25.3832L283.417 25.2865L283.51 25.0743L283.604 25.3226L283.635 25.5925L283.627 26.7962L283.693 26.9413L283.862 26.8013L284.055 26.312L284.098 25.6957L283.995 25.0953L283.732 24.65L284.179 24.8773L284.437 25.8999L284.608 27.1224L284.797 27.9408L285.356 28.5824L286.064 29.2109L286.643 29.921L286.805 30.8008L285.969 29.8005L285.611 29.5126L285.678 30.2566L286.397 30.9927L288.688 32.3473L288.637 32.589L288.271 33.0365L288.164 33.214L288.108 33.4255L288.097 34.2929L288.145 34.4091L288.257 34.3932L288.447 34.4033L289.014 34.5693L289.152 34.5592L289.286 34.373L289.341 34.1262L289.431 33.9126L289.678 33.8202L289.896 33.559L289.857 32.9694L289.62 31.9561L289.713 31.4936L290.036 31.3499L290.46 31.2756L290.864 31.0266L290.981 30.7466L290.943 30.5013L290.864 30.3006V30.1642L291.05 29.9802L291.195 29.9766L291.305 30.1231L291.389 30.3815L291.407 30.5691L291.381 30.7603L291.275 31.0981L291.795 30.8354L291.988 30.8L291.899 31.0151L291.951 31.1876L292.21 31.5167L291.506 31.8133H290.788L290.624 31.8847L290.507 32.221L290.592 32.6165L290.763 32.9889L290.924 33.258L291.158 33.5756L291.448 33.852L291.783 34.0454L292.159 34.1161L292.993 34.0194L293.322 34.132L293.641 34.5585L293.837 34.2186L293.876 34.1154L293.689 33.8801L293.467 33.6737L293.302 33.4305L293.278 33.1014L293.445 32.7377L293.672 32.7247L293.907 32.9398L294.098 33.2573L294.304 33.0459L294.538 33.0156L294.735 33.1231L294.916 33.5857L295.162 33.686L295.684 33.6874L295.741 33.6434L295.783 33.5424L295.851 33.4449L295.981 33.4002L296.149 33.4486L296.178 33.5626L296.168 33.7011L296.21 33.8188L296.304 33.9537L296.355 34.1002L296.422 34.2164L296.568 34.259L296.702 34.2713L296.815 34.3052L297.042 34.4019L296.82 34.5202L296.716 34.7093L296.655 34.9251L296.563 35.1199L296.177 35.4129L296.01 35.5933L296.039 35.7716L296.626 36.2804L296.984 36.253L297.065 36.1707L297.031 36.0321L297.041 35.8358L297.394 35.1199L297.408 34.9922L297.368 34.6804L297.394 34.5578L297.515 34.4488L297.805 34.4026L298.114 34.2409L298.37 34.2236L298.87 34.259L298.824 34.3716L298.971 34.6177L299.266 34.9749L299.959 35.5046L300.228 35.838L300.338 36.3525L300.573 36.7386L301.117 36.8238L302.107 36.7098L302.52 36.8209L302.943 37.1117L303.273 37.5462L303.41 38.0752L302.695 38.301L302.5 38.2238L302.445 38.0326L302.429 37.798L302.354 37.5844L302.269 37.6133L302.127 37.7208L301.949 37.7172L301.744 37.4278L301.328 37.6588L301.152 37.7973L301.314 37.9308L301.641 38.4338L301.057 38.5074L301.004 38.8033L301.271 39.0198L301.64 38.8639L301.807 38.9946L301.992 39.0386L302.181 38.9946L302.353 38.8639L302.562 39.1937L302.527 39.4802L302.403 39.7473L302.353 40.0143L302.461 40.2784L303.109 40.9539L303.199 41.1372L303.254 41.3941L303.292 41.9599L303.342 42.0205L303.46 41.7939L303.577 41.454L303.632 41.1617L303.972 41.3544L304.152 41.4266L304.349 41.4504L304.311 41.3573L304.26 41.1256L304.229 41.0311L304.479 41.0138L304.624 41.1199L304.73 41.2541L304.869 41.3191L305.026 41.2288L305.069 41.0246L305.01 40.8225L304.869 40.7331L304.487 40.6919L303.995 40.562L303.573 40.3426L303.41 40.0136L303.527 40.1579L303.766 39.9147L304.176 39.8909L305.052 40.0136L304.965 39.8014L304.923 39.7263L305.101 39.7054L305.33 39.74L305.506 39.8014L305.507 39.8699L305.699 39.7566L305.725 39.6852L305.722 39.5842L305.812 39.3785L306.281 38.8697L306.81 38.4331L306.944 38.952L306.796 39.3807L306.564 39.8086L306.458 40.2993L306.589 40.8002L306.88 41.0138L307.255 41.0549L307.64 41.0325V41.1624L307.475 41.4612L308.001 42.1042L307.746 42.3287L307.644 42.2608L307.162 41.7528L306.622 41.3328L306.457 41.1624L306.742 41.6308L307.37 43.0496L307.757 43.3477L308.109 43.3888L308.461 43.4783L308.447 43.448L308.465 43.3888L308.508 43.3404L308.579 43.3469L308.648 43.4191L308.709 43.5981L308.754 43.6356L308.9 43.7922L309.305 44.5341L309.398 44.7903L308.721 44.8862L308.799 45.141L309.698 45.8771L310.529 46.7604L310.68 47.2598L310.456 47.9757L310.194 47.8285L309.422 47.7007L309.112 47.6863L308.932 47.7953L309.217 48.0385L309.867 48.3964L309.776 48.4246L309.527 48.5545L309.968 48.6584L310.148 48.7414L310.221 48.9225L310.161 49.1412L310.009 49.2927L309.82 49.3858L309.633 49.4385L310.643 50.062L310.82 50.2901L310.833 50.5521L310.719 51.0594L310.762 51.2506L311.17 52.0387L310.697 52.1664L310.346 51.9434L310.021 51.592L309.635 51.3307L309.755 50.9345L309.263 50.7895L309.282 50.4481L309.025 50.4691L308.583 50.6589L308.335 50.7245L308.215 50.6913L308.038 50.495L307.928 50.4489L307.811 50.516L307.719 50.8147L307.64 50.8833L307.367 50.8941L307.333 50.853L307.39 50.6769L307.394 50.2908L307.341 49.9906L307.255 49.7351L307.117 49.502L306.927 49.2798L306.848 49.7452L306.93 50.8934L306.869 51.2506L306.779 51.4678L306.757 51.7457L306.804 52.0062L306.927 52.1722L307.192 52.2155L307.343 52.038L307.448 51.7637L307.578 51.5292L307.889 51.4736L309.028 51.6223L309.4 51.7529L309.683 52.1224L309.612 52.5402L309.318 52.9617L308.932 53.3456L309.215 53.6487L309.276 54.1676L309.256 54.7125L309.281 55.0978L309.491 55.3641L310.262 55.9386L310.585 56.1125L310.794 56.1522H311.227L311.416 56.2597L311.583 56.5332L311.562 56.7302L311.465 56.9114L311.415 57.1416L311.501 57.6432L311.683 57.9037L311.938 58.1079L312.236 58.4493L313.198 59.9467L313.749 60.5724L314.464 61.0689L314.908 61.258L314.921 61.3771L314.816 61.6636L314.826 61.7213L314.883 61.7494L314.921 61.7877L314.875 61.8829L314.814 61.9161L314.757 61.893L314.717 61.8469L314.711 61.8108L314.619 61.8822L314.552 61.8476L314.501 61.8685L314.464 62.1031L314.598 62.4935L314.982 62.6501L315.46 62.7157L315.872 62.8442L315.353 62.9344L313.936 62.8579L313.641 62.9099L313.685 63.2065L313.926 64.0876L314.202 64.6563L314.236 65.0222L314.196 65.4068L314.124 65.7475L313.775 64.7357L313.503 64.3113L313.056 64.1309L313.369 65.0734L313.33 65.435L312.938 65.4559V65.6168L313.106 65.671L313.255 65.7626L313.394 65.8846L313.525 66.0412L313.403 66.2642L313.041 66.4901L312.938 66.6395L312.935 66.9223L313.121 67.2998L313.172 67.5877L313.163 68.0272L313.245 68.0864L313.465 68.3202L313.636 68.4386L313.876 68.505L314.348 68.5396L315.08 68.2516L315.285 68.2466L315.465 68.3967L315.386 68.5129L314.594 68.9755L314.172 69.1393L313.893 69.1097L313.173 68.8319L313.526 69.2035L313.789 69.7325L314.816 72.9591L314.443 72.8508L314.221 72.6495L313.976 72.5658L313.525 72.8119L313.38 72.7043L313.318 72.5708L313.329 72.4106L313.407 72.2251L313.075 72.1479L312.831 71.5598H312.583L311.971 71.8723L311.701 72.0577L311.414 72.3716V72.5181L311.561 72.5355L312.169 72.4416L312.471 72.5181L312.311 72.6755L312.065 72.8378L311.9 73.0082L311.989 73.1792L312.263 73.3473L312.344 73.426L312.331 73.5516L312.353 74.4666L312.428 74.7589L312.64 74.8802L312.78 74.7705L312.803 74.5078L312.788 74.2126L312.822 73.9846L312.936 74.1498L313.082 73.9045L313.238 73.6988L313.423 73.5335L313.639 73.4152L313.909 73.3697L314.708 73.548H315.785L316.159 73.7948L316.104 74.4428L315.931 74.7026L315.761 74.8426L315.673 75.0317L315.753 75.4431L315.85 75.7216L315.942 75.8717L316.056 75.8436L316.223 75.6025L316.692 73.255H316.809L317.184 74.2689L317.318 74.7604L317.288 75.3225L317.678 75.2172L318.118 75.1999L318.333 75.0389L318.053 74.5143L317.986 74.1571L318.388 74.056L318.933 74.1202L319.295 74.2689L319.5 74.7604L319.307 75.7426L319.528 76.1171L319.793 76.1893L320.002 76.1027L320.195 75.9663L320.484 75.8717L320.889 75.5881L320.992 75.6321L321.085 75.7173L321.169 75.7483L321.732 75.4791L321.887 75.4431L322.063 75.5109L322.432 75.8227L322.655 75.8963L322.794 75.98L323.404 76.7435L323.524 76.9557L323.611 77.2104L323.657 77.5251L323.639 78.0237L323.422 79.5248L323.502 80.0199L323.701 80.4868L323.967 80.8945L324.232 81.2193L324.853 81.5772L325.619 81.6003L326.402 81.3983L327.068 81.0713L327.205 80.9321L327.261 80.787L327.353 80.6759L327.592 80.6304L327.733 80.7293L327.785 80.9573L327.772 81.4408L327.865 81.8673L328.092 82.1264L328.397 82.1769L328.712 81.9698L328.444 81.8948L328.262 81.6674L328.158 81.3485L328.085 80.6629L327.927 80.0877L327.89 79.8135L327.591 79.1647L327.536 78.8508L327.556 77.7141L327.474 77.4464L327.397 77.2732L326.991 75.9468L326.871 75.6964L326.705 75.4445L326.496 75.2338L326.064 74.917L325.883 74.7214L325.779 74.4897L325.725 74.2631L325.635 74.0459L325.417 73.8431L325.779 73.7103L326.192 73.7854L326.568 73.7803L326.822 73.4166L326.26 73.4289L325.994 73.3863L325.756 73.255L325.969 73.1749L326.183 73.1243L326.363 73.0312L326.472 72.814L326.324 72.809L326.21 72.7621L326.109 72.6993L326.003 72.6538L326.867 72.4092L327.153 72.1544L327.068 71.6262L326.794 71.8188L326.708 71.9228L326.59 71.7142L326.503 71.4934L326.493 71.274L326.601 71.0575L326.211 70.4094L326.333 69.8393L326.555 69.3197L326.471 68.8348L326.326 68.7619L326.131 68.7272L325.96 68.6579L325.883 68.4696L325.833 68.4133L325.523 67.9709L325.217 67.7999L324.575 67.556L324.289 67.2933L324.143 67.0089L324.058 66.6575L324.009 65.8326L324.151 65.5288H324.496L324.919 65.606L325.489 65.4841L325.601 65.5901L325.674 65.7626L325.779 65.956L325.846 66.1242L325.883 66.1906L325.95 66.257L326.09 66.3371L326.444 66.6763L326.619 66.6986L327.067 66.1906L327.38 66.5911L327.579 67.1309L327.549 67.6815L327.173 68.1037L327.532 68.396L327.922 68.4039L328.23 68.505L328.359 69.0693L328.405 69.6142L328.359 69.8927L328.178 69.7989L327.953 69.617L327.785 69.6618L327.727 69.8451L327.831 70.0912L328.028 70.1807L328.522 70.1056L328.711 70.1655L328.824 70.4058L328.765 70.6295L328.649 70.8403L328.594 71.0589L328.715 71.6781L328.955 71.7395L329.648 71.1917L329.402 71.0813L329.298 71.0589L329.419 70.8619L329.634 70.7883L329.875 70.8287L330.066 70.9774L330.276 71.0799L330.527 70.9557L330.949 70.605L331.262 70.4895L331.508 70.4722L331.725 70.5704L331.953 70.8251L332.144 70.8605L332.377 70.7255L332.556 70.7032L332.59 71.0597L332.496 71.3426L332.32 71.4169L331.834 71.3519L331.751 71.4573L331.42 72.0859L331.196 72.2345L330.753 72.4128L330.539 72.591L330.265 72.9692L330.01 73.4188L330.216 73.5877L330.203 73.7435L330.139 73.9009L330.18 74.0712L330.374 74.2653L330.58 74.3981L330.719 74.388L330.702 74.1534L330.975 73.9297L330.84 73.255L331.065 72.9649L331.443 73.164L332.144 73.0096L332.538 73.3372L332.603 73.5725L332.581 74.1289L332.656 74.3598L332.924 74.7113L332.999 74.8816L333.072 75.1652L333.177 76.1929L333.12 76.8777L333.125 77.0019L333.159 77.214L333.05 77.445L332.909 77.6831L332.835 77.9061L332.922 78.0555L333.107 77.9364L333.303 77.7069L333.412 77.5294L333.723 77.9321L333.664 78.4741L333.412 79.0427L333.126 79.5284L333.107 79.711L333.28 79.781L333.509 79.8214L333.657 79.8965L333.715 80.1628L333.689 80.7906L333.773 81.0749L333.608 80.9588L333.479 80.7884L333.384 80.5734L333.306 80.3381H333.176L333.253 80.8794L333.381 81.3506L333.406 81.7281L333.175 81.9727L333.759 82.2505L333.96 82.4512L334.123 82.8466L334.292 83.6932L334.358 84.557L334.432 84.9005L334.745 85.5767L334.817 85.8935L334.869 86.0465L335.111 86.237L335.179 86.4167L335.173 86.7003L335.088 86.6599L334.958 86.5344L334.818 86.5639L334.678 86.9024L334.84 87.046L335.531 87.1572L335.818 87.2827L336.126 87.4768L336.413 87.7128L336.649 87.9633L336.826 88.2526L337.097 88.8935L337.239 89.1562L337.73 89.6216L337.938 89.8901L338.005 90.2647L337.389 89.7804L337.184 89.6743L336.919 89.6498L336.663 89.6924L336.4 89.6469L336.118 89.3784L336.294 89.2796L336.833 89.0826L336.233 88.6589L335.945 88.3905L335.709 88.1119L335.381 87.8918L334.936 87.8694L334.131 88.0224L334.237 88.1523L334.393 88.3926L334.475 88.4807L334.413 88.6041L334.363 88.7571L334.34 88.918L334.367 89.0739L334.479 89.2341L334.583 89.2572L334.67 89.2262L334.719 89.2218L334.809 89.2933L334.991 89.3294L335.061 89.3698L335.092 89.4881L335.05 89.6209L334.98 89.7371L334.953 89.8114L335.033 90.2986L335.06 90.4047L335.148 90.5064L335.237 90.5526L335.539 90.567L335.674 90.5172L335.767 90.4097L335.832 90.3022L335.892 90.2567L336.196 90.4097L336.338 90.6731L336.438 90.987L336.605 91.3089L336.873 91.1198L337.043 91.2476L337.188 91.4807L337.365 91.607L337.611 91.4922L337.698 91.267L337.812 91.091L338.141 91.1473L338.372 91.2959L338.468 91.4908L338.489 91.7578L338.483 92.1237L338.571 92.32L338.786 92.3113L339.06 92.229L339.315 92.1973L339.081 91.1473L338.695 90.5006L338.603 90.1932L338.833 90.1117L339.168 90.4054L339.776 91.5081L340.194 91.7563L340.664 91.8732L341.702 92.382L342.199 92.4989L342.395 92.5877L342.808 92.9983L343.022 93.0907H343.536L343.619 93.1787L343.694 93.3187L343.811 93.3844L344.017 93.2394L347.447 95.7544L348.144 96.0914L349.229 96.2725L350.264 96.673L351.433 96.8434L352.373 97.4467L353.97 97.6632L354.616 98.0255H353.61L353.421 98.0846L353.525 98.2232L354.319 98.789L354.54 98.8936L354.788 98.9348L355.009 98.8186L355.051 98.5544L354.977 98.2528L354.851 98.0255L355.141 97.9511L355.308 98.0522L355.451 98.2124L355.674 98.3242H356.797L356.839 98.3697L357.028 98.6973L357.129 98.7673L357.209 98.7341L357.284 98.6598L357.385 98.6223L357.452 98.5523L357.442 98.3986L357.443 98.2434L357.559 98.1748L357.752 98.159L358.265 98.0255L359.805 97.9136L360.215 97.6524L360.526 97.3723L361.855 96.5424L362.38 96.0914L362.559 95.8576L362.627 95.6591L362.626 95.1041L362.912 94.573L362.967 94.3608L363.071 94.228L363.786 93.8347L364.053 93.4522L364.248 92.657L364.443 92.2745L364.703 91.9736L364.81 91.7809L364.855 91.5261L364.981 91.3731L366.692 90.8781L367.041 90.8528L367.349 90.7575L367.577 90.5172L367.984 89.8879L368.249 89.7451L369.013 89.6621L369.333 89.5199L369.559 89.2731L369.617 89.0616L369.536 88.8228L369.332 88.4821L370.011 88.6236L374.24 88.8336L374.642 88.9592L374.856 89.1388L374.624 89.372V89.5199L374.834 89.6195L375.149 89.9587L375.336 90.1138L375.621 90.2213L375.913 90.2639L376.516 90.2589L376.729 90.3274L377.059 90.6349L377.285 90.7034L377.813 90.6926L378.027 90.7352L378.282 90.8521L378.556 91.0708L378.929 91.4669L379.199 91.9072L379.166 92.2738L379.022 92.4701L378.697 93.0164L378.049 93.6991L377.701 94.7101L377.463 95.247L376.845 95.6822L376.597 96.1614L376.115 97.5289L375.926 97.8746L375.642 98.2441L375.511 98.457L375.455 98.6952L375.584 99.2061L375.838 99.6608L376.019 100.137L375.926 100.706L375.648 100.997L375.302 101.26L375.134 101.606L375.564 102.527L375.506 102.965L375.302 103.395L375.039 103.774L374.944 104.225L375.181 104.66L375.514 105.041L375.691 105.337L375.637 105.583L375.486 105.794L375.209 106.099L375.134 106.378L375.092 106.859L374.978 107.147L375.189 107.222L375.364 107.379L375.466 107.611L375.456 107.922L375.336 108.104L374.689 108.446L374.614 108.638L374.629 110.059L374.534 110.237L372.596 112.405L370.844 113.963L370.542 114.126L369.864 113.493L369.427 113.394L368.995 113.507L368.634 113.776L368.482 113.847L368.376 113.801L368.312 113.816L368.293 114.077L368.299 114.192L368.353 114.425L368.389 114.53L368.707 114.871L368.855 115.116L368.815 115.369L368.513 115.918L368.404 116.41L368.389 117.57L368.204 118.865L367.969 119.517L367.924 120.384L367.802 120.751L367.951 121.189L367.812 121.511L367.587 121.835L367.46 122.279L368.648 122.409L369.213 122.701L369.454 123.259L368.517 124.228L368.11 125.346L367.96 126.058L367.748 126.309L367.477 126.531L367.214 126.819L366.744 125.458L366.616 124.747L366.629 124.093L366.718 123.729L366.85 123.368L367.002 123.048L367.16 122.801L367.175 122.54L366.931 122.362L366.608 122.388L366.383 122.73L366.201 122.643L365.678 122.279L365.416 122.178L362.702 122.052L359.92 121.976L359.708 121.892L359.552 121.742L359.391 121.691L358.947 122.099L355.764 123.666L353.407 124.803L353.201 125.071L353.127 125.561L352.946 126.048L352.713 126.484L352.295 127.056L351.676 127.73L351.276 128.047L351.216 128.119L351.027 128.731L350.811 129.014L350.691 129.268L350.634 129.557L350.621 129.947L350.68 130.319L350.828 130.518L351.021 130.676L351.216 130.924L351.34 131.377L351.441 133.453L351.494 133.884Z" fill="white" stroke="#3A3A3A" stroke-width="1.3" stroke-linecap="round" stroke-linejoin="round"/>
</svg>
