<svg width="300" height="330" viewBox="0 0 300 330" fill="none" xmlns="http://www.w3.org/2000/svg">
<g clip-path="url(#clip0_532_132)">
<rect width="300" height="330" rx="15" fill="#12153D"/>
<path d="M39.904 52L36.96 29.6H41.152L43.328 49.056H43.904L46.72 29.6H54.016L56.832 49.056H57.408L59.584 29.6H63.776L60.832 52H53.536L50.656 32.096H50.08L47.2 52H39.904ZM66.99 52V29.6H71.022V38.08H71.598C71.7687 37.7387 72.0353 37.3973 72.398 37.056C72.7607 36.7147 73.2407 36.4373 73.838 36.224C74.4567 35.9893 75.2353 35.872 76.174 35.872C77.4113 35.872 78.4887 36.16 79.406 36.736C80.3447 37.2907 81.07 38.0693 81.582 39.072C82.094 40.0533 82.35 41.2053 82.35 42.528V52H78.318V42.848C78.318 41.6533 78.0193 40.7573 77.422 40.16C76.846 39.5627 76.014 39.264 74.926 39.264C73.6887 39.264 72.7287 39.68 72.046 40.512C71.3633 41.3227 71.022 42.464 71.022 43.936V52H66.99ZM91.6368 52.448C90.5061 52.448 89.4928 52.256 88.5968 51.872C87.7008 51.4667 86.9861 50.8907 86.4528 50.144C85.9408 49.376 85.6848 48.448 85.6848 47.36C85.6848 46.272 85.9408 45.3653 86.4528 44.64C86.9861 43.8933 87.7114 43.3387 88.6288 42.976C89.5674 42.592 90.6341 42.4 91.8288 42.4H96.1808V41.504C96.1808 40.7573 95.9461 40.1493 95.4768 39.68C95.0074 39.1893 94.2608 38.944 93.2368 38.944C92.2341 38.944 91.4874 39.1787 90.9968 39.648C90.5061 40.096 90.1861 40.6827 90.0368 41.408L86.3248 40.16C86.5808 39.3493 86.9861 38.6133 87.5408 37.952C88.1168 37.2693 88.8741 36.7253 89.8128 36.32C90.7728 35.8933 91.9354 35.68 93.3008 35.68C95.3914 35.68 97.0448 36.2027 98.2608 37.248C99.4768 38.2933 100.085 39.808 100.085 41.792V47.712C100.085 48.352 100.383 48.672 100.981 48.672H102.261V52H99.5728C98.7834 52 98.1328 51.808 97.6208 51.424C97.1088 51.04 96.8528 50.528 96.8528 49.888V49.856H96.2448C96.1594 50.112 95.9674 50.4533 95.6688 50.88C95.3701 51.2853 94.9008 51.648 94.2608 51.968C93.6208 52.288 92.7461 52.448 91.6368 52.448ZM92.3408 49.184C93.4714 49.184 94.3888 48.8747 95.0928 48.256C95.8181 47.616 96.1808 46.7733 96.1808 45.728V45.408H92.1168C91.3701 45.408 90.7834 45.568 90.3568 45.888C89.9301 46.208 89.7168 46.656 89.7168 47.232C89.7168 47.808 89.9408 48.2773 90.3888 48.64C90.8368 49.0027 91.4874 49.184 92.3408 49.184ZM110.133 52C109.087 52 108.234 51.68 107.573 51.04C106.933 50.3787 106.613 49.504 106.613 48.416V39.456H102.645V36.128H106.613V31.2H110.645V36.128H114.997V39.456H110.645V47.712C110.645 48.352 110.943 48.672 111.541 48.672H114.613V52H110.133ZM126.771 52V36.128H130.803V52H126.771ZM128.787 34.272C128.062 34.272 127.443 34.0373 126.931 33.568C126.441 33.0987 126.195 32.48 126.195 31.712C126.195 30.944 126.441 30.3253 126.931 29.856C127.443 29.3867 128.062 29.152 128.787 29.152C129.534 29.152 130.153 29.3867 130.643 29.856C131.134 30.3253 131.379 30.944 131.379 31.712C131.379 32.48 131.134 33.0987 130.643 33.568C130.153 34.0373 129.534 34.272 128.787 34.272ZM141.863 52.448C139.794 52.448 138.098 52 136.775 51.104C135.453 50.208 134.653 48.928 134.375 47.264L138.087 46.304C138.237 47.0507 138.482 47.6373 138.823 48.064C139.186 48.4907 139.623 48.8 140.135 48.992C140.669 49.1627 141.245 49.248 141.863 49.248C142.802 49.248 143.495 49.088 143.943 48.768C144.391 48.4267 144.615 48.0107 144.615 47.52C144.615 47.0293 144.402 46.656 143.975 46.4C143.549 46.1227 142.866 45.8987 141.927 45.728L141.031 45.568C139.922 45.3547 138.909 45.0667 137.991 44.704C137.074 44.32 136.338 43.7973 135.783 43.136C135.229 42.4747 134.951 41.6213 134.951 40.576C134.951 38.9973 135.527 37.792 136.679 36.96C137.831 36.1067 139.346 35.68 141.223 35.68C142.994 35.68 144.466 36.0747 145.639 36.864C146.813 37.6533 147.581 38.688 147.943 39.968L144.199 41.12C144.029 40.3093 143.677 39.7333 143.143 39.392C142.631 39.0507 141.991 38.88 141.223 38.88C140.455 38.88 139.869 39.0187 139.463 39.296C139.058 39.552 138.855 39.9147 138.855 40.384C138.855 40.896 139.069 41.28 139.495 41.536C139.922 41.7707 140.498 41.952 141.223 42.08L142.119 42.24C143.314 42.4533 144.391 42.7413 145.351 43.104C146.333 43.4453 147.101 43.9467 147.655 44.608C148.231 45.248 148.519 46.1227 148.519 47.232C148.519 48.896 147.911 50.1867 146.695 51.104C145.501 52 143.89 52.448 141.863 52.448ZM160.178 52V36.128H164.21V52H160.178ZM162.194 34.272C161.468 34.272 160.85 34.0373 160.338 33.568C159.847 33.0987 159.602 32.48 159.602 31.712C159.602 30.944 159.847 30.3253 160.338 29.856C160.85 29.3867 161.468 29.152 162.194 29.152C162.94 29.152 163.559 29.3867 164.05 29.856C164.54 30.3253 164.786 30.944 164.786 31.712C164.786 32.48 164.54 33.0987 164.05 33.568C163.559 34.0373 162.94 34.272 162.194 34.272ZM174.758 52C173.712 52 172.859 51.68 172.198 51.04C171.558 50.3787 171.238 49.504 171.238 48.416V39.456H167.27V36.128H171.238V31.2H175.27V36.128H179.622V39.456H175.27V47.712C175.27 48.352 175.568 48.672 176.166 48.672H179.238V52H174.758ZM187.719 44.64V43.872C187.719 42.784 187.933 41.888 188.359 41.184C188.807 40.48 189.522 39.8933 190.503 39.424L191.047 39.168C192.007 38.72 192.743 38.24 193.255 37.728C193.767 37.216 194.023 36.5333 194.023 35.68C194.023 35.0613 193.863 34.5387 193.543 34.112C193.245 33.664 192.818 33.3227 192.263 33.088C191.709 32.8533 191.058 32.736 190.311 32.736C189.543 32.736 188.85 32.864 188.231 33.12C187.634 33.376 187.154 33.76 186.791 34.272C186.45 34.784 186.279 35.424 186.279 36.192V36.896H182.119V36.256C182.119 34.784 182.482 33.5147 183.207 32.448C183.933 31.3813 184.914 30.5707 186.151 30.016C187.389 29.44 188.775 29.152 190.311 29.152C191.826 29.152 193.17 29.4293 194.343 29.984C195.538 30.5387 196.477 31.3067 197.159 32.288C197.842 33.2693 198.183 34.4 198.183 35.68C198.183 36.96 197.949 38.016 197.479 38.848C197.01 39.6587 196.413 40.32 195.687 40.832C194.983 41.3227 194.258 41.7493 193.511 42.112L192.967 42.368C192.583 42.5387 192.317 42.752 192.167 43.008C192.018 43.2427 191.943 43.5947 191.943 44.064V44.64H187.719ZM189.959 52.448C189.106 52.448 188.381 52.1707 187.783 51.616C187.207 51.04 186.919 50.304 186.919 49.408C186.919 48.512 187.207 47.7867 187.783 47.232C188.381 46.656 189.106 46.368 189.959 46.368C190.834 46.368 191.559 46.656 192.135 47.232C192.711 47.7867 192.999 48.512 192.999 49.408C192.999 50.304 192.711 51.04 192.135 51.616C191.559 52.1707 190.834 52.448 189.959 52.448Z" fill="#E4E4E4"/>
<rect x="36.5" y="71.5" width="229" height="226" rx="15.5" fill="#12153D" stroke="#E4E4E4"/>
<path d="M71 90L95.5 111.5L130.5 90L127.5 123.5L158.5 115.5L183.5 86.5L177.5 154.5L245 93L248 154.5L214.5 129L205 172.5L241.5 250.5L227 199L208 245.5L82.5 189L122.5 192.5L155.5 181.5L144 146.5L111 225L127.5 281.5L183.5 213.5L92 159L53 217.5L60.5 268.5L205 281.5L163.5 250.5L140 228L53.5 121L64 154.5L101 132" stroke="#E4E4E4"/>
<ellipse cx="70.5" cy="89" rx="3.5" ry="4" fill="#E5590F"/>
<circle cx="95.5" cy="110.5" r="3.5" fill="#E5590F"/>
<ellipse cx="131" cy="89.5" rx="5" ry="3.5" fill="#E5590F"/>
<ellipse cx="127" cy="124.5" rx="5" ry="3.5" fill="#E5590F"/>
<circle cx="52.5" cy="121.5" r="3.5" fill="#E5590F"/>
<ellipse cx="63.5" cy="155.5" rx="3.5" ry="4.5" fill="#E5590F"/>
<ellipse cx="100.5" cy="132.5" rx="3.5" ry="4.5" fill="#E5590F"/>
<circle cx="122.5" cy="191.5" r="3.5" fill="#E5590F"/>
<circle cx="83.5" cy="188.5" r="3.5" fill="#E5590F"/>
<circle cx="52.5" cy="215.5" r="3.5" fill="#E5590F"/>
<ellipse cx="109.5" cy="224" rx="4.5" ry="4" fill="#E5590F"/>
<circle cx="59.5" cy="266.5" r="3.5" fill="#E5590F"/>
<circle cx="125.5" cy="281.5" r="3.5" fill="#E5590F"/>
<circle cx="139.5" cy="226.5" r="3.5" fill="#E5590F"/>
<ellipse cx="92.5" cy="158" rx="3.5" ry="4" fill="#E5590F"/>
<circle cx="159.5" cy="113.5" r="3.5" fill="#E5590F"/>
<circle cx="184.5" cy="86.5" r="3.5" fill="#E5590F"/>
<circle cx="143.5" cy="146.5" r="3.5" fill="#E5590F"/>
<ellipse cx="155.5" cy="181" rx="4.5" ry="4" fill="#E5590F"/>
<ellipse cx="177" cy="156.5" rx="4" ry="5.5" fill="#E5590F"/>
<circle cx="213.5" cy="127.5" r="3.5" fill="#E5590F"/>
<circle cx="226.5" cy="199.5" r="3.5" fill="#E5590F"/>
<circle cx="180.5" cy="212.5" r="3.5" fill="#E5590F"/>
<circle cx="203.5" cy="173.5" r="3.5" fill="#E5590F"/>
<ellipse cx="244.5" cy="94.5" rx="3.5" ry="5.5" fill="#E5590F"/>
<circle cx="247.5" cy="154.5" r="3.5" fill="#E5590F"/>
<circle cx="241.5" cy="249.5" r="3.5" fill="#E5590F"/>
<circle cx="203.5" cy="281.5" r="3.5" fill="#E5590F"/>
<ellipse cx="206.5" cy="245" rx="3.5" ry="5" fill="#E5590F"/>
<circle cx="163.5" cy="246.5" r="3.5" fill="#E5590F"/>
</g>
<defs>
<clipPath id="clip0_532_132">
<rect width="300" height="330" fill="white"/>
</clipPath>
</defs>
</svg>
