<svg width="305" height="353" viewBox="0 0 305 353" fill="none" xmlns="http://www.w3.org/2000/svg">
<path d="M50.87 41.533L50.9393 41.7855L51.031 41.8938L51.2783 42.0826L51.543 42.5033L52.2712 43.0825L52.6476 43.5111L52.8031 43.6202L52.9371 43.6569L53.2274 43.676L53.3709 43.7174L54.4443 44.3739L56.2611 45.8796L56.411 46.0795L56.8512 47.0363L57.2316 47.641L57.3839 47.9764L57.3624 48.2042L57.2388 48.464L57.3712 48.6743L57.6328 48.8344L57.9031 48.9404L57.9294 49.3467L57.9573 49.4478L58.0458 49.5394L58.3003 49.6709L58.392 49.7657L58.4223 49.9115L58.3696 50.0063L58.3074 50.0931L58.309 50.2102L58.3673 50.3194L58.514 50.5201L58.5722 50.642L58.6655 51.1256L58.7556 51.2977L58.9885 51.4507L59.4 51.6371L59.4782 51.7805L59.5244 52.0856L59.7366 52.0569L59.7278 52.1868L59.6512 52.3796L59.6616 52.5389L59.8012 52.6034L59.9288 52.5501L60.0524 52.4712L60.18 52.4664L60.3634 52.6289L59.9463 52.8926L59.8546 53.1388L59.8283 53.573L60.4591 54.1378L60.5723 54.5497L60.4854 54.7026L60.1776 54.8931L60.1018 55.0038L60.1457 55.1727L60.2908 55.2261L60.4551 55.2515L60.5644 55.3448L60.5731 55.5168L60.4511 55.8538L60.4527 56.0148L60.5676 56.1741L60.9264 56.3549L61.0716 56.476L61.2095 56.7533L61.5062 57.7881L61.3563 58.0885L61.3475 58.2319L61.5381 58.1658L61.6777 58.0933L61.759 58.1012L61.9161 58.2837L61.9193 58.3418L62.2981 59.2707L62.4201 60.6235L62.3882 61.7476L62.4361 62.0415L62.9632 62.9808L62.9138 63.223L62.3061 64.085L62.0461 64.6905L61.7239 65.2489L60.9121 66.279L60.4966 67.0597L60.302 67.3107L59.8865 67.6206L59.8251 67.8118L59.6433 68.6515L59.601 69.1056L59.6433 69.5063L59.7302 69.6975L59.9583 70.0249L60.0237 70.252L60.0005 70.6137L59.6943 71.6788L59.6983 72.1512L59.7748 72.7328L59.9176 73.3016L60.1122 73.7358L60.1991 73.8545L60.2789 73.9358L60.491 74.084L60.629 74.256L60.7725 74.7555L60.8435 74.9133L60.8826 74.8695L61.1832 74.6496L62.09 74.225L62.7455 73.7645L63.1092 73.5709L63.8939 73.4681L64.4912 73.7199L65.0567 74.0744L66.9141 74.4958L67.3503 74.4831L68.5752 74.1286L68.7754 74.1254L69.1694 74.1756L69.3672 74.1676L70.5475 73.8458L71.191 73.8242L71.5124 73.8832L72.2039 74.1987L73.4025 74.2297L74.2383 74.456L74.5366 74.4608L74.8548 74.3373L75.6515 73.7908L75.9115 73.539L76.067 73.261L76.1252 72.9734L76.1108 72.6691L75.984 71.964L76.0016 71.7187L76.169 71.5529L76.5439 71.4183L76.9873 71.3386L78.3518 71.3291L79.2394 71.1148L80.0648 70.6017L80.7738 69.8839L81.3089 69.0562L81.7611 67.8126L82.0299 67.2501L82.5969 66.6654L82.7452 66.3547L82.8712 66.2607L83.5164 66.146L83.7357 66.0711L84.0747 65.891L84.8084 65.1788L85.2837 64.4682L85.5931 64.2109L86.0389 64.128L86.6769 64.2674L86.9177 64.1686L87.1809 63.7576L87.4122 63.2158L87.5709 63.0071L87.8468 62.8095L87.9832 62.6677L88.0167 62.6327L88.6037 61.7277L88.6156 61.5468L88.563 61.3899L88.5558 61.2512L88.7057 61.1254L89.1053 60.9756L89.2433 60.8752L89.3685 60.6784L89.437 60.4171L89.4793 60.0491L89.4737 59.7001L89.4012 59.5034L89.2209 59.2221L89.3709 58.9608L89.6532 58.7139L89.8669 58.4781L90.0184 58.2151L89.9993 58.1188L89.9124 57.8949L89.8135 57.7403L89.7305 57.7101L89.6771 57.6599L89.6667 57.444L89.7513 57.1054L89.9387 56.7859L90.5663 56.0434L90.6477 55.8905L90.6844 55.7296L90.7147 55.5073L90.6931 55.3384L90.6397 55.203L90.6572 55.0787L90.8478 54.9305L90.9746 54.7791L90.9092 54.615L90.7753 54.4493L90.6939 54.2963L90.7027 54.1641L90.7418 54.0366L90.8526 53.7968L91.1333 52.8337L91.2275 52.6807L91.5847 52.5357L91.737 52.3525L91.9627 51.7478L92.0792 51.5566L92.1996 51.4236L92.3463 51.3272L92.5409 51.2403L92.7012 51.1376L92.7594 51.0173L92.7913 50.8842L92.8687 50.7464L93.4166 50.1863L93.7491 50.0095L94.0849 50.0573L94.1782 50.184L94.2396 50.3417L94.3265 50.4222L94.498 50.3242L94.632 50.2118L95.6887 49.7075L96.357 49.5084L97.0548 49.459L97.8236 49.6048L98.4639 49.8517L98.6817 49.9027L98.9313 49.8836L99.3922 49.7115L99.5741 49.6781L99.7759 49.741L99.901 49.8661L100.116 50.1967L100.301 50.3943L100.442 50.4986L100.853 50.6898L101.208 50.9081L102.693 52.0792L102.799 52.2338L102.975 52.417L103.761 52.66L103.893 52.7787L104.037 53.1037L104.131 53.2424L104.262 53.3228L104.546 53.416L104.672 53.4949L105.205 54.2031L105.842 54.6668L106.054 54.9727L106.321 55.14L107.047 54.9584L107.21 54.9887L107.354 55.0787L107.5 55.2014L107.513 55.3288L107.437 55.4627L107.458 55.5368L107.759 55.4913L109.219 55.0938L109.958 55.089L110.58 55.4483L111.55 56.6099L112.143 57.0512L112.85 57.1707L113.237 57.0711L113.519 56.95L113.8 56.915L114.42 57.146L115.487 57.5436L116.231 58.0542L116.727 58.1674L117.753 58.051L118.214 58.1562L118.606 58.2598L119.032 58.2096L119.87 57.9857L120.15 57.8678L120.986 57.2249L121.624 56.9158L122.165 56.8353L122.707 56.9253L123.349 57.1269L123.938 57.2321L126.872 56.9246L127.883 56.4203L129.694 54.9918L129.998 54.0534L130.616 52.5604L130.767 52.1979L131.216 50.1768L132.445 47.4044L132.755 46.3719L133.181 45.6206L133.207 45.0439L133.617 44.099L133.765 43.6011L133.772 42.9773L133.627 41.8468L133.647 41.4676L133.727 41.3943L133.835 41.3752L134.298 41.2151L135.02 41.2422L135.232 41.1306L135.688 40.7936L137.829 40.1181L139.416 39.6178L140.076 39.5238L140.341 39.5492L140.608 39.6114L140.862 39.6337L141.177 39.6839L141.182 39.6847L142.098 38.7367L142.2 38.5598L142.612 37.462L142.965 36.9967L143.347 36.6812L144.263 36.0837L145.115 35.1899L145.24 34.9605L145.536 34.7963L146.777 34.3916L147.072 34.2243L147.296 34.0204L147.445 33.7511L147.715 32.4L147.743 31.714L148.731 27.6311L148.785 27.2168L148.688 26.9046L149.088 26.1724L149.06 26.0489L149.025 25.9L149.096 25.6132L149.369 25.1264L149.617 24.4954L149.753 24.3831L149.9 24.4452L149.978 24.6325L150.087 24.8006L150.328 24.8117L150.543 24.6532L150.534 24.4333L150.446 24.1656L150.423 23.8613L150.52 23.9059L150.616 23.9664L150.66 23.8254L150.741 23.7338L150.999 23.5466H150.905L151.017 23.361L151.152 23.2471L151.307 23.2295L151.48 23.3371L151.542 23.1546L151.466 23.0567L151.349 22.9555L151.289 22.7675L151.349 22.6456L151.493 22.6201L151.654 22.683L151.767 22.824L151.829 22.7197L151.933 22.593L151.968 22.5014L152.07 22.6233L152.182 22.6806L152.309 22.6774L152.45 22.6161L152.251 22.3213L152.405 22.1405L152.928 21.9772L153.468 21.7047L153.714 21.5231L153.945 21.2984L154.276 20.7686L154.479 20.6013L154.637 21.0761L154.779 20.9925L154.913 20.814L154.954 20.7256L155.124 20.642L155.33 20.5695L155.442 20.5997L155.339 20.8212L155.537 20.9272L155.675 20.834L155.79 20.6587L155.924 20.5081L156.107 20.434L156.691 20.4133L156.995 20.3217L157.277 20.1337L157.485 19.8588L157.564 19.5155L157.542 19.4143L157.502 19.2924L157.48 19.1912L157.516 19.1498L157.569 19.1243L157.618 19.0582L157.648 18.9713L157.66 18.8845L157.721 18.6503L157.986 18.3563L158.11 17.9301L158.267 17.9349L158.467 18.0329L158.659 18.0958L158.823 18.0329L159.381 17.5748L159.765 18.0058L159.954 18.0958L160.157 17.9914L160.238 17.8496L160.446 17.2625L160.467 17.2545L160.573 17.1693L160.592 17.1486L160.658 17.1215L160.631 17.0601L160.569 16.994L160.541 16.9494L160.513 16.8753L160.45 16.7694L160.41 16.6507L160.445 16.5304L160.596 16.559L160.899 16.5798L161.121 16.4977L161.029 16.2181L161.565 16.0794L162.152 15.8333L162.637 15.4907L162.862 15.0629L162.747 14.416L162.742 14.0679L162.906 13.9165L163.176 13.8727L163.471 13.7619L163.737 13.6249L163.928 13.5006L164.147 13.2688L164.32 12.9629L164.38 12.6243L164.259 12.2985L164.284 12.1328L164.546 12.0101L164.869 11.9153L165.078 11.8252L165.135 11.732L165.212 11.4994L165.272 11.4094L165.387 11.3496L165.528 11.3162L165.672 11.2612L165.799 11.1433L165.905 10.9449L165.909 10.8238L165.866 10.7059L165.838 10.5203L165.866 10.3235L165.936 10.1785L166.38 9.6153L166.511 9.52846L166.663 9.48624L167.005 9.45198L167.144 9.37152L167.653 8.76605L167.864 8.58361L168.381 8.29124L168.919 8.14465L170.079 8.06259L170.966 8.29363L171.192 8.22431L171.492 7.96221L171.741 7.9168L172.017 7.95743L172.391 7.95903L172.886 7.79412L173.903 7.21574L174.513 7.02533L174.822 6.97674L175.105 6.89627L175.306 6.73455L175.384 6.44377L175.522 6.243L175.843 6.22707L176.45 6.29957L176.701 6.10518L177.025 5.49573L177.164 5.36508L177.228 5.18583L177.12 4.11989L177.45 3.69128L177.717 3.40926L177.932 3.28259L177.929 3.21169L178.223 2.81017L178.35 2.7552L180.052 2.6596L180.302 2.564L180.529 2.36324L180.8 2.17682L181.168 2.133L181.937 2.29951L182.339 2.33854L182.6 2.24613L182.697 2.31066L182.785 2.33137L182.993 2.34093L183.295 2.17762L183.798 1.88444L184.09 1.81832L184.793 1.9896L185.143 2.02545L185.293 1.87488L185.413 1.62393L185.682 1.56259L186.157 1.60959L186.679 1.3698L186.967 1.32837L187.223 1.50842L187.389 1.44389L188.337 1.39529L188.624 1.47814L189.44 2.02545L189.92 2.12902L190.266 2.31225L190.773 2.35766L190.978 2.41741L191.362 2.65562L191.5 2.71218L191.802 2.78149L191.945 2.85399L192.212 3.14397L192.232 3.21169L192.264 3.26029L192.682 3.31048L192.889 3.39811L193.29 3.69287L193.627 3.86416L193.874 3.88328L194.498 3.79724L194.846 3.82433L195.109 3.90399L195.318 4.03385L195.516 4.21071L195.958 4.523L196.438 4.64091L196.96 4.62179L197.531 4.52141L197.798 4.43537L198.325 4.19079L198.596 4.1175L198.861 4.10794L199.772 4.21469L200.179 4.21151L200.308 4.24576L200.522 4.39633L200.619 4.4274L200.829 4.36287L201.207 4.09121L201.483 4.00358L203.049 3.8777L203.507 3.69287L203.918 3.80441L204.764 3.89682L206.295 4.25931L206.776 4.47281L207.019 4.52141L207.151 4.49193L207.257 4.46803L207.723 4.24178L207.932 4.21071L208.084 4.30472L208.369 4.65286L208.468 4.73014L208.569 4.75961L208.789 4.90062L208.902 4.94603L209.015 4.93169L209.241 4.8345L209.381 4.84087L209.521 4.95559L209.849 5.43917L209.711 5.71242L210.333 7.65072L211.058 9.91325L211.782 12.1758L212.361 13.9882L213.328 17.0108L213.414 17.4736L213.119 20.9646L213.205 21.5956L213.467 22.1397L214.818 23.6024L215.095 24.1569L215.638 26.0752L216.208 27.4216L216.405 27.7434L216.67 27.9944L217.579 28.666L217.744 28.8628L217.82 29.1073L217.83 29.3591L217.922 31.7961L218.012 32.4486L218.811 34.1877L219.304 35.26L219.658 36.4438L219.734 37.6365L219.619 38.6976L219.631 40.8502L219.645 43.4561L219.654 45.3052L219.667 47.7716L219.688 51.1455L219.448 51.9056L219.391 52.2991L219.374 52.8106L219.426 53.2965L219.573 53.6184L219.655 53.9434L219.785 54.9201L219.787 55.2579L219.729 55.4659L219.633 55.5607L219.497 55.6443L219.316 55.818L219.206 56.0068L218.609 57.5714L218.524 58.0032L218.582 58.4709L219.134 60.2682L218.327 60.6705L217.926 60.7661L217.521 60.6434L216.29 59.8419L216.059 59.6922L214.768 58.8533L213.278 57.8869L211.789 56.9214L211.431 56.8019L211.018 56.8082L210.531 56.9373L210.135 57.1357L208.718 58.4032L207.473 59.5177L207.29 59.8435L207.075 60.6673L206.319 62.4877L205.364 64.1941L204.344 65.4871L203.04 67.1442L202.735 68.3193L202.753 69.9907L202.775 72.16L202.915 73.2395L203.01 73.6067L203.254 73.5924L203.488 73.547L203.726 73.414L203.942 73.2299L204.103 73.03L204.175 73.2411L204.418 73.9605L204.604 74.2449L205.007 74.6727L205.157 74.9053L205.24 75.2176L205.222 75.6104L205.077 76.2294L205.137 76.6221L205.452 77.1694L206.895 78.4816L207.567 79.4981L207.784 79.7172L207.996 79.8606L209.229 80.2876L209.727 80.4597L210.803 80.8317L212.248 81.3312L213.191 81.524L214.743 81.5455L216.79 81.5734L218.141 81.5933L219.402 81.6101L219.394 81.4013L219.354 81.2213L219.283 81.0532L219.187 80.8819L219.109 80.6501L219.073 79.4798L219.064 79.1794L219.035 78.2059L219.282 76.7568L219.501 75.4622L219.74 74.0704L219.709 73.5988L220.652 73.6036L220.877 73.6474L221.223 73.9955L221.45 74.0983L221.862 74.1875L222.577 74.1031L222.984 74.119L224.008 74.2863L224.801 74.4162L226.441 74.3708L228.258 74.3174L230.231 74.2584L232.405 74.1931L232.229 74.8352L232.013 76.8906L231.756 77.8944L231.722 78.237L231.649 78.5668L231.148 79.271L231.111 79.4073L231.052 79.8638L231.021 79.9984L230.89 80.2414L230.828 80.6565L229.359 84.8437L228.385 89.4907L228.364 89.846L228.337 90.0085L228.205 90.3845L228.164 90.555L228.161 90.7486L228.24 91.0474L228.259 91.2171L227.588 95.1813L227.495 95.4768L226.314 97.3363L226.235 97.5912L226.18 97.9577L226.023 98.2931L225.781 98.5376L225.466 98.6324L225.518 98.787L225.57 98.8308L225.641 98.8045L225.755 98.7408L225.868 99.2945L225.713 99.8872L225.481 100.466L225.36 100.987L225.181 101.267L223.968 102.517L223.784 102.663L223.332 102.884L223.152 103.007L223.016 103.184L222.754 103.643L222.569 103.882L221.024 105.215L220.638 104.894L220.083 104.982L219.761 105.324L220.072 105.762L220.185 105.623L220.371 105.459L220.597 105.336L220.832 105.313L220.564 105.83L220.016 106.289L218.276 107.224L217.766 107.33L217.227 107.311L216.598 107.185L216.617 107.322L216.644 107.415L216.697 107.478L216.791 107.525V107.624L216.361 107.891L213.624 111.035L212.96 111.632L212.739 111.739L212.654 111.804L212.62 111.902L212.565 112.185L212.51 112.243L212.329 112.371L211.79 113.133L211.587 113.309L211.108 113.611L210.917 113.783L210.848 113.942L210.772 114.279L210.596 114.387L210.482 114.489L210.376 114.614L210.265 114.902L208.413 117.455L206.566 121.165L206.422 121.808L206.57 122.435L206.007 122.433L205.87 122.564L205.802 122.99L206.015 122.873L206.494 122.71L206.675 122.536V122.658L206.65 122.771L206.604 122.884L206.481 123.089L206.118 123.53L204.658 124.871L204.247 125.383L203.57 126.572L202.782 128.427L200.745 132.041L200.461 132.702L200.408 132.95L200.294 133.181L199.631 133.905L197.241 138.368L196.843 138.943L196.619 139.177L196.417 139.27L196.228 139.435L195.784 140.398L194.48 142.148L193.459 143.521L193.061 143.801L192.606 144.787L191.864 145.667L189.814 147.629L189.562 147.762L188.695 148.011L188.374 148.163L188.097 148.385L187.981 148.672L187.118 149.74L186.809 149.873L186.683 149.964L186.588 150.28L186.49 150.409L186.38 150.504L186.304 150.539L185.989 150.62L185.736 150.824L185.285 151.327L185.061 151.46L184.508 151.666L184.144 151.928L184.023 151.956L183.891 151.968L183.741 152.013L183.673 152.021L183.517 151.997L183.454 152.013L183.367 152.123L183.387 152.209L183.439 152.282L183.453 152.352L183.174 152.971L182.761 153.206L182.683 153.306L182.626 153.712L182.473 153.93L182.012 154.268L181.555 154.774L181.337 155.087L181.243 155.352L181.206 155.51L180.956 155.965L180.805 156.054L180.764 156.087L180.74 156.152L180.694 156.354L180.668 156.415L179.74 156.846L179.604 157.048L179.546 157.32L179.405 157.628L179.019 158.235L177.29 160.11L175.842 162.108L175.094 162.575L174.971 162.737L173.083 164.495L172.761 164.969L172.643 165.076L172.411 165.19L172.284 165.287L171.765 165.836L171.517 166.183L171.41 166.491L171.32 166.69L169.758 167.917L169.398 168.111L168.941 168.501L168.714 168.62L168.669 168.884L168.343 169.142L167.649 169.521L166.988 170.003L166.57 170.232L165.793 170.463L165.436 170.803L165.164 171.266L165.058 171.762L164.928 172.119L164.622 172.467L163.183 173.676L162.757 173.831L162.631 173.962L162.447 174.233L162.255 174.348L162.232 174.409L162.229 174.495L162.215 174.587L162.159 174.671L161.486 174.982L161.213 175.296L161.056 175.369L160.784 175.413L160.088 175.673L159.847 175.825L158.589 177.164L158.12 177.553L157.127 177.935L156.967 178.076L156.903 178.101L156.576 178.588L156.469 178.649L156.361 178.682L156.243 178.666L156.093 178.587L155.992 179.016L155.656 179.383L154.892 179.998L154.549 180.204H154.492L154.432 180.163L154.386 180.117L154.359 180.1L154.311 180.151L154.254 180.33L152.756 181.37L152.622 181.534L151.558 182.052L151.338 182.227L151.231 182.344L151.183 182.459L151.156 182.587L151.077 182.721L150.965 182.826L150.837 182.867L150.548 182.919L149.329 183.583L149.058 183.651L148.719 183.673L148.408 183.772L147.62 184.468L147.336 184.546L146.658 184.628L146.19 184.911L144.842 185.495L144.673 185.515L144.563 185.587L144.47 185.902L144.381 185.976L144.075 186.023L142.73 186.705L142.181 186.856L141.601 186.886L140.406 186.709L140.034 186.724L139.764 186.847L139.517 186.891L139.188 186.749L138.659 186.436L136.788 186.059L134.858 185.954L133.623 186.14L132.47 186.507L131.425 187.024L130.975 187.379L130.61 187.844L130.342 188.393L130.111 189.342L130.074 189.741L130.137 189.926L130.412 190.06L130.475 190.208L130.543 190.312L130.948 190.614L131.209 191.043L131.332 191.193L131.311 191.325L131.285 191.38L131.236 191.435L130.793 191.293L130.488 191.393L130.205 191.572L129.839 191.665L129.4 191.614L128.655 191.376L128.251 191.309L127.55 191.4L127.2 191.401L126.821 191.175L126.321 191.086L125.841 190.73L125.33 190.522L124.137 190.201L122.85 190.173L121.59 190.35L120.766 190.589L120.431 190.771L120.21 191.033L120.408 191.728L120.252 192.067L120.012 192.359L119.864 192.474L119.195 193.087L119.098 193.343L119.155 193.549L119.287 193.66L119.421 193.742L119.48 193.864L119.433 194.011L119.193 194.199L119.098 194.329H119.002L118.825 194.075L118.53 193.974L117.569 193.949L116.794 193.738L116.471 193.694L115.582 193.865L115.314 193.842L114.098 193.517L113.49 193.197L112.997 192.75L112.726 192.645L111.014 192.438L110.769 192.301L110.575 192.161L109.664 191.769L107.15 191.537L106.846 191.466L106.241 191.239L104.743 191.085L102.247 190.496L101.587 190.522L99.3237 191.051L99.0214 191.187L98.7511 191.368L98.5254 191.6L98.389 191.97L98.4839 192.308L98.7319 192.54L99.0525 192.589V192.705L94.1942 192.242L94.1184 192.132L94.0346 191.646L93.9995 191.536L93.5761 191.502L93.4022 191.433L93.2834 191.305L93.3336 191.56L93.4381 191.66L93.5745 191.714L93.7165 191.83L93.856 192.066L93.8584 192.19L93.7643 192.297L93.6798 192.211L93.4828 192.15L93.0936 192.114L92.9126 192.156L92.7778 192.216L92.6287 192.26L92.4109 192.239L91.2881 191.889L90.8383 191.608L90.6572 191.55L90.4993 191.445L90.3853 191.192L90.3542 191.034L90.3646 190.915L90.4586 190.851L90.674 190.855L90.4523 190.664L90.1413 190.564L89.5208 190.498L89.6532 190.753L89.8398 191.004L90.0607 191.205L90.2896 191.309L90.0312 191.4L89.6907 191.332L88.1068 190.771L87.8253 190.73L87.4569 190.742L87.1801 190.796L86.9513 190.904L86.2223 191.508L85.6537 191.81L85.0221 191.955L83.7086 191.807L83.1193 191.821L81.9111 192.119L81.6295 192.253L81.3999 192.43L80.9876 192.886L80.8113 193.242L80.8727 193.519L81.0761 193.72L81.3265 193.867L81.1343 194.032L80.8536 194.132L79.0249 194.407L78.5033 194.638L78.1484 195.028L78.1062 195.304L78.178 195.86L78.044 196.05L77.7656 196.547L77.6835 196.607L76.8525 197.1L76.2783 197.316L75.6786 197.437L75.0677 197.474L73.5851 197.17L73.0588 196.843L72.7478 196.766L72.4423 196.822L71.8554 197.07L71.3609 197.164L71.2612 197.258L71.1998 197.372L71.1241 197.475L71.0316 197.55L70.0953 197.962L69.49 198.054L68.8791 198.003L66.5727 197.139L66.0097 197.013L64.6444 196.889L63.9713 196.963L63.4106 197.243H63.5135L62.7104 197.472L62.4496 197.603L62.8293 197.667L63.1658 197.924L63.3349 198.282L63.2185 198.636L62.9545 198.743L60.4695 198.29L58.5028 198.56L57.9159 198.836L57.4286 199.225L56.6582 200.273L56.395 200.528L56.1271 200.636L55.9253 200.681L55.8288 200.791L55.7523 200.941L55.6079 201.102L55.4875 201.166L55.0313 201.347L54.8048 201.505L54.5496 201.744L54.3415 202.03L54.2553 202.325L54.1046 202.273L53.7617 202.365L53.1907 202.617L52.1491 203.381L51.7536 203.918L51.9426 204.377V204.484L51.7161 204.547L51.3485 204.783L51.1188 204.835L50.8979 204.803L50.6786 204.72L50.4752 204.608L49.59 203.941L49.3866 203.731L49.1394 203.599L46.8856 203.667L46.6823 203.717L46.4486 203.953L46.254 204.016L46.1033 203.981L46.0092 203.875L45.9438 203.756L45.8784 203.667L45.1694 203.227L44.096 202.139L43.3766 201.726L43.1581 201.554L42.9388 201.281L42.6765 201.073L42.3399 201.03L42.0026 201.126L41.7346 201.345L41.6118 201.255L41.4882 201.229L41.3654 201.259L41.2441 201.345L41.2968 201.155L42.1334 199.996L42.2027 199.81L42.1341 199.344L41.9124 198.799L41.6237 198.291L41.3494 197.938L41.1524 197.788L40.9738 197.743L39.9913 197.948L39.13 197.888L38.9409 197.832L38.7479 197.642L38.492 197.162L38.2687 197.01V196.893L38.6315 196.827L38.7982 196.578L38.8923 196.222L39.0374 195.835L38.7934 195.976L38.4617 196.536L38.3125 196.658L37.2383 196.587L37.0581 196.602L36.6529 196.754L35.2844 196.987L34.9893 197.183L34.9335 197.322L34.7971 197.361L34.6392 197.325L34.5076 197.242L34.3761 197.034L34.392 196.868L34.5076 196.66L34.4127 196.099L34.4048 195.965L34.4526 195.777L34.518 195.697L34.6002 195.635L34.7006 195.49L34.8171 195.157L34.7963 194.909L34.5946 194.331L34.5754 193.981L34.6998 193.826L34.892 193.687L35.0763 193.393L34.4861 192.489L34.2596 192.361L33.4254 192.156L32.1112 192.03L30.8144 192.094L30.6071 192.183L30.4866 192.265L29.9786 192.477L29.7362 192.655L29.6198 192.776L29.489 192.95L29.2816 193.168L29.2202 193.288L29.2011 193.519L29.2354 193.694L29.3064 193.786L29.3989 193.86L29.489 193.971L29.6812 194.679L29.7019 194.844L29.7107 194.999L29.5847 196.125L29.6421 196.472L29.8821 196.658L29.619 196.739L29.2689 196.553L28.9347 196.246L28.7218 195.964L28.3828 195.289L28.3374 195.086L28.3533 194.979L28.4171 194.745L28.4331 194.612L28.406 194.55L28.3462 194.511L28.2784 194.479L28.2409 194.445L28.1061 193.999L27.9921 193.815L27.5861 193.676L27.4569 193.511L27.4227 193.293L27.4665 193.054L27.5694 192.92L27.7002 192.873L27.8102 192.785L27.8581 192.532L27.8653 192.301L27.8932 192.12L27.953 191.952L28.0511 191.769L27.8453 191.799L27.7632 191.828L27.6579 191.894L27.4578 191.579L27.4386 191.333L27.555 191.11L27.7632 190.854L27.9586 190.539L28.1093 189.934L28.2433 189.572L28.6995 189.203L29.241 189.217L29.6955 189.145L29.8845 188.521L29.8231 188.199L29.552 187.76L29.4914 187.54L29.4571 187.207L29.0831 185.713L28.7146 184.974L28.6365 184.645L28.5081 184.578L27.8581 183.785L27.6268 183.633L27.5144 183.532L27.4665 183.382V182.686L27.4298 182.337L27.3325 182.046L26.9856 181.473L26.5837 181.037L25.0653 179.97L25.204 179.687L25.1219 179.355L24.7686 178.696L24.5852 178.251L24.2446 177.786L24.2024 177.608L24.0684 177.39L23.4232 176.765L23.1855 176.636L22.8945 176.519L22.6991 176.249L22.5428 175.941L22.3777 175.709L22.7373 175.529L22.9455 175.477L23.0946 175.537L23.2047 175.729L23.2828 175.911L23.3785 176.069L23.5388 176.178L23.4758 176.362L23.5779 176.499L23.9639 176.809L24.2239 177.175L24.4065 177.369L24.5876 177.437L24.8053 177.309L24.7478 177.12L24.4448 176.809L24.3706 176.667L24.3419 176.384L24.3004 176.271L24.239 176.23L24.0811 176.213L24.0125 176.178L23.7039 175.867L23.5883 175.703L23.5404 175.536L23.5843 174.812L23.5404 174.565L23.3403 174.239L23.0069 174.074L22.5994 174.039L22.1799 174.107L22.3067 174.372L22.3801 174.46L22.2086 174.501L22.0619 174.574L21.7875 174.793L21.6344 174.615L21.5499 174.441L21.5156 174.286L21.5076 174.168L21.4542 174.024L21.3569 173.874L21.3074 173.689L21.4047 173.43L21.3369 173.298L21.1655 172.814L21.0809 172.444L21.0698 172.307L21.1176 172.166L21.2604 171.986L21.3417 171.782L21.2636 171.586L20.939 171.148L20.8608 171.104L20.8074 171.041L20.8202 170.896L20.8752 170.875L20.9781 170.896L21.0722 170.904L21.1168 170.838L21.1615 170.787L21.3776 170.595L21.4566 170.552L21.5706 170.529L21.5961 170.471L21.6009 170.383L21.6488 170.267L21.6591 170.136L21.6464 169.621L21.6918 169.411L21.8848 169.257L22.2182 169.118L22.5571 169.039L22.7653 169.06L22.6616 169.184L22.8267 169.431L23.542 170.095L24.1481 170.338L24.6856 170.199L25.1538 169.835L26.8548 168.105L27.1818 167.455L27.3844 166.86L27.7129 165.501L27.7656 164.84L27.6994 163.683L27.618 163.419L27.4498 163.045L27.5287 162.774L27.8613 162.332L27.9267 161.661L27.3828 159.489L27.2249 157.718L26.9753 156.999L26.8931 156.639L26.9274 155.916L26.9067 155.567L26.7488 155.231L26.5725 155L26.4122 154.72L26.3277 154.499L26.3165 154.351L26.3301 154.22L26.3165 154.044L26.0191 152.89L25.7814 152.341L25.4449 151.778L24.7893 150.936L24.6848 150.703L24.6553 150.579L24.0133 149.637L23.3418 148.928L23.2366 148.673L23.1473 148.372L22.9319 148.121L22.4686 147.706L21.9207 146.847L21.5204 146.532L21.3808 146.125L21.2125 145.349L21.0379 145.143L20.4645 144.68L20.3401 144.508L20.2643 144.294L19.5035 143.036L19.4341 142.985L19.2898 142.582L19.2363 142.477L19.0545 142.196L18.757 141.46L18.6119 141.185L17.6333 139.793L16.8526 138.223L16.7792 137.99L16.6628 137.391L16.4913 136.817L15.6651 135.678L15.2879 134.972L15.3405 134.354L14.9952 133.954L14.2081 132.495L14.0821 132.117L13.8237 131.799L12.9209 130.223L12.8579 130.058L12.8141 129.636L12.6936 129.12L12.6354 128.985L12.6035 128.552L11.8642 127.256L11.6744 126.715L11.6218 126.082L11.2948 124.781L10.4136 122.708L10.3219 122.156L10.2908 122.075L10.2254 121.992L10.16 121.879L10.1289 121.71L10.1185 121.539L9.74687 120.206H9.8338L9.7652 119.997L9.7676 119.562L9.74687 119.334L9.39915 118.403L9.40633 118.23L9.21972 118.078L9.12322 117.729L9.06501 117.117L8.64951 115.966L8.54583 115.785L8.02666 114.189L7.96685 114.085L7.6949 113.787L7.63429 113.629L7.59441 113.554L7.33841 113.243L7.04094 112.272L6.9612 112.126L6.81446 111.969L6.75305 111.832L6.76661 111.463L6.71477 111.31L6.58319 111.068L6.46675 110.696L6.41411 110.319L6.4827 110.057L6.26738 109.692L5.37019 108.896L5.2394 108.694L5.02567 108.075L4.91721 107.855L4.28479 106.967L3.33736 106.147L3.18504 105.8L3.04309 105.231L2.96573 104.666L3.00878 104.332L2.95137 104.225L2.83014 103.949L2.80862 103.829L2.75518 103.745L2.63716 103.717L2.50556 103.708L2.41624 103.675L2.11639 102.998L1.88511 102.813L1.53023 102.43L1.50391 102.344L1.64906 102.24L1.73838 102.004L1.77027 101.75L1.74395 101.59L2.00155 101.469L2.3692 101.218L2.75678 101.017L3.29429 100.843L4.35975 99.7812L4.5049 99.7255L4.6301 99.8027L4.69231 99.9844L4.73298 100.188L4.7912 100.337L5.02486 100.361L5.30559 100.12L5.5584 99.7796L5.71232 99.5072L5.75139 99.2379L5.76894 98.873L5.84151 98.5544L6.04806 98.4158L6.19799 98.2851L6.0991 97.9927L5.80003 97.5346L5.69956 97.2893L5.64293 96.9626L5.70434 96.6774L5.95396 96.5539L6.07598 96.6113L6.21554 96.7149L6.35749 96.7643L6.48988 96.6639L6.51779 96.4631L6.43644 96.2735L6.33038 96.1118L6.28812 95.9995L6.34474 95.8497L6.42209 95.7907L6.72116 95.7923L6.93647 95.7413L6.9309 95.6258L6.68366 95.308L6.64618 95.2243L6.6741 95.1287L6.75943 95.0594L6.81605 95.0841L6.87587 95.1303L7.10954 95.1239L7.1821 95.1813L7.24352 95.1892L7.34639 95.0291L7.45086 93.7648L7.50031 93.7218L7.74036 93.4469L7.82569 93.3776L7.93654 93.4071L8.0777 93.58L8.21885 93.6063L8.38713 93.5401L8.5881 93.3251L8.75079 93.2804L9.12562 93.3776L9.59534 93.0271L9.75404 92.945L10.0316 92.8757L10.1735 92.8789L10.3322 92.945L10.5284 93.1816L10.6895 93.5075L10.8737 93.7967L11.1465 93.9217L11.4998 94.0317L11.6274 94.3081L11.6242 94.6666L11.5867 95.0267L11.6553 95.7724L11.9535 96.1429L12.4041 96.2289L13.2965 96.0162L13.6602 95.9963L13.8189 96.072L13.8755 96.248L13.8963 96.4504L13.9497 96.6033L14.0773 96.7993L14.118 96.9626L14.1323 97.1259L14.1874 97.3219L14.2846 97.4852L14.5087 97.7856L14.5813 97.9656L14.61 98.3074L14.5765 98.7464L14.4585 99.1224L14.2344 99.2841L13.9975 99.3455L13.7535 99.5056L13.5701 99.7183L13.5151 99.9477L13.6299 100.237L14.0103 100.736L14.0916 101.099L14.2009 101.368L14.7153 101.56L14.8692 101.912L14.7807 102.541L14.6044 103.206L14.6308 103.688L15.1555 103.773L15.7776 103.622L16.3605 103.553L16.6468 103.482L16.914 103.356L17.1524 103.303L17.3646 103.454L17.4404 103.793L17.4284 104.187L17.4922 104.511L17.796 104.646L18.249 104.777L18.4293 104.766L18.564 104.701L18.8432 104.509L18.9955 104.439L19.4485 104.399L21.7955 104.922L22.3051 105.137L22.7804 105.442L23.6345 106.159L24.1736 106.441L25.3547 106.856L25.6163 106.861L26.1179 106.685L27.3549 106.504L27.6691 106.527L28.2608 106.748L28.6054 106.808L28.8789 106.692L28.9881 106.621L29.1421 106.573L29.4164 106.528L29.4938 106.504L29.6158 106.424L29.6939 106.409L29.7561 106.445L29.9276 106.606L29.9914 106.638L30.2937 106.542L30.8033 106.26L33.4988 105.862L36.4352 106.292L36.6689 106.514L37.0238 107.076L37.1721 107.248L37.271 107.283L37.7638 107.346L37.9193 107.4L37.9847 107.466L38.2232 107.78L38.7655 107.749L39.3469 107.555L40.1476 107.129L40.2624 107.011L40.4163 106.756L40.5025 106.696L40.9642 106.658L41.1301 106.555L41.1373 106.362L40.6125 105.452L40.5192 105.102L40.5702 104.768L40.8143 104.304L40.9738 104.092L41.1524 103.937L41.3558 103.92L41.6915 104.195L41.8414 104.221L42.0448 104.132L43.1853 103.837L43.4731 103.705L43.7172 103.505L43.8639 103.273L44.269 101.99L44.3544 101.851L44.4892 101.797L44.5777 101.74L44.6965 101.446L44.7723 101.316L44.8975 101.16L44.9804 101.031L45.0705 100.92L45.2173 100.825L45.3409 100.785L46.7517 100.677L46.9941 100.55L47.2716 100.329L47.5914 100.216L48.2701 100.168L48.6816 100.05L49.3109 99.4769L49.6817 99.2674L49.8388 99.2475L50.2934 99.3072L50.4385 99.2921L50.8755 99.1813L50.8971 98.7081V98.078V97.1841V96.2894V95.3964L50.8955 94.5041L50.8939 93.6103V92.7172V91.8297V90.9374V90.046V89.1577V88.267V87.3763L50.8923 86.4881V85.599V84.7099V83.8232V82.9381V82.0506V81.1639L50.8907 80.2788L50.8891 79.3929V78.507V77.6235V76.74V75.8557V74.973L50.8875 74.0895V73.2076V72.3249V71.4446V70.5627L50.8859 69.6832L50.8843 68.8036V67.9233V67.0446V66.1651V65.2872V64.4084L50.8827 63.5313V62.6534V61.777V60.9015V60.0244L50.8811 59.148L50.8795 58.2741V57.3986V56.5254V55.6531V54.9815V54.7807V53.9068V53.0336V52.1621L50.8779 51.2897V50.419V49.549V48.6775V47.8059V46.9367V46.0684L50.8763 45.1984L50.8747 44.3308V43.4617V42.5933V41.7265L50.87 41.533ZM177.397 106.975L176.625 106.181L176.059 105.182L175.879 104.964L175.684 104.794L175.681 104.791L175.469 104.662L175.247 104.579L175.236 104.575L174.797 104.495L174.681 104.406L174.273 103.633L174.065 103.458L173.442 103.441L173.293 103.216L173.191 102.559L173.105 102.245L172.978 101.981L172.79 101.755L172.525 101.558L172.316 101.584L171.515 102.13L171.236 102.198L169.279 102.328L168.991 102.449L168.717 102.724L168.337 103.381L168.067 103.627L167.783 103.736L167.458 103.779L167.134 103.744L166.851 103.618L166.674 103.636L165.914 103.712L165.787 103.663L165.647 103.861L165.46 104.094L165.072 104.667L165.027 104.76L164.404 105.427L163.872 106.138L163.812 106.265L163.817 106.39L163.799 106.484L163.674 106.521H163.292L163.133 106.44L163.002 106.271L162.835 106.116L162.57 106.083L162.365 106.201L162.252 106.413L162.163 106.666L162.033 106.908L161.658 107.077L160.056 106.968L160.159 107.238L160.009 107.362L159.787 107.439L159.672 107.566L159.67 107.789L159.656 107.918L159.623 108.004L159.592 108.055L159.577 108.105L159.576 108.223L159.553 108.289L159.497 108.284L159.43 108.263L159.376 108.282L159.104 108.676L158.932 108.862L158.757 108.94L158.533 109.001L158.598 109.149L158.773 109.33L158.895 109.489L158.806 109.506L158.676 109.572L158.607 109.599L158.51 109.489L158.415 109.599L158.468 109.896L158.484 109.985L158.166 110.583L157.361 111.574L157.259 111.631L157.115 111.686L156.973 111.77L156.88 111.914L156.873 112.068L156.961 112.443L156.984 112.629L156.843 112.749L156.728 112.787L156.154 112.975L155.921 113.123L155.879 113.253L155.851 113.627L155.816 113.772L155.68 113.959L155.549 114.03L155.42 114.073L155.294 114.177L155.26 114.289L155.317 114.382L155.4 114.481L155.441 114.608L155.42 114.813L155.365 114.909L155.271 114.979L154.688 115.621L154.532 115.872L154.472 116.162L154.397 116.231L154.066 116.216L153.991 116.274L153.963 116.459L153.893 116.629L153.8 116.773L153.769 116.805L153.704 116.875L153.246 117.145L152.947 117.271L152.551 117.353L152.3 117.492L152.157 117.545L151.745 117.589L151.349 117.749L151.273 117.801L150.818 118.284L150.754 118.329L150.64 118.279L150.603 118.179L150.559 118.095L150.421 118.098L150.345 118.167L150.238 118.427L150.142 118.549L150.01 118.357H149.861L149.755 118.509L149.75 118.77L149.577 119.171L149.69 119.225L149.891 119.39L150.075 119.493L150.262 119.66L150.672 120.28L150.792 120.521V120.522H150.794L151.955 123.297L152.341 124.221L152.609 124.538L153.284 125.11L153.484 125.436L153.675 126.206L153.769 126.434L153.943 126.704L154.073 126.756L154.248 126.713H154.56L154.775 126.774L154.908 126.883L154.896 127.044L154.685 127.259L154.378 128.025L154.405 128.49L154.718 129.365L154.695 129.62L154.847 129.638L154.857 129.64L155.137 129.72L155.279 129.741L155.378 129.725L155.677 129.6L155.902 129.604L156.005 129.71L156.108 130.108L156.26 130.355L156.48 130.54L156.993 130.777L157.045 130.96L157.091 131.119L157.458 131.482L157.797 131.962L157.843 132.107L157.851 132.253L157.874 132.4L157.962 132.538L158.819 133.193L159.578 134.062L160.001 134.332L160.49 134.486L161.08 134.565L161.222 134.541L161.49 134.408L161.612 134.388L161.775 134.444L161.895 134.539L162.005 134.651L162.139 134.756L162.419 134.898L162.715 134.995L164.376 135.14L164.714 135.288L164.717 134.969L164.682 134.708L164.672 134.443L164.753 134.114L164.844 133.963L164.961 133.879L165.081 133.812L165.192 133.716L165.305 133.568L165.353 133.468L165.591 132.71L165.609 132.577L165.564 132.415L165.4 132.129L165.369 132.001L165.479 131.807L166.674 130.863L166.86 130.643L166.959 130.291L166.921 129.919L166.757 129.774L166.551 129.679L166.397 129.459L166.427 129.156L166.643 128.911L166.938 128.731L167.196 128.626L167.609 128.566L167.744 128.505L167.842 128.408L168.016 128.152L168.147 128.053L168.367 127.832L168.605 127.38L168.725 127.154L169.003 126.909L169.341 126.855L170.02 126.954L170.367 126.83L170.977 126.462L171.206 126.407L171.441 126.435L172.123 126.7L172.599 126.703L173.861 126.221L174.791 126.019L175.696 125.645L177.331 124.567L177.886 124.221L178.988 123.535L179.159 123.458L179.531 123.347L179.693 123.267L179.783 123.128L179.749 122.969L179.595 122.658L179.565 122.43L179.574 122.285L179.535 122.17L179.358 122.031L179.153 121.742L179.16 121.354L179.244 120.926L179.263 120.566L179.265 120.522L179.527 120.04L179.705 119.582L179.933 119.178L180.342 118.853L181.424 118.518L181.583 118.316L181.579 118.049L181.601 117.797L181.831 117.639L181.63 117.388L181.534 117.003L181.535 116.939L181.539 116.589L181.641 116.251L181.937 115.947L182.334 115.772L182.753 115.642L183.123 115.479L183.283 115.358L183.401 115.215L183.466 115.035L183.457 114.802L183.483 114.548L183.743 114.175L183.795 113.94L183.751 113.847L183.564 113.661L183.501 113.563L183.487 113.446L183.5 113.2L183.487 113.102L183.345 112.754L182.953 112.22L182.799 111.653L182.693 111.381L182.5 111.163L182.28 110.995L182.122 110.802L182.051 109.877L181.623 109.697L181.061 109.682L180.598 109.541L179.438 108.313L178.954 108.09L178.637 108.006L178.452 107.879L178.37 107.675L178.366 107.359L178.238 107.198L177.935 107.054L177.604 106.963L177.397 106.975ZM299.456 428.708L299.912 428.574L300.385 428.641L301.686 429.028L302.352 429.808L302.736 429.968L302.584 430.513L302.287 431.015L301.902 431.382L301.482 431.528L301.364 431.504L301.125 431.398L299.565 431.328L299.352 431.375L298.843 431.294L298.608 431.177L298.402 430.966L298.333 430.808L298.251 430.521L298.233 430.248L298.489 430.012L298.796 429.534L298.928 429.424L299.017 429.326L299.315 428.864L299.456 428.708ZM302.25 424.766L302.303 424.317L302.803 424.021L303.437 423.993L303.89 424.347L303.871 424.942L303.34 425.14L302.672 425.043L302.25 424.766Z" fill="white" stroke="#3A3A3A" stroke-width="1.3" stroke-linecap="round" stroke-linejoin="round"/>
</svg>
