<svg width="608" height="386" viewBox="0 0 608 386" fill="none" xmlns="http://www.w3.org/2000/svg">
<path d="M57.7125 2.5242C57.4275 3.23804 57.76 13.4222 58.14 16.9438L58.425 19.3233L57.76 16.5156C57.0475 13.565 56.525 12.8987 54.6725 12.8987C54.0075 12.8987 53.1525 12.6132 52.7725 12.2325C52.345 11.8518 51.4425 11.4235 50.7775 11.3283C50.1125 11.1855 47.2625 9.56747 44.5075 7.66388C40.8975 5.23682 39.235 4.33261 38.57 4.52298C37.335 4.95126 36.3375 7.37836 36.385 9.80542C36.4325 10.8524 36.48 12.9939 36.48 14.5644C36.5275 19.4661 36.5275 21.4173 36.575 22.5118C36.6225 23.1305 36.5275 25.3672 36.385 27.5088C36.195 30.84 36.29 31.5063 36.955 31.887C37.3825 32.1249 37.6675 32.4105 37.525 32.5057C37.3825 32.6009 36.7175 33.0768 36.005 33.505C35.1025 34.0761 34.675 34.7424 34.675 35.5514C34.675 37.217 33.44 41.9284 32.0625 45.45C31.445 47.0681 30.0675 50.6849 29.0225 53.5879C27.2175 58.5848 22.9425 69.0545 21.755 71.2912C21.47 71.8623 20.425 73.1948 19.4275 74.2418C18.3825 75.2887 17.575 76.6212 17.575 77.2399C17.575 77.811 16.91 79.0007 16.055 79.8573C14.5825 81.3802 14.535 81.523 15.01 83.7597C15.295 85.0446 15.3425 86.4723 15.1525 86.9482C14.9625 87.4717 14.7725 90.8981 14.7725 94.6101C14.725 101.273 14.725 101.415 13.3 103.652C12.4925 104.889 11.875 106.079 11.875 106.27C11.875 106.508 10.83 108.268 9.5 110.22C7.315 113.503 7.125 113.979 7.125 116.644C7.125 118.5 7.6 120.975 8.455 123.735C9.785 127.732 9.785 127.97 9.025 129.065C7.7425 130.826 7.22 133.253 7.22 136.965C7.22 140.249 7.315 140.534 9.5475 143.865C11.7325 147.149 11.875 147.53 11.875 150.433C11.875 153.288 12.0175 153.716 13.68 155.763C14.63 157 15.7225 157.999 16.1025 158.047C16.53 158.047 16.245 158.523 15.4375 159.237C14.2025 160.427 14.155 160.617 14.345 164.234L14.4875 167.993L17.1 170.658L19.665 173.276L18.62 174.37C17.48 175.56 16.15 178.987 16.15 180.7C16.15 181.366 16.815 182.413 17.765 183.27C18.715 184.126 19.5225 185.411 19.665 186.315C19.9975 188.124 23.4175 195.405 24.13 195.833C24.415 196.024 24.51 196.88 24.3675 197.784C24.1775 198.974 24.3675 199.736 25.08 200.687C25.9825 202.02 25.9825 202.067 25.1275 204.114C23.655 207.493 23.8925 208.587 26.41 210.538C27.645 211.49 29.4025 212.442 30.3525 212.585C31.3025 212.775 33.4875 213.632 35.245 214.488C37.62 215.678 38.5225 216.44 38.76 217.296C39.1875 219.009 41.895 221.199 44.1275 221.579C46.36 221.96 47.2625 222.817 46.8825 224.292C46.455 225.815 47.3575 227.052 48.83 227.052C50.35 227.052 52.725 229.336 54.9575 233.001C56.2875 235.142 56.4775 235.951 56.8575 240.948C57.1425 243.994 57.57 246.802 57.9025 247.182C58.235 247.658 60.2775 248.087 63.7925 248.42C72.7225 249.324 83.695 250.371 84.4075 250.371C84.74 250.371 85.215 250.847 85.4525 251.466C85.69 252.084 87.115 253.322 88.6825 254.273C90.2025 255.177 96.805 259.318 103.313 263.458C109.868 267.551 117.895 272.643 121.22 274.737L127.3 278.496L141.645 280.4C159.41 282.779 162.213 283.017 163.115 282.304C163.495 281.97 163.923 280.686 164.113 279.353C164.303 278.068 164.635 277.021 164.825 277.021C166.203 277.021 181.64 278.972 181.973 279.21C182.21 279.353 182.685 280.162 183.065 280.971C183.398 281.828 187.055 285.968 191.093 290.156C199.405 298.722 201.59 302.053 201.115 305.099C200.735 307.431 202.16 310.239 204.82 312.333C209.855 316.378 218.215 321.851 219.688 322.089C221.018 322.326 221.54 322.089 223.345 320.375C224.77 319.09 225.91 317.377 226.813 315.331C228 312.428 228.19 312.237 229.615 312.237C230.47 312.237 231.325 312.047 231.563 311.809C231.848 311.524 233.035 311.619 234.65 312.047C236.075 312.428 238.213 312.713 239.4 312.713C241.918 312.713 242.345 312.951 243.105 314.855C243.438 315.616 245.053 317.425 246.763 318.805C249.328 320.994 249.898 321.755 250.515 323.849C251.798 328.18 254.553 333.7 256.738 336.223C257.925 337.555 258.875 338.983 258.875 339.364C258.875 340.648 261.155 343.504 262.438 343.837C263.483 344.123 263.625 344.408 263.625 346.216C263.625 347.311 264.005 349.405 264.528 350.833C265.62 354.069 268.565 359.922 269.42 360.684C270.94 361.921 280.963 366.014 283.718 366.49C285.333 366.823 287.613 367.632 288.8 368.393C290.605 369.488 291.318 369.678 293.503 369.535C294.928 369.44 296.258 369.107 296.495 368.774C297.255 367.537 296.875 365.347 295.688 364.11C294.928 363.301 294.025 361.255 293.218 358.447C292.078 354.497 292.03 353.831 292.553 351.784C292.838 350.547 292.98 349.167 292.838 348.739C292.648 348.31 292.838 347.501 293.265 346.883C293.693 346.312 294.168 344.836 294.31 343.599C294.548 341.981 294.833 341.267 295.498 341.124C295.973 340.982 296.828 340.125 297.35 339.221C297.968 338.126 298.823 337.46 299.678 337.317C300.628 337.127 301.198 336.603 301.53 335.652C301.863 334.7 302.433 334.129 303.335 333.938C305.235 333.462 305.9 332.796 305.9 331.416C305.9 330.464 306.043 330.369 306.708 330.75C307.753 331.321 310.365 330.274 316.493 326.943C320.293 324.849 321.195 324.135 321.575 322.898C321.86 322.041 322.81 320.851 323.713 320.233C324.805 319.519 325.375 318.757 325.375 317.996C325.375 317.044 325.565 316.901 326.61 317.139C327.323 317.234 329.508 316.949 331.503 316.473C333.498 315.949 337.393 315.045 340.148 314.427L345.183 313.284L349.173 314.189C351.358 314.665 354.303 315.331 355.68 315.664C358.673 316.33 359.718 315.902 359.955 313.951C360.098 312.856 360.288 312.761 361.38 312.999C362.093 313.142 363.28 313.998 363.993 314.902C364.753 315.807 365.798 316.521 366.32 316.521C366.843 316.521 368.03 317.282 368.885 318.186C370.453 319.852 374.063 321.755 375.678 321.755C376.153 321.755 377.008 321.232 377.625 320.566C378.908 319.233 379.763 319.043 380.19 320.09C380.76 321.66 384.465 320.613 385.225 318.662L385.653 317.52L388.028 318.519C389.358 319.09 390.593 319.995 390.878 320.613C391.638 322.374 392.968 322.422 396.103 320.804C398.478 319.614 399 319.138 399 318.186C399 316.996 398.905 316.901 392.445 312.856L391.305 312.142L392.445 310.953C393.015 310.286 394.108 309.477 394.868 309.097C396.34 308.288 396.578 306.622 395.485 304.576C394.868 303.338 394.868 303.291 396.625 302.482C398.098 301.815 399.143 301.72 401.518 301.958C403.655 302.196 404.7 302.148 404.938 301.768C405.128 301.482 405.555 301.339 405.888 301.482C406.22 301.577 406.885 301.435 407.408 301.054C408.168 300.483 408.405 300.53 409.308 301.387C409.83 301.911 411.113 302.434 412.158 302.577C413.678 302.767 414.153 302.624 415.103 301.577C415.815 300.816 416.765 300.34 417.573 300.34C418.238 300.34 419.093 300.055 419.378 299.674C419.9 299.055 425.79 298.912 427.5 299.483C432.773 301.244 435.243 301.863 436.288 301.673C437.238 301.482 437.475 301.577 437.238 302.101C437.095 302.529 437.618 303.433 438.615 304.338C439.518 305.147 440.325 306.336 440.42 307.003C440.658 309.001 442.51 308.763 447.735 306.051C450.348 304.671 452.96 302.957 453.625 302.196C456.238 299.293 459.848 300.721 465.975 307.003C468.588 309.668 470.535 311.286 471.438 311.476C473.623 312 475.713 315.521 475.665 318.662C475.618 319.995 475.38 321.565 475.048 322.089C474.145 323.802 474.383 327.847 475.475 329.37C475.998 330.131 476.805 330.845 477.28 330.988C477.803 331.178 478.088 331.797 478.135 332.891C478.135 334.081 478.61 335.08 479.798 336.365C480.7 337.412 482.125 339.221 482.933 340.458C484.073 342.124 484.785 342.695 485.688 342.695C486.448 342.695 486.875 342.98 486.875 343.409C486.875 343.837 487.825 345.169 488.965 346.407C491.34 349.024 492.1 350.309 492.1 351.832C492.1 353.117 492.908 354.116 493.953 354.116C495.568 354.116 498.703 356.163 500.128 358.209C500.983 359.399 502.218 360.541 502.788 360.779C503.405 361.017 503.975 361.683 504.07 362.302C504.165 362.92 504.593 363.444 505.115 363.539C506.825 363.872 511.29 362.159 513.428 360.351L515.518 358.542L515.043 356.115C514.615 353.878 514.663 353.593 515.755 352.165C516.895 350.737 516.943 350.5 516.42 348.072C516.04 346.121 516.04 344.884 516.42 343.171C516.895 341.124 516.848 340.601 515.85 338.317C515.28 336.936 513.808 334.462 512.668 332.844C511.528 331.226 510.055 328.323 509.39 326.372C508.535 323.849 507.87 322.66 507.063 322.231C505.733 321.517 505.115 319.328 505.59 316.616C505.828 314.998 505.59 314.474 503.595 311.666C502.36 309.906 500.698 308.192 499.843 307.764C498.988 307.336 498.275 306.669 498.275 306.289C498.275 305.86 497.088 304.1 495.663 302.386C493.24 299.436 493.05 299.008 493.098 296.914C493.193 295.153 492.955 294.344 492.195 293.535C491.625 292.916 491.008 291.726 490.865 290.822C490.675 289.918 490.248 288.728 489.915 288.205C488.918 286.587 488.11 278.021 488.775 275.546C489.393 273.357 491.198 269.502 492.575 267.503C493.003 266.837 493.525 265.695 493.715 264.933C494.333 262.364 496.803 259.508 501.315 256.129C504.688 253.607 505.923 252.37 506.303 251.18C506.635 250.276 507.253 249.181 507.775 248.705C508.25 248.277 509.2 246.516 509.865 244.851C512.335 238.664 514.425 236.475 518.32 235.904C521.028 235.523 523.118 233.381 523.688 230.574C524.305 227.147 528.865 222.008 532.475 220.58C533.663 220.104 535.325 219.2 536.18 218.581C537.463 217.582 537.7 217.153 537.7 215.345C537.7 213.775 537.463 213.156 536.75 212.775C536.228 212.49 535.563 212.394 535.325 212.537C535.04 212.68 534.85 212.299 534.85 211.633C534.85 210.681 535.088 210.396 535.848 210.396C537.368 210.396 539.885 208.682 540.978 206.874C542.355 204.685 542.355 200.307 541.025 198.974C540.265 198.213 539.838 198.118 538.888 198.498C536.608 199.355 535.753 198.641 537.89 197.642C539.553 196.88 539.933 194.643 538.745 192.407C538.223 191.407 537.653 189.932 537.51 189.076C537.035 187.077 534.755 185.173 532.713 185.173C531.525 185.173 531.098 184.935 530.86 184.126C530.718 183.508 530.813 182.841 531.05 182.603C531.763 181.889 531.62 179.843 530.813 178.796C530.433 178.273 530.1 177.273 530.1 176.559C530.1 174.561 529.245 172.657 527.915 171.563C527.013 170.849 526.775 170.278 526.965 169.564C527.25 168.707 527.488 168.66 528.865 169.088C530.005 169.469 530.528 169.945 530.86 171.087C531.145 172.086 531.62 172.61 532.38 172.705C533.33 172.847 533.473 173.085 533.188 173.894C532.998 174.466 532.76 176.226 532.618 177.797C532.428 180.129 532.523 180.89 533.283 181.794C533.948 182.603 534.47 182.841 535.183 182.603C536.56 182.175 538.46 178.32 539.41 174.132C539.838 172.229 540.598 169.992 541.073 169.183C541.738 168.041 541.975 166.756 541.975 164.043C541.975 160.284 541.595 159.046 539.933 157.19C538.983 156.144 538.983 156.144 539.885 156.144C541.358 156.144 543.59 153.431 545.728 149.148L547.675 145.198V138.678V132.111L550.905 130.16C552.663 129.065 555.418 127.59 557.033 126.876C559.455 125.829 560.263 125.115 561.498 123.259C563.113 120.737 563.16 119.499 561.593 118.833C560.738 118.405 561.023 118.167 564.395 116.501C566.675 115.407 568.338 114.265 568.623 113.598C569.003 112.789 569.43 112.599 570.428 112.742C571.52 112.885 572.043 112.599 573.278 110.981C574.608 109.315 574.988 109.077 576.223 109.363C577.078 109.506 577.885 109.363 578.36 108.982C578.788 108.601 580.023 107.888 581.115 107.364C582.968 106.46 583.063 106.27 583.205 104.128C583.395 101.225 581.353 97.1324 579.738 97.1324C577.885 97.1324 576.175 98.8932 576.175 100.844V102.558L574.703 100.559C573.895 99.4643 572.85 98.5601 572.423 98.5601C571.093 98.5601 570.998 98.1317 571.805 95.8951C572.518 93.9915 572.518 93.7059 571.758 92.1355C570.855 90.2795 570.903 89.8987 572.66 83.9025C573.325 81.7609 573.753 79.3814 573.705 78.6676C573.563 77.573 573.753 77.3827 574.893 77.2399C575.653 77.1447 576.508 76.5737 576.935 75.9074C577.363 75.2887 578.123 74.7653 578.645 74.7653C580.07 74.7653 582.16 72.243 582.778 69.7683C583.205 68.0075 583.585 67.484 584.725 67.1033C585.485 66.8178 586.625 65.9136 587.29 65.057C588.193 63.8196 588.763 63.5341 589.665 63.6769C590.473 63.8672 591.138 63.5817 591.898 62.6775C592.468 62.0112 593.75 60.9167 594.748 60.2028C595.745 59.5366 597.028 58.2993 597.598 57.4426C598.168 56.586 599.07 55.6818 599.64 55.4439C600.97 54.8728 601.16 53.1596 600.02 51.5891C599.498 50.8277 598.928 49.7807 598.785 49.2096C598.548 48.4482 597.788 47.9247 596.22 47.4964C594.415 46.9729 593.845 46.497 593.18 45.2121C592.753 44.3079 591.66 43.1657 590.758 42.6898C589.048 41.7381 588.905 41.3573 585.39 29.7931C584.725 27.4136 583.823 25.1769 583.443 24.7486C582.54 23.654 577.363 20.5131 576.555 20.5131C576.223 20.5131 574.703 21.2745 573.183 22.1787C571.663 23.0829 570.333 23.8444 570.238 23.8444C570.143 23.8444 570 23.2733 569.905 22.5118C569.81 21.4649 569.478 21.1794 568.29 21.0842C565.725 20.8462 564.918 22.0359 562.685 29.6027L560.595 36.5508L560.785 43.023C560.928 49.0193 560.88 49.5428 559.93 50.7801C559.313 51.5415 558.885 52.6837 558.933 53.6355C558.98 54.5872 558.79 55.1107 558.41 55.0156C557.555 54.73 554.753 56.3481 553.708 57.6806C553.233 58.3944 552.663 59.6317 552.473 60.5359L552.14 62.1064L546.25 63.4389C539.078 65.057 527.725 67.5792 525.113 68.1027C524.068 68.3407 522.738 68.6738 522.215 68.9117C520.648 69.4828 512.715 78.2393 512.335 79.7622C512.145 80.476 511.053 82.1892 509.865 83.5217C507.538 86.2343 507.158 88.0903 508.678 89.7084C509.153 90.2795 509.723 91.1837 509.913 91.8023C510.72 94.4673 501.315 100.416 498.418 99.0836C497.8 98.798 496.518 98.5601 495.615 98.5601C493.858 98.5601 485.45 100.416 484.833 100.94C484.595 101.13 484.12 102.51 483.74 103.985C483.028 106.698 483.028 106.745 484.263 108.364C485.023 109.363 485.403 110.315 485.213 110.886C484.785 112.266 478.563 118.215 476.33 119.357C475.19 119.928 473.86 120.88 473.338 121.546C472.055 123.069 468.445 125.496 465.358 126.876C463.885 127.495 462.27 128.732 461.368 129.826C460.085 131.444 459.658 131.682 458.47 131.492C457.378 131.349 456.57 131.635 455.193 132.729C453.578 134.014 453.198 134.157 451.25 133.824C448.923 133.443 444.125 131.492 444.125 130.921C444.125 130.731 444.553 130.017 445.075 129.351C445.598 128.684 446.025 127.542 446.025 126.733C446.025 125.972 446.453 124.972 446.975 124.496C447.498 124.021 447.925 123.164 447.925 122.545C447.925 121.546 448.258 121.118 449.968 119.69C450.348 119.357 450.87 117.548 451.203 115.597L451.82 112.076L449.825 106.127C448.685 102.891 447.45 99.845 447.07 99.4167C446.69 98.9884 445.218 98.3221 443.793 98.0366L441.133 97.4179L439.66 99.0836C438.853 99.9878 437.618 101.463 436.905 102.367C436.193 103.271 435.48 103.842 435.29 103.652C435.1 103.462 435.67 102.51 436.62 101.511C437.57 100.559 438.568 99.2739 438.853 98.7028C439.613 97.18 439.47 91.3264 438.615 88.7566C438.045 86.9958 437.998 86.282 438.425 85.235C438.758 84.4735 438.853 83.4742 438.71 82.9983C438.33 81.8561 434.91 79.7622 432.25 79.0483C431.063 78.7628 429.685 78.0965 429.163 77.6206C428.64 77.1447 427.073 76.5261 425.743 76.1454C424.365 75.8122 423.225 75.3839 423.225 75.1936C423.225 75.0032 424.793 74.7653 426.693 74.6701C430.968 74.4321 433.865 73.1472 434.055 71.3864C434.245 69.8635 433.865 69.578 428.925 67.6268C426.313 66.5798 424.08 66.0088 422.513 65.9612H420.138L419.9 64.1052C419.568 61.4878 418.57 61.0118 415.72 62.0588C414.438 62.4871 411.683 63.201 409.64 63.5817C406.933 64.1052 405.27 64.7238 403.513 65.9612C401.28 67.484 400.948 67.5792 398.288 67.2937C396.198 67.1033 394.963 66.675 393.775 65.7708C391.543 64.0576 389.785 63.3438 387.838 63.3438C385.51 63.3438 385.653 62.2492 388.313 59.6794C391.638 56.4908 391.163 55.1107 386.508 54.5872C383.943 54.2541 383.753 54.3017 382.708 55.539C379.905 58.9179 374.728 63.0582 372.02 64.0576C370.785 64.5335 369.265 65.3425 368.6 65.9136C366.13 68.0551 365.845 68.1979 363.708 67.8647C361.998 67.5792 361.618 67.3889 361.808 66.7226C362.14 65.4377 360.668 64.2955 358.815 64.2955C357.913 64.2955 355.918 64.9618 354.35 65.7232C352.783 66.5323 351.5 67.0557 351.5 66.9605C351.5 66.5798 354.92 63.201 357.295 61.2498C358.53 60.2504 362.52 57.4902 366.083 55.0631C371.593 51.4464 372.638 50.5421 372.638 49.5428C372.638 47.6868 370.548 46.9253 365.75 47.0205C362.995 47.1157 361.238 46.8777 360.193 46.4018C358.768 45.7832 358.435 45.7832 355.253 46.9253C351.5 48.2102 350.693 48.1627 348.365 46.4018C347.558 45.7832 346.56 45.2597 346.18 45.2597C345.753 45.2597 344.708 44.5458 343.805 43.6416C342.428 42.2615 341.763 41.976 338.2 41.4525C335.493 41.0718 333.64 41.0242 332.5 41.3098C331.123 41.6905 330.363 41.5953 328.273 40.6435C326.895 40.0724 325.328 39.5489 324.853 39.5489C324.188 39.5489 323.903 38.8827 323.428 35.9321C322.905 32.5057 322.763 32.2677 321.29 31.649C318.203 30.3641 316.16 31.1732 315.78 33.8382C315.638 34.9803 315.448 35.0279 311.363 35.3611C304.665 35.8845 293.93 35.8369 272.65 35.3134C248.425 34.6472 242.868 34.2189 210.663 30.5545C195.89 28.8413 194.75 28.6985 183.35 26.9377C177.223 26.0335 170.905 25.0341 169.338 24.7961C167.77 24.5582 165.015 24.1299 163.163 23.8444C139.555 20.3227 132.478 19.0854 122.075 16.7059C115.425 15.183 108.253 13.565 106.163 13.1367C101.413 12.0897 98.5625 11.4711 96.425 10.9951C95.5225 10.8048 92.72 10.1861 90.25 9.61505C81.415 7.66388 78.0425 6.80728 69.3025 4.38019C60.1825 1.85794 58.0925 1.52481 57.7125 2.5242ZM70.5375 6.52173C75.7625 7.94943 80.8925 9.32953 81.9375 9.56747C84.93 10.2813 109.393 15.7065 122.55 18.6095C123.453 18.7999 126.588 19.5137 129.438 20.18C132.335 20.8462 141.313 22.3691 149.388 23.5588C164.208 25.7955 171.095 26.7949 176.605 27.6515C178.22 27.9371 180.928 28.3178 182.638 28.6033C190.048 29.7455 192.233 30.0786 193.563 30.3166C194.37 30.4593 196.698 30.7448 198.788 30.9828C200.878 31.2207 210.283 32.2677 219.688 33.3147C243.58 35.9797 245.29 36.1225 272.175 36.9791C293.978 37.6929 309.605 37.6454 315.258 36.8839C317.11 36.5984 317.253 36.5032 317.538 34.7424C317.823 33.1243 318.013 32.8864 319.2 32.8864C321.005 32.8864 321.433 33.5526 321.813 37.1695C322.288 41.8808 322.335 42.0236 324.14 41.6429C325.328 41.4525 326.325 41.6905 328.083 42.5471C330.173 43.6416 330.6 43.6892 332.69 43.2133C334.4 42.8326 335.825 42.8326 338.343 43.2609C341.288 43.7844 341.905 44.0699 343.093 45.4976C343.853 46.4494 344.898 47.1633 345.468 47.1633C345.99 47.1633 346.893 47.544 347.415 48.0199C347.985 48.4958 349.173 49.1144 350.17 49.4476C351.69 49.9711 352.213 49.9235 355.11 48.8289C358.293 47.6392 358.435 47.6392 360.193 48.4006C361.665 49.0669 362.425 49.162 364.658 48.7337C367.27 48.2578 370.405 48.7337 370.643 49.6379C370.69 49.8283 368.173 51.6367 365.038 53.6355C358.863 57.633 352.593 62.6775 349.553 66.1515L347.653 68.2931L349.268 68.8641C350.835 69.4352 351.168 69.34 354.54 67.5792C356.915 66.2943 358.483 65.7708 359.1 65.9612C360.145 66.2943 360.335 66.913 359.575 67.3889C359.29 67.5316 359.1 68.2931 359.1 69.0545C359.1 70.387 359.148 70.387 360.668 69.9587C361.475 69.7208 363.185 69.6256 364.42 69.7683C366.463 70.0539 366.748 69.9587 368.458 68.4358C369.455 67.5316 371.688 66.1515 373.398 65.3425C375.155 64.5811 377.435 63.0582 378.48 62.0112C379.525 60.9643 380.76 59.9649 381.283 59.8221C381.758 59.6794 382.565 58.7751 383.04 57.8709C383.8 56.4432 384.18 56.2053 385.653 56.2053C388.503 56.2053 388.883 56.8716 386.935 58.3468C385.7 59.2986 385.035 60.298 384.513 62.0588C384.133 63.3913 383.8 64.5811 383.8 64.7714C383.8 64.9142 384.655 64.9618 385.7 64.8666C387.933 64.6287 390.878 65.7232 393.3 67.6268C394.82 68.8166 395.533 69.0069 398.383 69.1021C401.47 69.2448 401.898 69.1497 404.273 67.5316C406.078 66.3419 407.788 65.6756 410.163 65.2949C412.015 64.9618 414.295 64.3907 415.293 64.01C417.715 63.1058 418 63.1534 418 64.5335C418 65.1522 418.238 66.1991 418.523 66.8654C419.045 67.9599 419.283 68.0075 421.325 67.7696C423.13 67.5792 424.365 67.8172 427.69 69.0545C429.97 69.9111 431.918 70.8153 432.06 71.0057C432.488 71.7671 428.783 72.8617 425.79 72.8617C423.273 72.8617 422.703 73.0044 422.085 73.9086C421.42 74.8604 421.278 74.8604 420.518 74.1466C420.043 73.7659 418.57 73.2424 417.24 73.0996C414.628 72.7189 412.823 73.3376 411.16 75.1936C410.543 75.8598 409.688 76.1929 408.453 76.1929C406.885 76.1929 406.505 76.4309 405.888 77.6206C405.033 79.2863 403.418 79.5718 403.18 78.049L403.038 77.0496L401.755 78.049C400.188 79.2863 399.95 79.2863 399.95 78.049C399.95 76.3833 398.81 77.3351 398.478 79.3339C398.288 80.3333 397.575 82.2844 396.91 83.6169C396.245 84.997 395.675 86.4247 395.675 86.8054C395.675 87.2337 394.63 88.947 393.348 90.6602C391.02 93.7059 389.975 96.3234 390.83 96.8468C391.115 96.9896 391.685 96.5137 392.16 95.7999C392.588 95.086 393.87 93.6583 394.915 92.6114C396.008 91.5168 397.528 89.8036 398.383 88.8042C399.808 86.9958 399.903 86.9482 399.903 88.0903C399.95 88.7566 399.19 90.9933 398.288 93.0872C397.338 95.1812 396.483 98.0842 396.293 99.5118C396.15 100.94 395.58 102.7 395.105 103.414C394.393 104.461 394.203 105.413 394.298 107.935C394.345 109.982 394.155 111.79 393.68 112.837C393.063 114.36 393.063 114.931 394.06 119.737C394.678 122.593 395.153 126.21 395.153 127.685C395.2 129.969 395.39 130.493 396.388 131.302C397.053 131.825 397.908 133.348 398.335 134.633C399 136.727 399.38 137.155 400.948 137.774C402.705 138.488 402.848 138.488 404.843 137.298C408.975 134.776 410.78 130.54 411.635 121.593C411.92 118.548 411.825 117.929 410.495 114.931C408.263 109.791 407.408 105.936 407.788 102.605C407.978 101.035 408.263 98.3221 408.405 96.5613C408.738 93.4204 409.735 91.374 411.493 90.2795C412.11 89.8987 412.443 89.9939 412.918 90.6602C413.535 91.5168 413.63 91.5168 415.055 90.4698C416.338 89.518 416.575 89.0421 416.575 87.3765C416.575 85.9012 416.86 85.1398 417.763 84.2832C418.57 83.5217 418.855 82.8555 418.665 82.1416C418.38 80.9519 421.088 77.1923 422.275 77.1923C423.795 77.1447 427.69 78.62 428.26 79.4766C428.64 80.0001 429.733 80.476 431.015 80.6188C433.105 80.9043 437 83.0458 437 83.8549C437 84.0452 436.81 84.3784 436.525 84.5211C435.813 84.9494 435.955 87.662 436.763 89.0421C437.19 89.8036 437.428 91.6596 437.475 94.2294V98.2745L435.385 100.178C433.58 101.891 433.343 102.32 433.58 103.7C433.818 105.365 435.765 106.888 436.43 105.889C438.045 103.462 441.465 99.5118 441.893 99.5118C442.653 99.5118 446.025 100.464 446.025 100.654C446.025 100.749 446.88 103.367 447.973 106.412C449.683 111.409 449.873 112.313 449.588 114.693C449.208 117.786 448.638 119.024 447.688 119.024C447.26 119.024 446.785 119.833 446.453 121.165C446.168 122.307 445.645 123.545 445.265 123.83C444.885 124.116 444.6 124.972 444.6 125.734C444.6 126.448 443.983 128.018 443.175 129.16C441.323 131.968 441.275 133.3 443.128 133.3C443.888 133.3 445.503 133.776 446.785 134.347C448.068 134.919 450.158 135.537 451.488 135.68C453.625 135.965 454.005 135.87 456 134.49C457.805 133.158 458.28 133.015 459.278 133.443C460.18 133.872 460.513 133.824 461.035 133.11C462.555 130.969 465.12 128.542 465.833 128.542C466.735 128.542 473.148 124.592 474.335 123.259C474.81 122.688 476.33 121.546 477.613 120.689C478.943 119.88 481.508 117.644 483.36 115.835C487.445 111.79 487.968 110.267 486.115 107.84C485.023 106.412 484.975 106.079 485.45 104.318C486.02 102.177 486.21 102.082 493.24 100.606C496.375 99.9878 496.613 99.9878 497.848 100.892L499.13 101.844L502.788 100.368C505.305 99.3215 507.205 98.1317 509.01 96.4661C511.385 94.1818 511.575 93.8487 511.575 91.7548C511.575 90.5174 511.385 89.518 511.1 89.518C510.863 89.518 510.293 88.9945 509.865 88.3283C509.105 87.1385 509.105 87.091 511.243 84.8067C512.43 83.5217 513.665 81.6182 513.95 80.5712C514.378 79.1911 515.708 77.5255 518.653 74.5749L522.785 70.4346L537.748 67.1033C545.965 65.2949 553.043 63.6769 553.518 63.5341C554.183 63.3438 554.325 62.963 554.135 62.1064C553.518 59.7745 556.795 56.2053 558.79 56.9667C560.12 57.4902 561.07 56.2053 560.738 54.4445C560.548 53.2547 560.738 52.5409 561.545 51.3987C562.638 49.9235 562.733 48.9241 562.495 43.1182C562.305 38.5971 562.78 35.1231 564.49 29.5551C566.153 24.0823 567.198 22.0835 568.148 22.6546C568.338 22.7974 568.385 23.2733 568.243 23.7968C568.1 24.3678 568.385 24.9389 569.05 25.4148C570.048 26.1287 570.285 26.0335 573.088 24.2727C574.703 23.2733 576.27 22.4167 576.508 22.4167C576.745 22.4167 578.265 23.2257 579.785 24.2251C582.398 25.9383 582.635 26.2714 583.253 28.6509C583.633 30.0786 584.725 33.8382 585.723 37.0267C587.433 42.3091 587.718 42.8802 589.238 43.7844C590.14 44.3079 591.28 45.5452 591.708 46.4494C592.373 47.8295 592.943 48.2578 594.605 48.7337C596.22 49.162 596.79 49.5903 597.313 50.7801C597.645 51.5891 598.168 52.4457 598.453 52.5885C599.213 53.0644 599.118 54.3017 598.31 54.3017C597.93 54.3017 597.123 55.0156 596.553 55.8246C595.935 56.6812 595.033 57.7282 594.463 58.1089C593.94 58.4896 592.705 59.5366 591.755 60.3932C590.473 61.5353 589.713 61.916 589.048 61.6781C588.335 61.4402 587.575 61.916 586.008 63.5341C584.868 64.7238 583.585 65.7232 583.205 65.7232C582.683 65.7232 581.97 66.8654 581.163 69.1021C580.45 70.9581 579.643 72.5285 579.31 72.6237C579.025 72.7189 578.218 72.9093 577.505 73.052C576.793 73.1948 576.08 73.7659 575.938 74.3369C575.7 75.0508 575.32 75.2411 574.56 75.0508C572.945 74.6701 571.33 76.5261 571.71 78.382C571.853 79.1911 571.52 81.3802 570.808 83.8073C569.335 88.8994 569.193 90.2319 569.953 92.4686C570.475 94.0391 570.428 94.6101 569.573 96.8468C568.528 99.6546 568.718 99.9878 571.188 99.9878C571.805 99.9878 572.613 100.464 573.088 101.225C574.465 103.367 575.653 104.271 577.125 104.271C578.265 104.271 578.55 104.08 578.55 103.176C578.55 102.605 578.313 101.796 578.075 101.415C577.648 100.749 578.693 99.0359 579.5 99.0359C580.118 99.0359 581.4 102.415 581.4 104.033C581.4 105.461 581.21 105.746 580.118 105.984C579.358 106.174 578.408 106.603 577.98 107.031C577.315 107.555 576.983 107.602 576.46 107.174C575.415 106.317 573.658 107.269 572.185 109.553L570.808 111.6L569.668 110.267C568.243 108.601 567.15 108.935 567.15 111.076C567.15 112.028 566.818 112.98 566.343 113.408C564.965 114.645 561.878 115.978 559.075 116.644C554.753 117.644 551.428 119.452 548.53 122.45C545.823 125.163 545.253 126.162 546.298 126.162C547.01 126.162 552.663 123.449 555.323 121.784C557.27 120.594 560.975 119.88 560.975 120.737C560.975 121.831 558.03 124.496 555.56 125.639C553.945 126.4 551.38 127.78 549.86 128.732C548.293 129.684 546.44 130.445 545.775 130.445C544.588 130.445 543.4 131.207 543.4 131.968C543.4 132.158 543.78 132.349 544.255 132.349C545.965 132.349 546.25 133.348 546.25 138.678C546.25 143.865 546.25 143.961 544.208 148.244C543.068 150.623 541.643 153.003 541.073 153.526C539.98 154.478 539.98 154.478 539.173 153.478C538.745 152.907 537.605 152.098 536.703 151.622C535.8 151.147 534.328 149.957 533.378 148.91C531.858 147.292 531.62 147.197 531.383 147.958C531.098 149.148 535.42 156.001 536.893 156.667C537.463 156.905 538.413 157.857 539.03 158.713C540.408 160.76 540.503 166.233 539.22 168.898C538.745 169.849 538.08 171.943 537.7 173.514C537.368 175.084 536.56 177.416 535.848 178.749L534.613 181.128L534.47 178.796C534.375 177.559 534.565 175.846 534.803 175.037C535.088 174.275 535.325 172.99 535.325 172.229C535.325 170.896 535.23 170.849 533.9 171.134C532.523 171.42 532.475 171.372 532.475 169.754C532.475 168.707 532.238 168.041 531.905 168.041C531.573 168.041 530.48 167.803 529.53 167.517C528.153 167.184 527.725 166.804 527.725 166.042C527.725 165.471 527.25 163.139 526.728 160.855C525.73 156.905 525.73 156.572 526.49 154.763C527.393 152.384 527.488 150.29 526.68 150.528C526.348 150.671 525.35 151.67 524.543 152.765C523.118 154.621 522.975 155.097 522.975 158.237C522.975 160.76 523.308 162.473 524.163 164.71C525.778 168.898 525.73 169.469 523.735 169.469C520.6 169.469 521.408 171.42 524.78 172.086C527.108 172.514 528.2 173.847 528.2 176.274C528.2 177.368 528.533 178.796 528.96 179.415C529.625 180.319 529.625 180.7 529.15 181.604C528.818 182.223 528.675 183.27 528.865 183.936C529.103 184.84 529.008 185.173 528.438 185.173C527.393 185.173 527.583 186.934 528.675 187.553C529.34 187.886 529.91 187.933 530.528 187.553C532.903 186.315 535.8 187.553 535.8 189.885C535.8 190.551 536.228 191.645 536.75 192.312C537.985 193.882 537.985 195.976 536.798 196.357C536.323 196.499 534.565 197.499 532.95 198.546C530.67 200.021 530.1 200.592 530.528 201.021C530.955 201.449 531.573 201.401 533.188 200.83C535.135 200.116 535.325 200.116 536.18 201.021C537.13 201.925 537.13 201.925 538.128 200.925C539.553 199.498 540.075 200.021 540.075 202.877C540.075 205.922 538.793 207.873 536.465 208.302C535.183 208.54 534.66 208.397 534.185 207.778C533.425 206.731 532 207.112 532 208.349C532 208.825 532.333 209.587 532.713 210.063C533.758 211.49 532.713 213.679 530.48 214.679C529.103 215.297 528.77 215.631 529.245 215.916C530.195 216.535 532.523 216.154 534.233 215.107C535.848 214.108 536.56 214.488 536.038 216.106C535.848 216.677 534.233 217.772 531.858 218.914C528.39 220.532 527.63 221.151 525.255 224.244C523.45 226.529 522.358 228.432 522.025 229.955C521.36 232.763 520.315 233.715 517.465 234.238C513.618 234.952 510.863 237.855 508.583 243.423C508.013 244.755 506.873 246.897 506.018 248.182C505.163 249.419 504.45 250.752 504.45 251.037C504.45 251.37 502.503 253.084 500.128 254.892C495.758 258.176 492.86 261.459 492.29 263.696C492.1 264.362 491.293 266.076 490.438 267.503C489.583 268.931 488.3 271.691 487.635 273.642C486.4 277.069 486.4 277.307 486.875 281.923C487.16 284.54 487.825 287.729 488.348 289.014C488.823 290.299 489.25 291.726 489.25 292.202C489.25 292.631 489.773 293.535 490.438 294.153C491.435 295.058 491.625 295.724 491.625 297.77C491.625 300.102 491.815 300.53 493.763 302.815C494.95 304.195 496.28 306.146 496.66 307.098C497.135 308.192 497.848 308.954 498.56 309.097C499.178 309.287 500.555 310.572 501.648 312C503.5 314.474 503.595 314.76 503.69 318.234C503.785 321.66 503.833 321.898 505.305 323.088C506.35 323.992 507.158 325.325 507.823 327.419C508.393 329.084 509.77 331.797 510.863 333.367C511.955 334.985 513.38 337.222 513.95 338.412C514.948 340.363 514.995 340.791 514.52 343.076C514.14 344.932 514.14 346.216 514.52 347.93C514.995 349.976 514.948 350.357 513.998 351.689C513.095 352.927 513 353.545 513.238 355.687C513.523 358.019 513.475 358.209 512.145 359.208C510.435 360.446 507.49 361.731 506.303 361.731C505.638 361.731 505.4 361.398 505.4 360.541C505.4 359.589 505.163 359.351 504.308 359.351C503.548 359.351 502.74 358.685 501.648 357.21C499.843 354.735 498.133 353.402 495.995 352.927C495.14 352.736 494.285 352.26 494.143 351.832C493.288 349.119 492.623 347.93 490.865 346.026C489.63 344.741 488.775 343.313 488.68 342.457C488.538 341.172 488.348 341.029 486.78 340.886C485.308 340.744 484.833 340.411 483.978 338.983C483.36 338.031 482.173 336.413 481.318 335.414C479.608 333.462 479.418 332.653 480.415 331.797C481.413 330.94 481.84 328.513 481.175 327.704C480.415 326.8 479.275 326.8 479.275 327.656C479.275 327.99 478.99 328.561 478.658 328.846C478.135 329.227 477.803 329.179 477.28 328.513C476.045 327.181 475.808 324.896 476.663 322.898C478.04 319.566 477.803 316.711 475.76 313.046C474.24 310.286 473.765 309.858 472.625 309.858C471.628 309.858 470.393 308.906 467.115 305.67C462.08 300.673 459.278 298.912 456.38 298.912C454.575 298.912 454.053 299.15 452.58 300.673C451.06 302.339 443.65 306.527 442.32 306.527C441.988 306.527 441.75 306.003 441.75 305.337C441.75 304.528 441.323 303.957 440.325 303.433C438.758 302.624 438.71 302.529 439.375 301.292C439.945 300.197 438.805 299.721 435.575 299.579C432.488 299.483 428.735 298.246 428.545 297.294C428.403 296.628 428.07 296.533 426.883 296.866C426.028 297.056 423.938 297.199 422.18 297.104C419.378 297.009 418.903 297.104 418.475 297.961C418.143 298.579 417.478 298.912 416.623 298.912C415.91 298.912 414.913 299.341 414.438 299.864C413.44 300.959 411.255 301.101 410.4 300.102C410.115 299.721 409.545 298.484 409.213 297.39L408.595 295.343L407.598 297.58C406.553 299.864 405.983 300.34 405.413 299.341C405.175 299.008 404.795 299.103 404.225 299.626C403.56 300.197 402.848 300.34 400.995 300.055C398.43 299.721 396.863 300.15 392.018 302.624L389.548 303.862L386.08 303.053C384.18 302.577 382.09 302.244 381.425 302.244C379.905 302.244 378.86 303.814 379.525 305.099C379.953 305.908 380.38 305.956 383.278 305.718C386.46 305.432 386.555 305.48 387.173 306.669L387.838 307.907L390.45 306.289C391.875 305.385 393.205 304.623 393.348 304.623C393.49 304.623 393.823 305.099 394.108 305.67C394.488 306.527 394.155 307.05 391.78 309.382C390.26 310.857 389.025 312.237 389.025 312.523C389.025 312.761 390.83 314.046 393.063 315.331C395.248 316.663 397.1 317.853 397.1 318.043C397.1 318.424 393.633 320.328 392.92 320.328C392.635 320.328 392.35 319.899 392.208 319.376C392.065 318.757 390.973 317.996 389.358 317.282C387.933 316.616 386.65 315.759 386.508 315.378C386.318 314.95 385.795 314.617 385.273 314.617C384.56 314.617 384.228 315.093 383.943 316.616C383.515 318.852 382.138 319.661 381.283 318.186C380.713 317.139 377.673 317.615 376.77 318.948C376.01 320.042 375.583 320.042 373.113 319.138C371.973 318.662 370.738 317.71 370.073 316.758C369.313 315.616 368.6 315.093 367.793 315.093C366.748 315.093 364.325 313.094 364.325 312.19C364.325 311.952 363.945 311.762 363.47 311.762C362.995 311.762 362.188 311.428 361.57 311.048C360.098 310.001 358.625 310.857 358.625 312.713C358.625 314.474 358.673 314.474 350.835 312.761C346.75 311.857 344.28 311.524 343.473 311.762C339.435 312.999 327.18 315.616 326.563 315.426C326.183 315.236 325.85 314.665 325.85 314.141C325.85 313.094 325.708 313.046 324.093 313.475C322.715 313.856 322.335 315.14 323.095 316.711C323.618 317.901 323.523 318.091 322.335 319.09C321.575 319.661 320.625 320.851 320.198 321.755C319.58 323.04 318.393 323.897 313.595 326.419C308.275 329.179 307.705 329.417 306.945 328.751C306.233 328.085 305.948 328.085 304.523 328.703C302.955 329.37 302.955 329.417 303.715 330.512C304.57 331.844 304.428 331.987 301.958 332.463C300.438 332.749 300.105 333.034 299.868 334.224C299.63 335.318 299.393 335.604 298.68 335.366C297.255 335.033 296.4 335.509 296.4 336.699C296.4 338.269 295.118 339.744 293.645 339.935C292.41 340.077 292.363 340.173 292.363 342.79C292.363 344.932 292.125 345.693 291.27 346.645C290.32 347.644 290.225 347.977 290.748 348.786C291.223 349.548 291.223 350.119 290.7 351.689C290.13 353.498 290.178 354.069 291.413 358.542C292.22 361.588 293.17 363.872 293.835 364.634C294.453 365.3 294.975 366.299 294.975 366.87C294.975 367.822 294.833 367.87 294.025 367.441C293.36 367.108 292.838 367.108 292.22 367.489C291.46 367.965 291.033 367.87 289.703 366.823C288.705 366.061 286.758 365.347 284.478 364.872C282.483 364.443 278.54 363.063 275.69 361.778L270.513 359.446L268.755 356.21C266.808 352.641 265.525 348.834 265.525 346.597C265.525 344.123 264.623 342.219 263.388 342.219C262.295 342.219 260.3 339.601 260.3 338.221C260.3 337.841 259.303 336.461 258.115 335.128C256.595 333.415 255.36 331.273 253.888 327.609C252.7 324.801 251.75 321.993 251.75 321.47C251.75 320.899 251.18 320.09 250.468 319.566C247.855 317.901 244.625 314.474 244.625 313.475C244.625 311.952 242.108 310.905 237.738 310.619C234.555 310.429 233.795 310.239 233.083 309.334L232.228 308.288L231.515 309.287C231.04 309.953 230.233 310.334 228.903 310.429C227.003 310.572 226.955 310.619 225.53 313.903C223.868 317.758 221.683 320.328 220.02 320.328C219.07 320.328 214.89 317.568 205.77 310.953C203.538 309.287 202.635 307.288 203.015 304.718C203.253 303.053 203.11 302.386 202.35 301.435C201.828 300.768 201.4 299.817 201.4 299.293C201.4 298.722 198.075 294.915 193.23 289.823C187.815 284.207 184.965 280.828 184.87 280.067C184.633 278.163 182.495 277.212 176.795 276.593C173.993 276.26 170.43 275.831 168.815 275.546C167.248 275.308 165.3 275.118 164.493 275.118C163.068 275.118 163.02 275.213 162.498 278.021C162.213 279.639 161.928 281.019 161.88 281.066C161.69 281.209 148.01 279.496 136.8 277.925C135.09 277.687 132.43 277.354 130.863 277.212C128.203 276.926 127.11 276.307 115.9 269.264C85.88 250.466 86.925 251.132 86.925 250.038C86.925 248.8 86.64 248.753 77.9 247.991C74.6225 247.706 69.825 247.278 67.2125 247.04C64.6 246.754 61.7025 246.516 60.8 246.421L59.1375 246.326L58.6625 240.615C58.235 235.285 58.0925 234.714 56.525 232.287C53.39 227.29 51.7275 225.624 49.97 225.624C48.4975 225.624 48.355 225.529 48.64 224.435C48.83 223.721 48.64 222.674 48.26 221.912C47.69 220.818 47.025 220.437 44.9825 219.961C42.2275 219.343 41.3725 218.676 40.4225 216.297C39.9475 215.107 39.045 214.441 35.72 212.823C33.44 211.776 31.1125 210.872 30.5425 210.872C29.9725 210.872 28.69 210.205 27.6925 209.349C26.695 208.492 25.84 207.778 25.745 207.731C25.6975 207.683 26.125 206.303 26.7425 204.59C27.8825 201.592 27.8825 201.496 27.0275 200.354C26.315 199.498 26.22 198.736 26.41 197.213C26.6475 195.548 26.5525 195.119 25.8875 194.881C24.9375 194.501 21.375 187.172 21.375 185.649C21.375 185.126 20.5675 183.793 19.5225 182.651C17.7175 180.652 17.7175 180.652 18.3825 178.749C18.715 177.749 19.4275 176.417 19.95 175.893C21.6125 174.132 21.185 172.324 18.525 169.707L16.15 167.375V163.901C16.15 160.617 16.1975 160.427 17.2425 160.427C17.8125 160.427 18.81 160.76 19.4275 161.188C20.4725 161.949 20.52 161.949 20.2825 161.093C20.14 160.569 19.855 159.332 19.7125 158.285C19.095 154.573 19.0475 154.478 17.8125 155.668L16.7675 156.667L15.2475 154.954C13.9175 153.383 13.775 152.955 13.775 150.004C13.775 147.054 13.6325 146.578 12.2075 144.674C11.3525 143.532 10.165 141.819 9.6425 140.82C8.74 139.249 8.6925 139.011 9.3575 138.107C9.975 137.155 9.975 136.965 9.31 135.918C8.645 134.919 8.645 134.585 9.2625 132.825C9.6425 131.73 10.355 130.255 10.8775 129.541L11.8275 128.256L10.165 123.069C7.98 116.073 8.0275 115.55 11.1625 110.933C12.5875 108.839 13.775 106.888 13.775 106.603C13.775 106.365 14.2975 105.318 14.9625 104.366C16.1025 102.7 16.15 102.272 16.15 96.0378C16.15 91.374 16.34 88.9945 16.8625 87.8048C17.3375 86.6151 17.4325 85.806 17.1 84.9494C16.2925 82.9031 16.5775 81.6657 18.05 80.2381C18.8575 79.4766 19.475 78.382 19.475 77.7634C19.475 77.1447 20.235 75.8598 21.28 74.8128C23.1325 72.8617 27.455 63.3913 31.3025 52.6361C32.3475 49.7331 33.725 45.9735 34.3425 44.2603C34.96 42.4995 35.7675 39.6917 36.1 37.9785C36.575 35.6942 36.955 34.79 37.5725 34.6472C38.0475 34.5044 38.7125 33.8382 38.9975 33.1719C39.4725 32.1249 39.425 31.7918 38.7125 30.9828C37.715 29.8406 38.095 27.6515 39.33 27.6515C39.995 27.6515 39.9 27.4612 38.95 26.7473C37.8575 25.8431 37.81 25.748 38.4275 24.0823C38.95 22.607 38.95 22.0835 38.4275 21.1317C37.9525 20.2275 37.905 19.4661 38.3325 17.4673C38.7125 15.6589 38.7125 14.3264 38.38 12.9463C37.905 10.9951 38.19 6.95004 38.9025 6.52173C39.0925 6.37897 41.4675 7.75906 44.2225 9.56747C46.93 11.4235 49.495 12.8987 49.9225 12.8987C50.35 12.8987 51.2525 13.3271 51.9175 13.8505C52.5825 14.374 53.675 14.8023 54.34 14.8023C55.005 14.8023 55.575 14.9451 55.575 15.1355C55.6225 15.3734 55.8125 16.468 56.05 17.6577C56.335 19.3233 56.24 20.1324 55.6225 21.4649C55.1475 22.3691 54.625 23.8444 54.4825 24.6534C54.1975 25.9859 54.2925 26.2238 55.0525 26.2238C55.67 26.2238 56.6675 25.0341 58.235 22.3691L60.4675 18.5143L59.755 14.6595C59.09 11.2807 59.09 10.6144 59.7075 9.13916C60.325 7.66388 60.325 7.47354 59.66 7.0928C59.185 6.85486 58.9 6.04584 58.9 5.04645C58.9 3.66635 59.0425 3.47598 59.9925 3.71396C60.5625 3.85672 65.3125 5.14163 70.5375 6.52173ZM419.14 75.5267C420.138 76.5261 420.138 76.5261 418.19 78.6676C417.145 79.8573 416.575 80.9043 416.67 81.6182C416.718 82.1892 416.338 83.2838 415.72 83.9977C415.15 84.7591 414.675 86.044 414.675 86.9006C414.675 88.8518 414.438 89.0421 412.823 88.4235C409.925 87.3289 407.17 91.2313 406.458 97.5607C405.508 105.365 406.03 109.315 408.785 115.645C411.398 121.593 409.023 132.254 404.368 135.442C402.135 136.965 400.995 136.489 399.855 133.491C399.38 132.206 398.525 130.826 398.05 130.35C397.385 129.826 397.1 128.97 397.1 127.495C397.053 126.4 396.578 122.974 395.913 119.975C394.915 115.074 394.868 114.407 395.485 113.17C395.96 112.313 396.15 110.695 396.103 108.601C396.008 105.984 396.198 104.985 397.053 103.652C397.718 102.558 398.05 101.225 398.05 99.607C398.05 98.2745 398.24 97.0848 398.478 96.942C399.333 96.4185 401.47 89.9464 401.518 87.7096C401.613 85.7109 401.518 85.4729 400.473 85.3301C399.855 85.235 399.143 85.3777 398.858 85.6633C397.67 86.853 397.67 86.044 398.858 83.6169C400.14 80.9519 401.138 80.2856 403.133 80.7615C404.605 81.1423 406.98 80.1429 407.313 79.0007C407.503 78.4772 408.263 78.0013 409.355 77.811C410.305 77.6206 411.54 77.1447 412.063 76.6688C414.39 74.6701 417.763 74.099 419.14 75.5267ZM537.463 154.288C537.985 155.097 537.415 155.287 536.75 154.478C536.37 154.05 536.37 153.764 536.655 153.764C536.94 153.764 537.32 154.002 537.463 154.288Z" fill="#3A3A3A"/>
<path d="M58.425 280.495C54.625 282.208 53.77 282.78 52.915 284.302C51.395 287.063 51.2525 287.11 48.45 286.444L45.9325 285.873L44.6025 287.443C42.75 289.728 42.655 290.537 44.2225 292.631C45.125 293.915 45.695 295.296 45.885 297.104L46.17 299.721L43.415 300.055C36.2425 300.911 35.1975 301.149 34.485 301.72C33.4875 302.577 33.535 303.338 34.7225 305.718C35.5775 307.336 35.6725 307.907 35.245 309.097C34.6275 310.667 34.9125 311.428 36.955 313.332C38.5225 314.855 43.9375 316.996 46.1225 316.996C47.88 316.996 47.5475 317.758 45.6475 318.186C44.8875 318.329 43.89 318.9 43.4625 319.376C42.655 320.28 42.6075 320.28 41.42 319.376C39.805 318.091 38.9025 318.186 37.24 319.899C36.48 320.708 34.5325 322.136 32.87 323.04C31.2075 323.992 29.735 325.039 29.5925 325.42C29.45 325.801 29.64 327.323 30.0675 328.799C30.5425 330.559 30.6375 331.749 30.3525 332.273C29.545 333.796 29.925 335.842 31.3025 337.841C32.395 339.316 33.1075 339.792 34.58 340.077C35.625 340.22 36.86 340.696 37.3825 341.029C38.095 341.6 38.1425 341.838 37.6675 342.647C36.7175 344.17 36.9075 346.692 38 347.692C38.665 348.31 39.33 348.453 40.565 348.215C42.1325 347.93 42.275 348.025 43.7 350.071C44.745 351.642 45.505 352.213 46.3125 352.213C47.7375 352.213 47.785 352.498 46.645 354.259C46.1225 355.116 44.27 356.448 41.5625 357.876C39.1875 359.113 36.48 360.589 35.5775 361.112C34.675 361.683 33.4875 362.064 32.965 361.921C32.49 361.778 30.78 362.111 29.26 362.682C27.6925 363.206 25.745 363.634 24.8425 363.634C22.61 363.634 19 366.109 19 367.632C19 369.678 19.9975 369.964 25.3175 369.631C27.9775 369.44 30.8275 369.107 31.5875 368.869C32.395 368.584 35.4825 367.632 38.475 366.775C49.4475 363.492 51.5375 362.587 54.91 359.827C62.6525 353.45 63.65 352.498 63.65 351.213C63.65 350.119 66.215 346.978 67.1175 346.978C67.3075 346.978 67.45 347.787 67.45 348.834C67.45 351.737 68.305 352.118 72.3425 351.071C77.615 349.738 78.565 349.167 80.085 346.835C81.2725 344.932 81.7 344.646 83.0775 344.598C84.36 344.598 85.31 345.122 87.495 347.025C90.25 349.453 92.15 350.309 94.715 350.309C96.4725 350.309 101.603 352.165 106.258 354.497L109.963 356.401L111.625 360.303C112.86 363.158 114.143 365.11 116.565 367.822C120.983 372.676 127.68 378.815 129.01 379.148C129.96 379.386 136.183 377.055 137.655 375.912C138.035 375.579 138.225 374.009 138.225 371.249C138.225 366.394 138.32 366.49 132.715 363.92L128.868 362.111L123.548 354.83C120.65 350.833 117.943 347.454 117.563 347.263C116.708 346.93 115.71 347.263 113.335 348.786L111.435 349.976L110.01 348.12C107.065 344.36 106.638 344.123 103.788 344.123H101.175V318.71V293.249L97.9925 289.68C96.2825 287.681 94.4775 286.063 94.0025 286.063C93.5275 286.063 92.5775 286.396 91.8175 286.825C90.535 287.586 90.3925 287.586 86.9725 285.825C83.7425 284.207 83.22 284.112 80.8925 284.398C78.47 284.683 78.375 284.683 78.375 283.541C78.375 282.875 78.09 282.161 77.805 281.923C76.76 281.114 70.3 278.83 69.2075 278.877C68.6375 278.925 67.64 278.972 66.975 279.02C66.31 279.068 65.17 278.972 64.3625 278.782C63.27 278.544 61.8925 278.972 58.425 280.495ZM65.36 280.876C66.975 281.304 67.64 281.304 68.1625 280.828C68.685 280.4 69.635 280.59 72.865 281.78C76.8075 283.255 76.9025 283.351 76.6175 284.683C76.38 285.825 76.5225 286.063 77.615 286.349C78.3275 286.491 79.7525 286.444 80.845 286.158C82.65 285.682 83.03 285.778 86.735 287.634L90.725 289.632L92.435 288.681C94.145 287.776 94.145 287.776 94.905 288.776C95.38 289.299 96.52 290.727 97.47 291.869L99.275 294.011L99.37 319.899L99.5125 345.788L102.6 345.931L105.688 346.026L108.395 349.024L111.055 351.975L114 350.357C116.803 348.834 116.945 348.834 117.563 349.643C117.943 350.166 120.318 353.45 122.883 356.972L127.538 363.396L131.955 365.49L136.325 367.632V371.201V374.818L133.095 376.15C131.338 376.864 129.675 377.435 129.343 377.435C129.058 377.435 125.78 374.485 122.123 370.868C115.805 364.634 115.378 364.158 113.383 359.732L111.245 355.116L106.78 352.879C101.413 350.166 96.3775 348.406 94.05 348.406C92.15 348.406 90.915 347.692 88.1125 345.027C86.4025 343.409 85.88 343.218 82.7925 342.885L79.325 342.552V343.932C79.2775 346.264 77.5675 347.739 73.5775 348.834C68.9225 350.119 68.875 350.119 68.875 348.263C68.875 347.168 69.445 345.883 70.775 344.123C71.82 342.742 72.58 341.505 72.4375 341.362C72.105 341.029 68.8275 343.171 66.12 345.503C64.695 346.692 62.89 348.263 62.0825 348.977C60.705 350.119 60.61 350.309 61.37 350.88C62.0825 351.451 61.7025 351.88 57.855 355.068C50.825 360.922 50.54 361.112 44.27 363.111C32.7275 366.823 29.83 367.537 25.175 367.727L20.6625 367.965L22.0875 366.775C22.99 366.014 24.0825 365.538 25.0325 365.538C25.8875 365.538 27.6925 365.11 29.07 364.586C30.4475 364.063 32.2525 363.634 33.06 363.634C33.9625 363.634 37.05 362.349 41.04 360.255C47.4525 356.924 47.595 356.829 48.6875 354.402C49.305 353.069 50.255 351.261 50.825 350.452L51.87 348.881L49.5425 349.595C46.265 350.595 45.98 350.5 44.555 348.12C43.225 345.979 43.225 345.979 41.135 346.264C39.33 346.55 39.045 346.454 38.855 345.645C38.7125 345.074 38.9025 344.218 39.2825 343.647C40.4225 342.029 39.2825 338.888 37.5725 338.888C33.63 338.888 31.1125 336.08 32.205 332.987C32.68 331.702 32.6325 331.035 32.0625 329.37C31.6825 328.275 31.35 327.085 31.35 326.752C31.35 326.419 32.49 325.42 33.8675 324.611C35.1975 323.754 37.05 322.422 37.8575 321.613L39.425 320.137L40.8025 321.517L42.2275 322.85L43.9375 321.327C45.125 320.328 46.1225 319.852 47.215 319.852C48.7825 319.852 48.83 319.852 49.1625 317.139C49.3525 315.664 49.59 314.141 49.78 313.713C49.97 313.189 49.6375 313.284 48.355 314.046C47.4525 314.617 46.3125 315.093 45.8375 315.093C43.985 315.093 39.9475 313.475 38.2375 312.047C36.6225 310.667 36.5275 310.477 37.0975 309.287C37.5725 308.192 37.525 307.621 36.67 305.575C35.53 302.815 35.245 303.053 40.6125 302.244C42.7025 301.958 44.7925 301.625 45.2675 301.53C45.9325 301.387 46.075 301.768 46.075 303.671C46.075 306.051 46.55 306.527 49.2575 306.527C50.5875 306.527 50.6825 306.289 51.11 303.291L51.395 300.864L49.685 300.055C48.735 299.579 47.975 299.103 47.975 298.96C47.9275 296.485 46.835 292.821 45.79 291.726C44.6025 290.489 44.6025 290.394 45.3625 289.204C46.265 287.872 46.93 287.729 49.305 288.395C51.4425 289.014 53.0575 288.252 54.1975 285.92C55.005 284.398 55.765 283.779 59.0425 282.256C61.18 281.257 62.985 280.4 63.08 280.4C63.175 280.352 64.1725 280.59 65.36 280.876ZM49.1625 302.958C49.1625 303.719 48.8775 304.385 48.5925 304.48C48.165 304.623 47.975 304.147 47.975 302.958C47.975 301.768 48.165 301.292 48.5925 301.387C48.8775 301.53 49.1625 302.196 49.1625 302.958Z" fill="#3A3A3A"/>
<path d="M157.7 327.752C154.993 328.941 154.375 329.75 154.375 332.225C154.375 333.415 154.613 334.652 154.945 334.985C155.753 335.794 162.64 335.747 163.305 334.938C163.543 334.652 164.065 333.415 164.398 332.273L165.015 330.179L163.258 328.608C161.358 326.847 160.218 326.657 157.7 327.752ZM162.165 329.798C162.83 330.559 162.925 331.035 162.593 332.082C162.165 333.32 161.928 333.415 159.22 333.558L156.275 333.7V332.082C156.275 330.75 156.513 330.369 157.843 329.703C159.885 328.703 161.168 328.703 162.165 329.798Z" fill="#3A3A3A"/>
<path d="M177.319 335.699L175.609 337.27L176.132 340.363C176.844 344.313 177.747 345.074 181.499 345.074C185.014 345.074 186.202 344.123 186.202 341.172C186.202 339.459 185.917 338.935 183.684 336.651C182.164 335.176 180.692 334.129 180.074 334.129C179.504 334.129 178.269 334.843 177.319 335.699ZM182.307 337.888C183.969 339.411 184.302 340.03 184.302 341.458V343.171H181.499H178.649L178.079 340.506C177.509 337.888 177.509 337.793 178.554 336.937C179.172 336.413 179.789 336.032 179.979 336.032C180.122 336.08 181.167 336.889 182.307 337.888Z" fill="#3A3A3A"/>
<path d="M189.004 342.552C188.339 343.076 188.102 343.789 188.102 345.36C188.102 347.263 188.244 347.549 189.432 348.072C190.287 348.453 190.667 348.929 190.572 349.5C190.477 349.976 190.714 350.88 191.142 351.499C191.569 352.118 191.902 353.117 191.902 353.64C191.902 354.687 193.564 355.592 194.752 355.163C196.129 354.64 198.172 352.927 198.552 351.975C198.884 351.071 198.979 351.118 199.549 352.355C200.357 354.116 201.687 354.354 204.252 353.26C207.149 352.022 208.717 350.214 208.337 348.691C207.909 347.025 205.059 345.36 203.207 345.741C201.972 345.978 201.354 345.788 199.977 344.694C197.792 342.885 190.524 341.505 189.004 342.552ZM194.467 344.598C195.987 344.836 197.364 345.122 197.459 345.217C197.744 345.503 196.557 347.93 196.129 347.93C195.939 347.93 195.702 347.597 195.512 347.216C195.322 346.692 194.514 346.502 192.614 346.502C190.144 346.502 190.002 346.454 190.002 345.312C190.002 343.932 190.287 343.885 194.467 344.598ZM202.922 347.787C204.679 347.454 207.054 348.786 206.437 349.786C206.057 350.357 202.684 352.213 201.924 352.213C201.687 352.213 201.259 351.546 200.974 350.785C200.642 349.833 200.167 349.357 199.549 349.357C198.742 349.357 198.552 349.072 198.552 347.692V345.978L199.929 347.025C200.974 347.787 201.734 347.977 202.922 347.787ZM195.417 349.928L196.652 351.499L195.654 352.308C194.277 353.45 194.182 353.402 193.232 351.404C192.614 350.119 192.567 349.5 192.947 349.024C193.707 348.12 194.087 348.263 195.417 349.928Z" fill="#3A3A3A"/>
<path d="M207.67 356.115C207.337 356.448 207.1 357.21 207.1 357.828C207.1 358.447 206.53 359.875 205.865 361.064C204.487 363.444 204.487 364.205 206.102 370.868C207.147 375.151 207.29 375.436 208.81 376.055C211.85 377.197 212.182 377.15 214.082 375.103C215.792 373.247 218.88 371.82 222.917 371.011C225.53 370.487 225.815 365.871 223.297 365.014C222.585 364.729 221.682 363.967 221.302 363.206C220.115 360.874 216.362 357.923 212.99 356.686C209.427 355.401 208.477 355.306 207.67 356.115ZM212.087 358.399C215.412 359.542 218.737 362.159 219.83 364.491C220.352 365.585 221.065 366.299 221.825 366.49C222.68 366.68 223.012 367.108 223.012 367.87C223.012 368.822 222.632 369.107 220.637 369.631C216.742 370.63 213.94 372.01 212.895 373.533C212.087 374.627 211.612 374.865 210.71 374.723C209.047 374.389 208.762 373.914 207.622 369.25C206.387 364.063 206.387 363.825 207.812 361.493C208.43 360.446 209 359.113 209 358.495C209 357.21 208.715 357.257 212.087 358.399Z" fill="#3A3A3A"/>
</svg>
